<svg width="687" height="686" viewBox="0 0 687 686" fill="none" xmlns="http://www.w3.org/2000/svg">
<path opacity="0.15" d="M386.517 460.907C394.653 457.624 398.721 449.014 404.964 443.258C417.048 432.055 434.844 431.655 449.283 424.927C478.311 412.733 504.103 385.433 507.449 353.337V353.026C507.229 346.589 504.554 347.77 503.512 352.986C500.926 367.242 491.077 379.096 480.155 388.066C466.156 399.749 448.11 404.064 430.856 408.388C408.751 414.105 381.386 419.19 370.194 441.676C364.182 454.69 372.358 466.293 386.527 460.897L386.517 460.907ZM184.731 194.979C147.025 187.951 112.987 225.523 111.594 262.985V263.306C112.967 275.89 119.35 257.549 121.524 254.736C124.32 250.051 127.697 245.796 131.534 241.942C161.745 212.749 170.242 232.681 188.349 223.701C201.315 216.113 199.521 198.723 184.731 194.969V194.979ZM349.071 194.608C318.109 201.336 289.351 179.441 259 179.021H258.65C246.485 178.991 234.221 182.935 223.82 189.292C218.349 192.676 212.828 196.541 208.499 201.216C202.807 207.423 205.062 209.625 213.509 206.972C247.698 193.187 269.792 202.718 303.52 210.777C312.538 212.959 322.027 214.671 331.275 213.46C339.752 212.448 348.751 208.514 354.282 202.257C360.244 195.399 355.544 193.737 349.071 194.608ZM195.773 515.278C196.344 518.722 197.086 521.345 198.008 521.816L198.098 521.856C198.84 522.176 199.691 521.145 200.473 519.093C201.204 517.191 201.816 514.497 202.156 512.265C208.198 476.235 193.098 437.291 163.138 415.817C155.302 409.78 142.246 403.883 134.17 412.283C128.238 418.73 129.3 430.073 134.24 437.021C144.39 450.586 160.633 458.044 172.446 470.038C185.453 482.171 193.809 497.568 195.783 515.278H195.773ZM71.0428 215.802C71.2332 219.767 72.2953 229.468 75.9927 229.708C76.6741 229.588 77.3054 228.797 77.8265 227.525C79.089 224.242 79.3694 220.407 80.2011 216.833C82.9767 203.919 87.7564 191.185 100.071 184.857C102.606 183.316 105.161 181.764 107.035 179.852C111.795 175.467 110.732 167.949 105.572 164.525C99.7905 160.59 91.985 163.193 86.9348 167.288C73.6682 178.701 71.0428 198.523 71.0328 215.452L71.0528 215.802H71.0428ZM83.8084 319.168C86.8946 332.643 97.2455 342.995 104.119 354.658C110.753 364.709 116.514 375.411 122.095 386.143C123.488 388.586 125.181 393.512 127.306 394.693L127.416 394.723C130.402 394.172 128.037 384.592 127.596 381.889C123.729 363.448 119.791 345.027 115.753 326.617C114.34 320.33 112.606 313.912 108.939 308.546C97.2656 291.127 80.111 299.146 83.7984 319.158L83.8084 319.168ZM208.539 139.326C206.936 139.116 205.122 139.226 203.379 139.416C150.422 144.843 88.8887 182.545 86.1131 239.409V239.759C85.9528 251.733 88.3175 264.637 93.3376 274.008C94.3997 275.89 96.0732 278.793 98.4379 278.533C100.151 278.402 101.023 274.979 100.973 272.556C99.2596 245.806 108.187 220.688 125.332 200.065C146.364 173.745 176.244 157.066 207.777 146.765C212.367 145.003 214.541 140.207 208.549 139.336L208.539 139.326ZM128.468 345.328V345.658C128.799 365.33 136.073 384.672 149.831 398.878C154.35 403.973 161.013 406.957 157.156 396.255C155.452 391.65 153.719 386.674 152.597 381.769C133.618 307.125 197.587 241.441 265.373 221.699C271.295 219.396 274.021 214.791 266.255 213.8C261.014 213.379 255.303 214.25 249.982 215.051C187.126 225.443 129.42 279.574 128.458 345.318L128.468 345.328ZM220.683 304.242C220.924 305.153 223.028 305.893 226.405 306.324C235.694 307.215 248.058 307.235 258.018 307.155C290.664 307.675 321.756 289.965 338.971 262.595C344.622 253.595 354.362 235.725 343.801 227.595C329.332 221.619 317.438 252.323 309.933 261.624C293.8 286.321 271.035 295.782 242.447 297.944C237.958 298.465 233.259 299.126 229.211 300.087C223.79 301.348 220.363 302.9 220.663 304.171L220.683 304.242ZM445.765 120.675C400.394 142.64 355.995 198.563 355.554 250.431V250.761C355.153 290.686 378.34 332.653 417.469 345.888C444.874 355.469 476.878 346.279 494.884 323.363C502.109 314.913 508.051 300.998 491.447 312.17C482.98 317.637 473.802 320.47 464.012 320.59C442.91 320.78 423.481 310.649 409.432 295.331C392.228 276.981 383.15 248.779 389.813 221.879C396.546 194.478 409.813 168.89 426.978 146.464C432.238 139.697 438.23 133.55 444.663 127.874C447.309 125.661 453.822 118.493 445.775 120.675H445.765ZM438.28 167.098C439.042 165.045 439.333 163.213 438.822 162.182C435.365 158.017 426.777 169.61 424.322 172.393C408.972 191.375 398.801 214.19 398.36 239.218V239.549C398.43 274.108 424.603 301.078 460.134 302.379C466.798 302.79 472.239 300.037 464.804 294.35C424.453 270.093 416.807 219.817 433.29 178.711C434.773 174.796 436.787 170.952 438.26 167.108L438.28 167.098ZM287.808 266.579C299.512 258.12 309.602 246.827 314.863 233.232C315.965 230.589 317.057 225.273 315.975 224.572L315.905 224.502C313.45 223.331 309.422 228.767 306.937 230.859C288.67 249.81 261.365 251.963 237.076 257.479C202.437 265.478 166.004 289.235 159.08 326.276C157.837 335.336 163.829 344.717 173.118 340.222C178.99 337.269 183.008 331.842 187.186 326.657C196.425 314.353 206.635 302.209 220.623 295.201C231.385 289.455 243.539 286.592 254.972 282.757C266.596 278.953 277.888 273.797 287.808 266.569V266.579ZM365.504 397.927L365.835 398.057C402.228 409.71 472.289 396.775 486.167 360.715C486.978 357.161 485.375 353.156 482.209 351.304C476.437 348.401 469.283 352.446 464.162 355.379C440.305 373.169 417.499 393.382 385.955 393.682C380.825 393.862 375.795 393.191 370.755 392.32C368.24 391.92 365.464 391.339 363.49 392.03C359.703 393.422 362.558 397.106 365.494 397.937L365.504 397.927ZM398.04 377.994C410.485 378.044 422.228 375.331 432.85 368.704C434.633 367.593 437.168 365.28 436.968 363.868C436.497 360.655 433.19 361.616 430.775 361.596C426.216 361.566 421.617 361.886 417.098 361.416C401.326 359.794 387.378 354.518 376.897 341.734C367.849 330.701 360.414 319.008 356.947 304.942C354.592 295.402 346.416 288.654 338.31 288.524C329.472 288.384 321.335 294.731 317.919 304.041C315.434 310.809 317.067 316.976 319.632 323.273C332.809 355.569 364.683 377.864 398.05 378.004L398.04 377.994ZM131.895 544.061C152.276 534.23 167.927 511.224 166.224 488.488C165.192 476.685 158.298 466.333 148.418 459.816C141.855 455.291 130.452 450.646 123.759 456.442C117.186 462.549 122.977 470.018 129.6 473.221C138.358 477.546 145.733 485.165 146.875 495.156C148.799 514.277 133.438 529.785 119.37 540.667C116.735 543.029 110.683 546.163 110.202 549.407L110.232 549.497C113.578 552.46 127.867 546.003 131.885 544.051L131.895 544.061ZM250.634 166.527C243.88 172.514 252.868 173.174 257.237 172.494C283.179 168.759 307.518 181.694 332.919 183.796H333.229C340.233 183.716 347.298 182.595 354.252 180.533C362.749 177.93 370.775 173.254 377.097 166.967C386.997 156.776 378.16 157.056 369.262 159.95C329.312 171.513 306.365 140.798 262.938 159.719C258.61 161.661 254.191 163.624 250.644 166.527H250.634ZM433.05 67.3356C426.888 66.1242 420.274 67.3156 414.002 67.3956C383.43 68.6971 363.12 71.0097 342.147 95.367C333.219 103.867 323.41 111.335 311.666 115.47C304.401 117.872 297.117 120.665 291.636 126.192C288.94 128.945 285.854 132.379 286.486 134.471L286.546 134.571C288.059 135.722 290.584 134.201 292.357 133.76C305.975 129.135 320.654 128.524 334.903 127.003C360.214 123.869 374.422 113.037 392.629 96.228C404.142 88.0088 416.567 80.5204 429.753 75.3646C434.383 74.0331 440.806 69.8184 433.05 67.3356ZM280.824 101.033C280.063 100.553 278.65 101.614 277.017 103.686C275.433 105.689 273.82 108.302 272.347 110.524C260.443 128.825 243.429 141.849 223.8 150.319C209.371 157.597 190.242 156.996 177.707 167.578C167.126 178.781 180.012 189.903 192.347 189.763C234.832 189.312 267.838 147.445 280.333 109.643C281.045 107.23 282.267 102.545 280.914 101.073L280.824 101.013V101.033ZM259.992 33.3675C250.523 93.0745 179.26 124.56 126.234 102.215C123.258 100.913 115.151 97.8198 116.865 103.566C119.019 107.991 123.689 111.435 127.466 114.719C138.749 123.489 154.17 129.215 168.669 129.445H168.98C215.824 130.486 267.107 103.416 272.748 55.4222C273.269 48.3843 272.257 41.3464 269.331 34.4887C266.696 28.0715 261.866 25.2984 259.992 33.3574V33.3675ZM193.449 563.563C228.489 535.071 260.523 475.664 231.615 433.737C224.291 422.254 213.8 412.062 210.783 398.427C210.062 393.141 208.589 383.47 204.852 392.581C196.926 423.455 214.17 453.049 220.002 482.872C226.365 510.423 210.242 536.412 192.517 556.174C189.841 559.598 183.268 565.074 183.439 568.408L183.479 568.498C185.723 570 191.144 565.325 193.449 563.563ZM581.438 85.566C572.23 73.8229 554.293 72.0108 541.468 77.6772C532.159 81.6516 524.955 87.8386 519.253 95.8376C517.159 99.1413 513.502 102.485 513.672 106.399C515.476 111.215 523.993 101.914 526.718 100.613C538.432 92.4838 551.137 89.4704 564.995 93.6952C568.031 94.5461 571.278 95.6974 574.304 95.7775H574.604C580.807 95.9877 585.306 91.4326 581.438 85.576V85.566ZM205.343 80.22C178.639 83.8541 154.31 75.4847 132.657 59.9473C129.109 57.4445 125.252 54.6914 121.143 53.2398C110.662 48.9149 98.4278 57.2342 100.101 68.5469C100.973 75.0042 106.905 80.6305 112.606 84.3347C126.174 93.2447 142.707 96.6885 158.639 96.7386H158.969C177.046 96.0278 197.056 93.4549 212.457 83.1934C213.449 82.2223 213.719 81.3513 213.178 80.7807C211.826 79.4792 207.647 79.9898 205.353 80.2301L205.343 80.22ZM341.997 475.344C363.861 489.199 391.847 487.988 416.026 482.211C418.571 481.521 423 480.379 424.242 478.127L424.292 477.966C424.202 474.443 411.968 475.844 408.811 475.514C387.739 474.713 369.322 463.821 350.514 455.441C328.009 445.89 323.891 463.901 341.997 475.354V475.344ZM328.911 426.669C328.991 432.335 328.55 439.443 332.558 443.678C335.985 447.382 341.366 447.292 345.163 443.438C352.037 436.41 354.402 426.369 354.422 416.848C353.841 380.317 332.919 349.562 302.237 330.511C297.197 327.277 291.646 325.015 285.854 323.583C276.064 321.351 278.289 327.117 284.181 331.042C314.602 353.266 328.951 389.707 328.901 426.328V426.659L328.911 426.669ZM206.725 572.803C227.026 567.587 243.519 552.861 256.004 536.642C284.341 499.951 292.037 439.633 264.552 400.53C254.531 386.294 240.313 375.682 222.647 372.638C218.84 372.168 215.243 371.947 214.661 374.22C214.601 377.203 219.411 379.736 221.806 381.658C247.617 398.417 258.88 428.291 258.63 459.235V459.556C256.796 500.071 237.868 537.393 205.373 562.321C203.098 564.143 200.222 566.186 198.429 568.238C194.02 573.864 202.156 574.014 206.725 572.803ZM571.137 416.738C563.843 418.069 556.799 419.471 549.614 420.882C510.506 426.379 483.241 443.438 473.06 483.062C470.575 492.052 469.854 501.323 468.852 510.543C468.671 512.125 468.702 514.267 469.924 515.228C471.938 516.67 473.922 514.728 475.305 512.665C488.862 492.413 505.485 476.034 526.868 465.633C534.103 461.828 542.55 459.736 550.155 456.432C563.552 450.225 575.436 437.671 577.29 422.564L577.31 422.254C577.56 417.479 575.837 415.767 571.147 416.738H571.137ZM507.359 420.792C526.407 399.158 537.71 370.296 531.758 341.183C530.676 336.067 528.913 331.172 526.999 326.316C526.147 323.944 523.872 320.099 522.389 320.259C520.345 319.929 519.965 325.535 520.185 327.958C523.502 379.646 487.63 425.357 442.649 447.192C433.611 451.807 423.982 454.8 414.392 457.934C411.917 458.785 409.593 459.896 408.591 461.007C405.645 464.161 413.591 464.822 416.547 464.571H416.887C452.108 463.36 484.032 448.263 507.349 420.792H507.359ZM490.064 116.06C494.974 108.892 500.826 102.045 506.878 95.7975C507.87 94.8364 509.353 93.0544 509.283 92.2636V92.1234C508.822 90.3714 505.455 91.1223 502.379 92.2135C494.463 95.3871 487.339 100.623 481.217 106.48C456.778 130.567 441.707 163.093 441.848 197.502C441.627 214.471 448.781 230.178 452.95 246.316C456.026 256.468 455.114 267.36 458.591 277.371C468.291 302.92 492.038 282.517 493.461 264.307C496.788 232.992 465.044 220.367 468.471 176.758C470.295 155.084 478.221 134.351 490.064 116.06ZM75.602 485.275C68.097 494.125 77.1752 494.355 83.9188 492.142C89.6403 490.34 95.0811 487.307 99.8206 483.663C116.664 470.919 122.727 449.144 122.326 428.631V428.291C121.825 415.827 119.25 403.122 114.42 391.469C109.53 380.067 101.714 370.196 92.5359 361.366C80.612 350.183 75.181 352.496 83.7081 367.773C99.1391 396.295 106.414 432.996 92.4559 463.2C88.6583 471.679 81.8245 478.457 75.592 485.265L75.602 485.275ZM378.17 562.922C381.917 558.076 387.108 547.725 376.436 549.126C350.454 556.214 328.37 573.193 307.037 588.921C291.185 601.005 273.259 610.535 253.139 613.078C249.341 613.839 242.317 613.689 240.062 615.941L240.012 616.031C240.042 619.535 252.317 620.937 255.754 621.418C303.65 627.174 351.546 603.227 378.17 562.922ZM273.449 652.853H273.8C299.191 651.711 322.708 642.301 338.229 619.435C343.35 612.117 343.841 606.01 334.081 613.268C302.357 636.244 250.804 643.232 220.914 614.6C217.818 612.147 214.441 611.536 214.701 616.152C215.744 623.25 220.643 629.977 225.503 635.173C237.687 647.837 255.614 652.683 273.439 652.853H273.449ZM390.024 535.361C387.509 533.509 381.406 531.587 375.715 530.235C358.43 526.01 339.993 523.287 322.568 528.163C289.973 537.954 268.67 567.887 237.678 580.942C226.325 585.808 214.321 588.4 201.896 588.531C196.375 588.661 190.653 587.93 185.122 587.74C181.294 587.63 178.669 587.99 178.148 589.021C176.695 590.323 182.998 594.417 186.675 595.999C209.751 606.21 236.886 608.883 260.754 600.094C304.983 584.156 326.105 537.694 377.779 540.126H378.13C383.681 540.036 395.515 539.616 390.014 535.361H390.024ZM207.026 611.246C201.505 607.852 201.695 623.68 201.595 626.774V627.144C201.936 635.523 201.475 647.717 209.892 652.162C211.826 652.953 213.99 652.843 215.673 651.641C221.976 645.825 216.315 636.554 214.421 629.386C212.457 624.1 210.513 614.32 207.026 611.246ZM107.586 527.232C105.843 522.336 94.3497 528.483 90.1914 528.513C64.8705 532.358 37.0044 529.024 14.399 543.12C10.3208 545.763 4.68945 548.756 2.55516 553.031L2.4852 553.221C1.58339 558.447 12.0443 553.141 14.9 552.13C18.1666 550.858 21.5133 549.737 24.9302 548.906C34.1888 546.604 43.8181 546.503 53.1969 548.035C61.7741 549.317 70.612 552.81 79.1291 551.94C87.025 551.329 93.9788 546.784 99.2494 541.067C102.366 537.493 108.157 531.847 107.586 527.232ZM143.448 642.461C150.262 642.611 157.577 641.71 163.168 637.415C168.058 633.922 169.871 626.463 163.799 623.59C161.755 622.549 158.709 622.529 156.384 622.849C143.909 624.491 130.833 628.445 119.42 622.689C117.206 621.798 110.121 616.852 109.901 621.578C110.091 623.65 111.574 625.542 112.847 627.144C120.582 636.064 131.364 641.91 143.148 642.461H143.438H143.448ZM46.1427 469.387C44.5896 483.873 58.3173 488.979 68.8585 479.909C88.7685 461.628 88.2273 428.131 85.2914 403.263L85.2413 402.912C84.4296 396.625 82.8965 384.952 80.4516 381.048C80.171 380.577 79.8305 380.127 79.3796 380.047C78.6281 379.976 78.107 381.668 77.8064 384.572C77.4156 388.146 77.4758 392.781 77.1151 396.605C75.0609 418.209 60.4416 435.279 51.1129 454.23C48.7481 458.955 46.6036 464.151 46.1427 469.387ZM593.492 623.47C602.6 629.797 609.114 620.236 607.701 610.936C607.21 606.351 605.626 601.976 603.502 597.701C571.288 535.821 484.533 528.363 436.066 575.526C429.834 581.523 423.851 588.08 419.252 595.418C417.148 598.902 416.146 601.535 416.587 602.256L416.617 602.306C417.108 603.037 419.192 601.635 422.178 598.862C424.964 596.309 428.26 592.785 431.587 589.862C463.361 562.241 506.938 560.459 543.913 579.13C554.474 584.256 564.243 590.883 572.53 599.243C580.256 606.23 585.205 617.133 593.492 623.46V623.47ZM646.639 587.299L646.719 587.399C647.34 588.09 648.944 587.159 650.717 585.467C657.13 579.07 661.87 571.261 664.244 562.441C673.954 527.352 666.509 494.415 643.362 466.664C636.388 458.304 628.783 450.616 621.298 442.817C619.454 440.795 615.997 438.402 613.562 440.154C607.791 445.66 617.33 457.493 620.126 463.24C624.174 470.248 628.883 476.875 632.901 483.873C648.132 510.783 658.312 543.36 649.545 574.315C648.823 578.079 645.607 583.945 646.649 587.289L646.639 587.299ZM623.432 37.2318C623.432 37.2318 623.462 37.2418 623.473 37.2518C625.867 38.1528 628.202 35.7902 627.491 33.3374C627.43 33.1372 627.37 32.927 627.3 32.7267C626.999 31.8357 626.388 31.0248 625.817 30.2439C619.374 21.384 613.522 11.8433 613.783 0.060065H594.765C594.594 13.1848 609.865 31.9158 623.422 37.2418L623.432 37.2318ZM606.037 467.284C599.875 466.984 595.787 472.811 598.142 478.467C600.476 484.504 606.068 488.949 610.226 493.824C619.996 504.546 627.761 516.54 632.3 530.155C633.222 533.228 637.641 543.32 638.683 535.801C637.491 516.039 629.204 497.208 620.045 479.728C617.16 474.302 612.951 467.805 606.338 467.305L606.037 467.284ZM446.337 640.329C437.97 649.819 440.194 666.298 454.493 667.319C466.547 666.959 474.844 656.427 484.734 650.911C501.778 640.189 521.157 637.906 540.776 641.43C543.201 641.72 548.752 643.122 550.316 641.51L550.386 641.37C550.546 638.457 545.776 635.944 543.542 634.462C515.165 618.334 470.345 614.48 446.337 640.329ZM544.103 590.182C527.63 581.232 507.57 580.161 489.654 584.086C471.257 588.38 453.411 598.091 441.968 613.399C436.697 621.017 441.928 620.817 447.86 617.523C465.866 607.572 487.579 602.857 507.69 608.223C516.217 610.355 524.784 614.249 533.582 614.68H533.912C551.087 615.331 561.598 599.963 544.093 590.182H544.103ZM88.4479 560.349C78.9989 565.144 68.1369 565.685 57.9264 563.252C52.8762 562.511 46.5737 558.927 41.764 561.14C38.6378 563.953 42.7861 568.698 46.5136 571.912C53.688 577.758 62.6861 580.982 71.8746 581.152H72.2251C83.4477 581.383 95.9328 576.878 100.542 565.785C101.544 563.092 102.496 558.957 99.9409 557.005C96.8347 555.133 91.6744 558.887 88.4479 560.339V560.349ZM146.975 665.077H147.306C162.938 664.706 176.384 655.556 186.725 643.763C188.889 641.17 191.605 637.916 191.936 634.562C191.314 628.435 180.112 638.997 177.396 640.088C172.797 642.872 167.787 644.944 162.607 646.365C147.336 650.58 135.733 648.848 121.895 642.011C115.422 639.778 114.761 645.114 117.326 649.479C122.877 659.19 135.582 665.187 146.965 665.066L146.975 665.077ZM533.662 132.679C544.053 123.579 557.42 118.203 570.546 114.268C572.731 113.577 578.993 112.196 577.28 109.032C574.925 106.52 567.51 106.94 563.522 106.79H563.201C516.457 106.63 486.377 147.476 488.01 190.624C488.471 227.175 535.245 259.681 518.542 295.392C516.498 299.116 514.684 306.304 521.548 303.871C525.967 301.739 528.963 297.374 531.959 293.61C548.702 272.626 540.997 245.846 528.572 224.832C519.113 209.305 509.183 192.056 513.121 173.365C516.477 158.498 522.96 143.711 533.662 132.689V132.679ZM375.464 128.915C368.18 133.099 360.073 136.143 351.546 137.735C349.372 138.255 346.436 138.696 344.983 140.307C343.42 143.731 353.129 143.071 355.885 143.121H356.206C385.605 142.55 416.036 134.641 437.99 114.689C463.13 88.4593 490.405 75.0542 526.518 70.0686C535.486 67.7761 532.62 64.4724 525.696 64.4523C476.327 64.8228 426.837 83.0432 390.955 116.951C386.236 121.466 381.086 125.721 375.464 128.905V128.915ZM501.317 55.3021L501.628 55.262C504.153 55.0918 507.68 53.3299 506.598 51.678C504.153 48.5845 497.62 47.8237 493.952 45.8515C480.776 40.115 473.662 26.5598 463.171 17.3995C457.98 12.3238 448.12 11.1125 445.986 19.612C444.673 25.6288 448.09 31.8457 451.587 36.6111C462.71 51.3877 483.621 55.4723 501.317 55.3021ZM539.494 487.227C526.648 496.407 511.748 502.374 497.92 510.062C485.996 516.97 475.165 525.57 465.395 535.411C462.88 538.264 458.19 542.108 457.489 545.602V545.713C457.609 546.253 458.22 546.323 459.212 545.933C461.507 544.992 463.782 542.949 465.816 541.338C473.501 534.991 481.988 530.205 491.056 526.851C501.868 522.647 513.832 521.555 524.975 518.532C545.155 513.176 562.951 503.866 577.961 488.138C592.841 472.59 604.615 454.17 602.871 431.414C602.39 424.607 600.967 417.969 599.604 411.332C597.52 400.65 593.973 403.052 592.62 411.852C586.007 443.067 565.215 469.527 539.504 487.227H539.494ZM596.218 329.77C603.623 327.918 608.342 300.557 608.913 293.259C610.376 257.559 615.957 231.54 639.314 203.238C644.114 198.303 645.807 191.945 637.1 196.821C606.148 214.24 583.833 244.865 583.612 280.485V280.825C583.693 296.533 586.358 311.62 591.358 324.564C592.22 326.697 593.512 330.01 596.218 329.77ZM18.6776 559.178C13.9682 560.179 5.64135 562.191 0.541107 563.492V571.622C11.4931 569.079 18.357 569.329 26.9944 569.099C28.4774 569.059 30.7819 567.797 31.1627 566.606C31.6236 565.164 30.9322 562.772 29.87 561.53C26.884 558.056 22.6256 558.337 18.6676 559.178H18.6776ZM285.343 524.439C283.399 528.103 284.021 530.535 287.848 527.782C309.261 504.566 316.366 472.11 316.907 440.995V440.665C317.197 387.695 284.592 317.096 223.078 322.362C196.725 324.584 171.114 346.469 167.597 373.329C166.304 383.55 168.158 393.992 173.398 402.792C175.092 405.806 179.23 410.26 181.805 407.407C183.94 405.055 184.25 401.561 185.022 398.567C187.106 388.546 190.433 378.595 196.735 370.165C217.928 341.603 252.437 359.584 269.291 382.9C290.083 409.67 300.163 443.017 299.792 476.815C299.973 493.964 295.213 510.283 285.343 524.449V524.439ZM26.3931 102.265C26.4833 102.175 26.5534 102.045 26.5934 101.894C26.9341 100.643 25.792 99.5017 24.4994 99.5918C24.1988 99.6118 23.9081 99.6719 23.6576 99.782C18.4271 102.205 13.5071 105.398 8.04617 107.27C4.28862 108.552 3.02632 109.052 0.521292 109.633V122.087C10.822 117.972 18.9682 109.693 26.3931 102.265ZM91.2232 78.6583C89.4797 73.6827 84.4998 78.5582 83.0469 81.2712C55.9625 119.534 101.053 173.695 141.715 152.411C145.382 150.689 159.45 139.697 149.981 137.805C118.979 134.811 92.7063 116.831 91.544 84.8853V84.5849C91.4838 82.6327 91.7443 80.6005 91.2232 78.6783V78.6583ZM0.441052 46.4221C0.441052 55.0918 0.370774 65.3934 0.551137 73.5125C7.83577 73.8629 12.3248 72.3512 16.3529 70.2989C22.9461 66.9552 23.6677 59.8472 18.6877 54.2709C13.9982 49.025 7.89603 46.9327 0.441052 46.4121V46.4221ZM0.561167 88.2691V102.785C10.5713 100.192 18.7378 95.1067 26.2529 88.9598C29.76 86.0866 32.826 82.6528 35.8921 79.279C36.0424 79.1188 36.1226 78.8986 36.1727 78.6583C36.4633 77.1866 35.0905 75.9252 33.6075 76.0754C33.4372 76.0954 33.2769 76.1154 33.1165 76.1455C32.6356 76.2256 32.2851 76.8362 31.8141 77.1366C12.0845 89.8909 1.95396 88.0288 0.561167 88.2691ZM66.1431 99.2114L66.0829 99.1513C62.8464 99.0612 59.1389 114.609 57.7561 118.012C53.1469 133.27 47.3653 148.667 47.5657 164.795C47.716 172.083 49.5295 180.423 55.4414 185.118C63.6479 191.575 70.3113 184.007 70.4917 175.327C70.8925 169.26 69.64 163.153 68.5478 157.196C65.5017 141.849 64.0288 126.472 65.8725 110.975C66.1431 107.801 67.3956 101.414 66.1431 99.2114ZM13.0364 214.791C21.2629 246.707 42.3051 273.517 73.7984 286.892C78.4677 288.654 84.5599 291.818 89.2292 290.816L89.4298 290.746C97.6363 286.492 77.6061 263.496 73.8585 258.6C62.8564 245.035 52.0045 231.029 42.1848 216.473C27.9162 193.757 16.6236 167.358 23.5576 140.237C24.1588 137.985 25.4713 131.097 23.1767 131.377C21.4131 131.578 18.8079 135.883 17.9261 138.225C7.59537 162.613 5.83194 188.502 13.0264 214.781L13.0364 214.791ZM561.929 361.396C561.618 354.718 558.923 348.581 556.267 342.554C551.889 332.794 548.472 322.512 544.364 312.611C543.211 309.517 539.223 303.14 538.502 310.438C541.768 351.635 553.522 373.069 525.766 409.71C524.263 412.093 523.432 413.985 524.003 414.746L524.083 414.846C524.714 415.596 526.798 415.086 529.343 413.935C549.494 404.614 562.72 383.49 561.939 361.416L561.929 361.396ZM428.471 637.155C427.479 624.201 430.405 612.157 439.553 602.186C439.643 602.086 439.723 601.966 439.783 601.846C440.595 600.184 438.922 598.362 437.088 598.662C436.888 598.692 436.687 598.732 436.487 598.782C435.996 598.892 435.615 599.433 435.174 599.763C410.234 618.554 402.679 661.903 432.649 685.98H466.748C443.26 672.184 430.254 660.441 428.471 637.155ZM389.302 588.1C389.693 585.808 389.392 583.395 389.412 581.032C387.088 582.223 384.332 582.974 382.498 584.696C372.969 593.586 367.919 605.029 364.723 617.403C360.995 631.839 373.19 674.938 382.077 686H415.154C412.679 682.907 410.485 679.843 408.06 676.71C387.549 650.31 383.871 620.406 389.312 588.1H389.302ZM352.117 644.453C352.298 643.122 351.977 641.69 351.636 640.359C350.143 634.422 344.422 632.58 338.691 636.134C333.721 639.218 330.564 643.412 328.801 648.448C324.221 661.543 325.845 674.037 333.32 685.99H368.831C368.58 685.509 350.053 659.63 352.117 644.453ZM640.226 573.704V573.364C640.136 566.396 638.603 558.547 635.527 552.37C633.002 547.685 629.976 548.536 630.196 554.432C634.014 596.299 612.18 603.497 614.314 625.402C614.444 631.399 620.677 642.892 623.182 631.108C624.274 619.555 631.769 609.875 635.406 599.102C638.292 590.763 640.056 582.193 640.216 573.704H640.226ZM213.96 660.932C193.869 663.435 174.38 670.442 153.719 668.801C153.438 668.781 153.148 668.861 152.857 669.011C151.354 669.782 151.214 671.934 152.557 672.945C152.797 673.126 153.058 673.246 153.318 673.276C159.761 673.886 166.244 674.607 172.697 674.477C191.946 674.097 211.224 673.586 230.022 678.582C236.275 680.244 242.407 682.586 248.128 685.99H293.79C270.874 667.699 237.888 657.948 213.98 660.932H213.96ZM510.586 657.438C498.341 657.848 486.818 661.022 476.547 667.9C475.385 668.671 474.854 670.372 474.032 671.644C475.395 671.894 476.868 672.615 478.12 672.335C491.708 669.251 504.914 670.773 517.51 676.249C523.341 678.782 528.562 682.696 534.063 685.99H580.726C555.185 667.389 533.472 656.677 510.596 657.438H510.586ZM592.27 637.886C585.907 630.368 578.121 623.99 570.586 617.533C565.957 613.569 560.065 613.028 554.504 615.341C552.289 616.262 549.885 618.734 549.304 620.957C548.863 622.649 550.686 625.592 552.33 627.034C555.636 629.937 559.654 631.999 563.131 634.732C579.915 647.937 589.755 665.467 594.735 685.97H613.853C613.663 684.188 613.623 682.376 613.272 680.634C609.995 664.566 602.751 650.24 592.27 637.876V637.886ZM31.7439 324.404C20.4813 319.178 10.4812 311.96 0.431022 303.32C0.431022 316.265 0.36097 329.079 0.521292 340.813C7.22476 345.828 12.5954 348.811 17.9362 350.183C23.2268 351.545 28.9081 351.304 34.3992 351.955C46.5836 353.387 57.5556 357.171 64.9304 367.913C65.4214 368.624 67.4756 368.914 67.9565 368.774C73.2672 367.232 65.2312 354.598 62.125 350.003C54.4696 338.71 44.1989 330.171 31.7539 324.404H31.7439ZM71.3936 620.446C71.594 620.276 71.7342 620.036 71.8344 619.756C72.5359 617.863 70.8224 615.961 68.8284 616.222C68.0569 616.322 67.3554 616.512 66.8043 616.912C45.5817 632.58 39.1788 662.714 51.9544 685.98H72.7362C70.4716 682.856 68.0868 679.803 65.9525 676.589C53.6478 658.049 55.131 634.863 71.4037 620.436L71.3936 620.446ZM39.7901 632.42C30.4313 621.147 12.4651 620.236 0.541107 623.71C0.360745 630.568 0.441052 639.047 0.441052 646.446C10.6816 647.086 18.4572 651.742 26.7539 654.655C29.0986 655.476 31.4031 656.977 33.8781 656.837C42.2249 656.367 45.1208 649.98 44.3293 643.132C43.8984 639.408 42.1849 635.303 39.7901 632.42ZM0.410963 666.108V685.99H35.7018C27.9362 674.217 15.7518 666.458 0.410963 666.108ZM160.192 613.118C167.857 609.174 173.749 594.657 162.647 591.424C154.731 589.972 147.396 595.208 139.831 596.79C130.783 599.233 121.624 599.183 112.837 596.259C109.079 595.418 102.717 591.314 99.45 593.756L99.3396 593.907C98.3677 595.568 100.111 598.191 101.324 599.733C115.051 616.202 141.394 624.331 160.192 613.128V613.118ZM659.655 685.9C668.793 685.9 677.852 685.99 686.99 685.99V666.108C681.128 665.937 676.309 668.04 671.489 670.493C665.296 673.636 659.735 676.459 659.645 685.9H659.655ZM96.7045 612.177C94.1193 608.793 91.4036 605.42 88.2573 602.566C72.8764 588.591 54.2992 581.723 34.0085 579.05C23.9382 577.718 13.3468 575.136 0.541107 578.019C0.250523 586.148 0.471142 600.194 0.471142 608.783C35.5917 597.901 67.576 600.794 92.4359 616.162C92.8367 616.412 93.3376 616.482 93.8888 616.492C95.7625 616.492 97.3055 614.84 97.0249 612.988C96.9748 612.668 96.8748 612.387 96.7045 612.167V612.177ZM94.1794 630.868C94.3397 625.112 90.0811 621.838 84.3195 622.399C80.2714 622.789 77.4356 624.971 75.191 628.195C66.6539 640.459 66.0027 654.044 69.2492 667.93C70.7021 674.147 73.7382 679.983 76.0529 686H93.5079C91.7343 675.578 89.56 657.979 92.0851 645.174C93.017 640.449 94.0391 635.664 94.1794 630.878V630.868ZM623.452 143.521C616.038 142.089 608.292 140.848 600.847 141.449C583.552 142.83 570.967 152.761 560.987 166.307C560.897 166.427 560.827 166.557 560.777 166.697C560.035 168.559 562.119 170.431 563.983 169.7C564.213 169.61 564.424 169.51 564.624 169.38C570.867 165.306 577.49 162.082 584.985 161.752C594.644 161.331 604.334 161.601 614.004 161.421C622.29 161.261 630.687 161.681 638.833 160.45C658.543 157.457 672.942 144.923 686.99 132.058V128.734C684.655 129.906 682.15 130.827 680.016 132.298C662.771 144.252 643.934 147.486 623.442 143.521H623.452ZM672.681 220.357C673.252 234.103 675.868 243.053 681.509 255.487C682.431 257.519 685.587 263.125 687 264.937V144.522C685.968 146.114 684.685 147.596 683.944 149.318C674.044 172.023 671.679 195.94 672.691 220.367L672.681 220.357ZM627.951 100.933C623.863 98.6707 620.366 95.337 616.278 93.0845C609.103 89.11 600.396 89.9409 594.855 94.7864C588.582 100.273 588.582 106.91 590.606 114.489C592.661 122.167 598.162 125.751 604.594 128.584C615.597 133.42 627.28 134.461 639.134 134.101C655.958 133.59 671.96 129.746 687 122.087V109.633C685.908 109.753 684.816 109.833 683.733 110.003C664.144 113.077 645.427 110.634 627.961 100.933H627.951ZM659.655 0.0100096C659.655 3.88436 659.324 7.19808 659.725 10.4317C660.637 17.9702 662.611 25.1883 669.505 30.1138C670.537 30.8446 672.19 31.2551 673.423 31.0749C673.964 30.9948 674.625 28.9925 674.495 27.9514C673.252 18.4707 678.413 11.7932 687 10.732V0H659.655V0.0100096ZM676.238 286.091C676.168 285.861 676.058 285.641 675.918 285.43C674.665 283.568 671.699 283.789 670.828 285.861C670.737 286.071 670.687 286.281 670.667 286.492C670.086 293.499 669.505 300.537 669.565 307.555C669.675 319.769 674.926 329.94 683.212 338.65C684.174 339.661 685.717 340.112 686.99 340.823V303.451C681.649 298.755 678.252 292.899 676.238 286.101V286.091ZM644.314 0.0400459H626.318C626.458 1.13127 629.585 28.7022 663.873 60.1075C670.858 65.033 678.282 72.2311 686.99 73.5125V46.4221C672.852 45.8715 649.896 19.7121 644.314 0.0400459ZM657.791 651.161C657.741 651.261 657.701 651.371 657.671 651.481C656.9 653.894 659.765 655.956 661.89 654.575C661.93 654.545 661.97 654.525 662.01 654.495C669.625 649.059 677.862 646.135 687 646.406V623.71C672.972 627.414 664.174 637.806 657.791 651.171V651.161ZM646.859 72.4213C644.024 68.1965 641.93 63.4813 639.244 59.1464C635.938 53.8204 631.188 50.6969 624.695 51.6079C618.462 52.4889 614.334 56.4233 612.851 62.34C612.059 65.5235 612.24 69.2377 613.021 72.4713C614.845 80.0899 620.056 85.546 626.188 90.001C644.565 103.326 665.156 106.6 687 102.775V88.2591C682.631 87.6984 658.603 88.2791 646.859 72.4113V72.4213ZM670.808 576.637C671.158 576.567 671.499 576.487 671.84 576.387C678.403 574.445 680.407 573.614 686.94 571.622V563.492C678.884 565.445 674.595 568.448 669.104 573.424C669.094 573.434 669.084 573.444 669.074 573.454C667.701 574.725 668.974 577.008 670.808 576.637ZM626.318 685.99H644.344C646.108 645.955 658.463 621.558 682.741 610.325C684.114 609.694 685.577 609.274 687 608.753V578.029C648.152 588.601 615.927 644.193 626.318 685.99ZM677.852 547.715C680.968 544.521 683.984 541.428 686.99 538.344V509.572C681.389 516.61 674.505 536.352 673.984 546.013C673.874 548.095 676.389 549.216 677.852 547.725V547.715ZM669.856 346.409C668.593 343.315 666.569 340.332 664.274 337.659C658.663 331.142 649.394 331.772 644.865 338.92C641.318 344.517 640.346 350.523 641.789 356.79C645.757 373.98 665.888 386.874 687 389.397V362.937C678.403 359.524 672.942 353.937 669.856 346.409ZM643.212 425.167C630.246 416.137 620.887 403.903 612.991 390.408C612.911 390.278 612.831 390.158 612.731 390.038C611.007 387.925 607.41 389.037 607.22 391.75C607.2 391.97 607.22 392.19 607.26 392.41C613.322 422.835 629.996 444.979 658.984 457.013C667.882 460.707 677.341 462.069 687 459.886V434.137C670.757 439.183 656.469 434.408 643.212 425.167ZM664.315 403.533C651.489 402.252 640.266 397.126 630.807 388.937C630.587 388.746 630.326 388.586 630.046 388.446C627.981 387.455 625.486 389.107 625.807 391.369C625.837 391.61 625.907 391.84 626.008 392.06C627.28 394.813 628.954 397.516 630.988 399.869C639.244 409.42 650.306 415.186 662.871 418.7C670.747 420.902 678.784 421.964 687 420.312V402.892C679.435 403.173 671.77 404.274 664.325 403.533H664.315ZM110.913 656.277C108.278 653.373 106.764 650.43 104.51 647.657C104.33 647.427 104.099 647.236 103.839 647.066C102.486 646.165 100.552 646.746 100.051 648.288C99.9909 648.488 99.951 648.688 99.961 648.878C100.091 653.003 101.955 671.964 108.879 685.99H168.198C162.186 684.368 120.462 667.82 110.903 656.277H110.913ZM623.292 326.276C646.368 305.593 662.912 278.242 665.707 247.037C665.908 238.257 666.088 228.006 660.988 220.397C658.322 216.813 653.853 214.621 649.124 214.511C640.226 214.281 634.434 222.97 631.589 230.339C625.416 252.283 631.469 275.609 625.687 297.654C622.48 310.559 616.478 322.522 608.593 333.214C607.049 335.286 603.733 339.651 604.504 341.123L604.564 341.243C605.116 342.304 607.781 340.682 608.813 339.751C613.693 335.386 618.322 330.621 623.292 326.276ZM400.284 622.369L400.374 622.389C400.795 622.449 401.156 621.978 401.416 621.087C402.328 617.123 401.978 612.788 402.458 608.623C403.3 599.032 406.456 589.562 411.677 581.493C421.046 567.257 432.429 554.322 444.072 542.028C447.88 537.924 451.647 533.739 454.363 528.804C464.453 510.012 452.068 497.599 434.022 509.822C403.39 533.739 390.034 576.898 397.178 614.84C397.669 617.113 398.721 621.578 400.284 622.379V622.369ZM657.942 160.5C640.978 170.521 620.617 164.415 602.42 169.51C594.494 171.362 584.394 176.498 583.582 185.638C582.65 194.839 593.101 201.026 601.358 200.986H601.679C623.543 198.873 644.054 183.696 659.485 168.659C662.621 165.386 666.449 162.312 668.783 158.498C671.759 151.51 660.206 159.469 657.942 160.49V160.5ZM609.174 45.6613C606.518 35.5199 595.015 28.6522 584.945 28.2918H584.604C569.314 28.0915 556.939 37.0916 550.646 50.2764C549.814 52.2386 547.79 56.0229 549.724 57.5446C551.217 58.4156 555.275 55.1018 557.259 53.6702C565.957 47.243 573.482 44.6401 583.793 47.8938C589.705 49.5556 595.055 53.3499 600.987 54.6313C606.268 55.7926 610.406 50.9071 609.184 45.6613H609.174ZM580.466 132.509C583.412 130.557 589.043 125.391 582.57 124.129C551.448 124.129 524.273 148.597 525.105 180.453V180.783C525.265 189.633 527.57 198.463 532.129 207.643C536.357 215.902 541.087 213.339 540.576 204.79C539.955 175.867 557.52 149.157 580.466 132.509ZM562.55 185.809C560.927 184.497 558.231 182.205 556.237 183.476C555.336 184.187 555.516 185.939 556.107 187.851C558.542 194.558 559.845 201.756 557.71 208.674C555.305 217.334 548.312 223.721 544.804 231.81C541.939 237.737 542.58 245.596 546.869 250.701C551.197 255.307 557.089 251.182 561.117 247.628C570.185 239.589 575.065 228.146 575.476 216.083V215.742C575.346 204.189 571.057 193.417 562.55 185.809ZM565.767 276.14C565.847 269.382 567.64 262.695 571.037 256.358C571.809 254.836 573.051 251.843 571.438 251.002C565.326 249.79 557.33 260.222 555.135 265.468C546.789 285.661 548.933 308.296 557.6 327.988C563.712 342.414 572.129 356.38 572.44 372.528V372.848C572.53 379.876 569.414 387.775 564.113 393.722C561.147 397.356 556.648 400.53 556.308 405.545C557.089 414.776 570.506 407.958 575.045 405.575C579.384 403.082 583.051 399.779 585.757 395.474C593.542 381.668 592.691 363.868 588.943 348.912C583.011 328.469 573.011 309.447 567.38 288.964C566.278 284.79 565.686 280.415 565.756 276.14H565.767ZM622.15 558.307C621.939 556.765 621.639 555.203 621.268 553.641C615.577 529.244 594.885 516.31 571.548 515.719H571.207C561.788 515.689 552.159 518.942 544.915 524.969C541.608 527.462 535.927 534.67 543.402 535.591C565.095 535.731 585.236 549.467 596.488 567.597C600.196 572.773 602.761 582.834 610.376 582.894C620.757 581.373 623.442 567.137 622.16 558.297L622.15 558.307ZM31.1025 397.506C31.2027 396.815 30.6918 396.135 29.9904 396.125C29.8702 396.125 29.7599 396.145 29.6597 396.195C21.1826 400.81 9.88009 401.961 0.521292 402.892C0.320889 407.567 0.431022 415.607 0.431022 420.312C14.379 419.221 29.6696 407.307 31.0925 397.506H31.1025ZM31.8741 368.063C22.385 371.187 13.6476 368.484 4.9802 364.87C3.64752 364.319 2.24462 363.528 0.631376 362.997V389.407C11.5233 389.687 20.2207 385.693 27.9262 379.216C30.4312 377.113 32.5855 374.52 34.6296 371.937C36.2228 369.925 35.6316 366.261 31.8741 368.053V368.063ZM462.179 470.558C463.231 468.326 465.996 462.779 463.03 461.989C459.974 462.139 456.808 466.804 454.262 469.337C446.146 477.946 436.757 484.544 425.926 489.029C412.328 494.865 397.098 496.337 382.568 493.724C372.869 492.253 363.32 488.488 353.59 488.468C335.865 487.818 321.386 500.242 312.558 514.618C310.073 518.342 308.58 523.798 314.261 521.956C317.017 520.935 319.883 518.912 322.618 517.571C328.51 514.487 335.394 514.287 342.208 514.387C354.362 514.618 366.987 517.491 378.841 518.442H379.162C416.817 519.293 447.77 502.304 462.179 470.558ZM46.5838 432.105C56.0528 421.353 63.2372 409.359 65.8424 395.083C65.9527 394.473 65.8023 393.812 65.5418 393.141C64.8203 391.259 62.5458 390.448 60.8223 391.499C60.3314 391.8 59.8904 392.14 59.5297 392.551C56.664 395.904 54.4094 399.789 51.4735 403.062C37.6758 418.38 21.1325 429.242 0.611316 433.867V459.886C21.9943 454.63 35.5616 444.619 46.5838 432.105ZM21.8539 528.053C21.5233 533.299 32.746 527.082 35.5717 526.821C42.1449 525.049 49.0086 525.33 55.7722 525.58C69.8404 526.481 83.5379 523.958 95.3216 516.079C115.542 502.424 92.0951 498.169 79.099 497.398H78.7482C59.6098 496.567 28.868 509.542 21.8539 528.053ZM121.304 580.982H121.614C155.993 581.543 183.799 544.751 183.379 499.07C183.318 495.626 182.837 488.438 180.182 487.437C176.104 488.068 176.344 503.135 174.851 507.47C168.709 537.653 146.925 552.911 118.408 558.387C101.474 563.442 103.117 581.032 121.294 580.982H121.304ZM91.9449 38.8036C94.9209 44.5901 100.292 48.0339 107.175 47.9638C112.075 47.9138 114.22 44.6902 112.456 40.1751C111.765 38.3931 110.773 36.6812 109.65 35.1194C102.446 25.0481 93.598 3.2937 93.4978 0.0500554C89.109 0.0500554 81.0529 0.0500554 76.0429 0.0500554C77.5459 5.40607 78.1871 7.71866 79.5098 10.9523C83.3675 20.3528 87.2755 29.7734 91.9349 38.8036H91.9449ZM0.420992 538.214C13.7377 526.751 23.5172 513.627 31.0925 498.97C34.0785 493.184 36.1426 486.636 37.1447 480.209C37.796 476.044 36.5736 471.089 34.75 467.154C31.4734 460.056 22.7859 459.406 18.1566 465.733C15.3409 469.587 13.1567 474.012 11.2829 478.437C8.53738 484.914 6.22252 497.939 0.290604 510.053C0.521067 518.272 0.420992 529.254 0.420992 538.214ZM124.951 13.8656C141.304 22.5853 158.899 25.1682 177.156 23.6065C190.252 22.4952 202.727 19.1014 213.86 11.8333C213.88 11.8233 213.9 11.8032 213.92 11.7932C216.345 10.1414 214.842 6.1469 211.926 6.51731C211.906 6.51731 211.896 6.51731 211.876 6.51731C197.146 8.67974 169.26 0.500563 168.118 0.0400459C149.32 -0.0100103 128.618 0.0400459 108.618 0.0400459C113.478 6.46726 118.869 10.6219 124.951 13.8556V13.8656ZM34.9503 144.983C34.7098 151.03 35.2208 157.106 35.6617 163.153C35.6617 163.283 35.7019 163.413 35.752 163.534C36.3832 165.195 38.7779 165.115 39.6597 163.574C39.78 163.373 39.8902 163.163 39.9804 162.943C40.241 162.382 39.9804 161.581 39.9804 160.891C39.9804 149.898 40.9023 138.916 44.7901 128.644C49.3293 116.651 53.0869 104.037 60.141 93.3247C78.3276 65.7037 80.0208 13.9256 72.7261 0.060065H51.9444C55.0607 6.39718 57.7162 11.613 58.628 17.1893C62.1651 38.9737 59.7502 60.1175 51.7842 80.7306C43.758 101.494 35.8521 122.367 34.9503 144.983ZM23.0764 23.6365C26.7337 31.1349 28.1366 39.0538 26.3831 47.3732C25.381 52.1285 26.9944 55.6825 30.8121 57.3944C34.3192 58.9662 38.4775 57.935 40.8021 53.9005C42.9665 50.1463 48.2571 35.5199 39.76 7.85882C38.9484 5.20584 35.7018 0.0500554 35.7018 0.0500554C26.2829 0.0500554 9.86996 0.0500554 0.410963 0.0500554C0.410963 1.73194 0.561167 7.00787 0.561167 10.732C11.0522 10.3016 18.6277 14.5063 23.0666 23.6265L23.0764 23.6365ZM0.461112 257.849C0.461112 259.611 0.521292 262.855 0.521292 264.937C7.31494 275.149 18.4771 295.802 33.858 307.215C38.9082 310.969 44.5094 313.021 50.6518 313.782C58.8482 314.803 67.4455 310.909 70.7221 304.752C73.3273 299.877 72.0548 294.05 67.9766 291.547C37.8461 273.086 16.8439 247.368 6.63342 213.4C0.701507 193.687 -0.631189 173.645 6.36286 153.863C8.87791 146.755 12.7659 140.137 15.792 133.189C16.0324 132.649 15.9822 131.978 15.8519 131.277C15.6114 130.006 14.3188 129.215 13.0964 129.646C12.5352 129.846 12.0343 130.096 11.6836 130.486C10.2507 132.128 3.32693 138.566 0.521292 144.512C-0.590942 161.321 0.421002 191.155 0.431022 208.034C0.431022 224.642 0.411011 241.241 0.461112 257.849ZM145.372 34.8391C142.246 33.2573 139.16 31.4953 136.044 29.9236C133.979 28.9125 131.524 28.0515 130.152 28.7322C127.797 29.9636 129.931 33.5076 131.254 35.2396C145.603 53.6202 163.98 64.4223 184.3 65.3534H184.641C242.537 66.9151 251.455 -1.92216 235.603 14.7065C214.892 45.3909 177.657 51.8282 145.372 34.8391ZM491.678 12.3338C491.888 12.2938 492.078 12.2137 492.269 12.1036C494.203 11.0023 493.932 7.99898 491.848 7.19808C491.628 7.11799 491.407 7.06793 491.187 7.05792C483.772 6.99785 470.555 1.3415 466.737 0.100111C456.747 -0.0400465 442.629 0.050055 432.639 0.0300325C447.98 12.3338 478.361 15.0068 491.678 12.3238V12.3338ZM591.228 24.3774C592.891 24.988 594.715 23.7967 594.945 22.0447C595.005 21.5542 594.995 21.1037 594.835 20.7132C591.478 12.8444 581.628 0.0700784 580.596 0.0700784C563.863 0.0100109 550.776 0.0300325 534.053 0.0300325C563.773 16.7388 571.678 9.24037 590.626 24.057C590.807 24.1972 591.007 24.3073 591.238 24.3874L591.228 24.3774ZM496.788 37.5221C503.732 41.9271 511.888 44.1496 520.175 44.2597H520.536C533.341 44.3998 546.458 38.4532 553.953 27.9414C556.197 25.0581 558.191 19.7922 556.688 17.9702C551.488 11.623 533.251 35.3196 502.67 29.7634C492.94 27.8713 486.267 29.9937 496.788 37.5221ZM430.405 39.7847C434.322 40.946 438.551 41.1762 442.669 41.4565C443.701 41.5266 445.274 40.3753 445.775 39.3642C446.106 38.7034 445.154 37.1217 444.393 36.2907C443.491 35.2896 442.168 34.6689 441.056 33.848C429.403 25.1983 428.03 20.2627 415.144 0.0500554C404.092 0.0500554 393.31 0.0500554 382.067 0.0500554C382.659 1.19134 410.194 33.7779 430.405 39.7947V39.7847ZM294.011 71.28C294.031 71.4502 294.071 71.6104 294.111 71.7806C294.842 74.5737 298.42 75.1744 299.993 72.7617C300.183 72.4613 300.333 72.161 300.433 71.8306C302.528 64.7026 304.852 57.5346 305.794 50.2064C307.959 33.4676 311.416 22.6855 296.185 2.90326C295.413 1.68189 294.953 1.23138 293.77 0.0700784C278.84 0.0700784 263.299 0.0500554 248.108 0.0500554C254.221 4.22474 259.772 7.63857 264.982 12.0635C283.199 27.5309 290.744 48.3843 294.001 71.29L294.011 71.28ZM446.777 57.5246C446.878 57.5246 446.978 57.4945 447.078 57.4745C448.902 57.034 449.433 54.321 447.779 53.43C447.148 53.0896 445.264 52.539 444.583 52.4389C411.958 47.3832 379.031 15.5775 368.821 0.0500554C357.588 0.0500554 345.494 0.0500554 333.31 0.0500554C334.201 1.89212 335.083 3.11349 335.744 4.23475C360.865 47.0028 408.03 60.7682 446.777 57.5146V57.5246ZM297.327 101.504C295.424 103.436 292.949 104.858 291.997 107.23C291.215 109.443 293.289 110.554 295.584 109.953C303.57 107.931 310.223 102.655 317.428 98.8409C327.668 93.4048 336.506 86.1267 344.121 77.5671C351.216 70.1087 355.895 60.6981 355.705 50.0962V49.7759C356.526 26.6099 323.791 17.8901 321.596 44.7602C323.089 66.3645 312.778 86.8775 297.317 101.504H297.327Z" fill="url(#paint0_linear_25513_3616)"/>
<defs>
<linearGradient id="paint0_linear_25513_3616" x1="0" y1="391.331" x2="687" y2="391.331" gradientUnits="userSpaceOnUse">
<stop offset="0.673077" stop-color="#9B2247"/>
<stop offset="1" stop-color="#9B2247" stop-opacity="0"/>
</linearGradient>
</defs>
</svg>
