<svg width="761" height="760" viewBox="0 0 761 760" fill="none" xmlns="http://www.w3.org/2000/svg">
<path d="M428.15 510.626C437.163 506.988 441.669 497.45 448.584 491.072C461.97 478.661 481.683 478.218 497.677 470.765C529.832 457.255 558.402 427.01 562.109 391.452V391.108C561.865 383.976 558.901 385.285 557.747 391.063C554.883 406.857 543.973 419.989 531.874 429.927C516.368 442.87 496.378 447.651 477.265 452.442C452.78 458.775 422.467 464.409 410.069 489.32C403.409 503.739 412.467 516.593 428.161 510.615L428.15 510.626ZM204.629 216.012C162.862 208.226 125.157 249.851 123.615 291.354V291.709C125.135 305.65 132.205 285.331 134.614 282.215C137.711 277.024 141.452 272.31 145.703 268.04C179.167 235.698 188.58 257.781 208.636 247.832C222.999 239.425 221.012 220.16 204.629 216V216.012ZM386.671 215.601C352.374 223.054 320.519 198.798 286.899 198.332H286.51C273.035 198.299 259.45 202.669 247.928 209.712C241.868 213.461 235.752 217.742 230.957 222.921C224.653 229.798 227.15 232.238 236.507 229.299C274.378 214.026 298.853 224.585 336.213 233.513C346.203 235.931 356.714 237.828 366.959 236.486C376.349 235.366 386.316 231.007 392.443 224.075C399.047 216.477 393.842 214.636 386.671 215.601ZM216.861 570.862C217.494 574.678 218.315 577.584 219.336 578.105L219.436 578.149C220.258 578.504 221.201 577.362 222.067 575.088C222.877 572.981 223.554 569.997 223.931 567.524C230.624 527.607 213.897 484.462 180.71 460.672C172.03 453.984 157.568 447.451 148.622 456.756C142.051 463.899 143.227 476.465 148.699 484.163C159.943 499.191 177.935 507.454 191.021 520.741C205.429 534.184 214.686 551.242 216.872 570.862H216.861ZM78.6952 239.081C78.9061 243.473 80.0825 254.221 84.1782 254.487C84.933 254.354 85.6323 253.478 86.2095 252.069C87.608 248.431 87.9187 244.183 88.8399 240.224C91.9145 225.916 97.209 211.808 110.85 204.798C113.658 203.09 116.489 201.371 118.564 199.253C123.837 194.395 122.66 186.065 116.944 182.272C110.539 177.913 101.893 180.797 96.299 185.333C81.6033 197.977 78.6952 219.938 78.6841 238.693L78.7063 239.081H78.6952ZM92.8359 353.597C96.2545 368.526 107.72 379.994 115.334 392.916C122.682 404.051 129.064 415.908 135.247 427.797C136.79 430.504 138.665 435.96 141.018 437.269L141.141 437.303C144.448 436.692 141.829 426.078 141.34 423.084C137.056 402.654 132.694 382.246 128.221 361.849C126.656 354.884 124.736 347.775 120.673 341.83C107.742 322.531 88.7401 331.415 92.8247 353.586L92.8359 353.597ZM231.002 154.356C229.226 154.123 227.217 154.245 225.286 154.456C166.625 160.467 98.4633 202.236 95.3888 265.234V265.622C95.2112 278.887 97.8306 293.184 103.391 303.565C104.568 305.65 106.422 308.867 109.041 308.578C110.939 308.434 111.905 304.641 111.849 301.957C109.951 272.321 119.841 244.494 138.832 221.646C162.13 192.487 195.228 174.009 230.158 162.596C235.242 160.644 237.65 155.332 231.013 154.367L231.002 154.356ZM142.306 382.579V382.945C142.672 404.739 150.73 426.167 165.97 441.905C170.976 447.551 178.357 450.856 174.084 438.999C172.197 433.897 170.277 428.385 169.033 422.951C148.011 340.255 218.87 267.486 293.958 245.614C300.517 243.063 303.537 237.961 294.935 236.863C289.13 236.397 282.803 237.362 276.909 238.249C207.282 249.762 143.361 309.732 142.295 382.568L142.306 382.579ZM244.454 337.061C244.721 338.07 247.052 338.891 250.792 339.367C261.081 340.355 274.778 340.377 285.811 340.288C321.973 340.865 356.414 321.245 375.483 290.921C381.743 280.95 392.532 261.153 380.833 252.147C364.805 245.525 351.63 279.542 343.317 289.845C325.447 317.207 300.229 327.688 268.562 330.084C263.59 330.661 258.384 331.393 253.9 332.458C247.895 333.855 244.099 335.574 244.432 336.983L244.454 337.061ZM493.781 133.693C443.523 158.027 394.341 219.982 393.853 277.446V277.812C393.409 322.043 419.093 368.537 462.436 383.2C492.793 393.814 528.245 383.632 548.19 358.245C556.193 348.884 562.775 333.467 544.383 345.845C535.004 351.901 524.837 355.039 513.993 355.172C490.618 355.383 469.096 344.159 453.534 327.189C434.477 306.859 424.42 275.615 431.802 245.813C439.26 215.457 453.956 187.108 472.969 162.264C478.797 154.766 485.434 147.956 492.56 141.667C495.49 139.216 502.705 131.275 493.792 133.693H493.781ZM485.49 185.123C486.333 182.849 486.655 180.819 486.089 179.677C482.26 175.063 472.748 187.907 470.028 190.99C453.024 212.019 441.758 237.295 441.269 265.023V265.389C441.347 303.676 470.339 333.556 509.698 334.998C517.079 335.452 523.106 332.402 514.87 326.102C470.172 299.229 461.704 243.529 479.962 197.988C481.605 193.652 483.836 189.393 485.467 185.134L485.49 185.123ZM318.809 295.336C331.774 285.964 342.951 273.453 348.778 258.391C349.999 255.463 351.209 249.573 350.01 248.797L349.932 248.719C347.213 247.422 342.751 253.444 339.998 255.762C319.764 276.758 289.518 279.142 262.613 285.254C224.242 294.116 183.885 320.435 176.215 361.472C174.839 371.51 181.476 381.902 191.765 376.922C198.27 373.65 202.72 367.639 207.349 361.894C217.582 348.263 228.893 334.809 244.388 327.045C256.308 320.679 269.772 317.507 282.437 313.259C295.312 309.044 307.821 303.332 318.809 295.324V295.336ZM404.875 440.852L405.241 440.996C445.554 453.906 523.161 439.576 538.534 399.626C539.433 395.688 537.657 391.252 534.15 389.2C527.756 385.984 519.831 390.464 514.16 393.714C487.732 413.423 462.469 435.816 427.528 436.149C421.846 436.349 416.274 435.606 410.691 434.641C407.905 434.197 404.83 433.554 402.644 434.319C398.448 435.861 401.611 439.942 404.863 440.863L404.875 440.852ZM440.914 418.769C454.7 418.825 467.708 415.819 479.474 408.477C481.45 407.245 484.258 404.683 484.036 403.12C483.514 399.559 479.851 400.624 477.176 400.602C472.126 400.569 467.031 400.923 462.026 400.402C444.555 398.605 429.105 392.76 417.494 378.597C407.472 366.374 399.236 353.42 395.396 337.837C392.787 327.267 383.73 319.792 374.751 319.647C364.961 319.492 355.948 326.524 352.163 336.839C349.41 344.336 351.22 351.168 354.061 358.145C368.657 393.925 403.964 418.625 440.926 418.78L440.914 418.769ZM146.102 602.749C168.678 591.858 186.016 566.37 184.129 541.182C182.986 528.106 175.349 516.638 164.405 509.417C157.135 504.404 144.504 499.258 137.089 505.68C129.808 512.445 136.224 520.719 143.56 524.268C153.261 529.06 161.43 537.5 162.696 548.569C164.827 569.753 147.811 586.933 132.228 598.989C129.309 601.607 122.605 605.079 122.072 608.672L122.105 608.772C125.812 612.055 141.64 604.901 146.091 602.738L146.102 602.749ZM277.63 184.49C270.149 191.123 280.106 191.855 284.945 191.101C313.682 186.964 340.642 201.294 368.779 203.623H369.123C376.882 203.534 384.707 202.292 392.41 200.007C401.822 197.123 410.713 191.944 417.716 184.978C428.683 173.688 418.893 173.998 409.037 177.204C364.783 190.014 339.366 155.986 291.261 176.948C286.466 179.1 281.571 181.274 277.642 184.49H277.63ZM479.696 74.5992C472.87 73.2572 465.544 74.577 458.596 74.6657C424.731 76.1076 402.233 78.6696 379.002 105.654C369.112 115.071 358.246 123.345 345.237 127.925C337.19 130.587 329.121 133.682 323.049 139.804C320.064 142.854 316.645 146.658 317.344 148.977L317.411 149.087C319.087 150.363 321.884 148.677 323.849 148.189C338.933 143.065 355.193 142.388 370.977 140.703C399.014 137.231 414.753 125.23 434.921 106.608C447.674 97.5024 461.437 89.2062 476.044 83.4943C481.172 82.0192 488.287 77.3498 479.696 74.5992ZM311.073 111.932C310.23 111.4 308.665 112.575 306.855 114.871C305.102 117.089 303.314 119.984 301.683 122.446C288.497 142.721 269.65 157.151 247.906 166.534C231.923 174.597 210.734 173.932 196.849 185.655C185.128 198.066 199.402 210.388 213.065 210.233C260.127 209.734 296.688 163.351 310.529 121.47C311.317 118.797 312.671 113.607 311.173 111.976L311.073 111.91V111.932ZM287.997 36.9669C277.508 103.115 198.569 137.996 139.831 113.241C136.534 111.799 127.555 108.372 129.453 114.738C131.839 119.64 137.012 123.456 141.196 127.094C153.694 136.81 170.776 143.154 186.837 143.409H187.181C239.071 144.562 295.878 114.572 302.127 61.4007C302.704 53.6036 301.583 45.8065 298.342 38.2091C295.423 31.0996 290.073 28.0274 287.997 36.9558V36.9669ZM214.286 624.355C253.101 592.79 288.586 526.975 256.564 480.525C248.45 467.803 236.829 456.512 233.488 441.406C232.689 435.55 231.057 424.836 226.917 434.929C218.138 469.134 237.24 501.92 243.699 534.96C250.748 565.483 232.889 594.276 213.254 616.17C210.29 619.963 203.009 626.03 203.198 629.723L203.242 629.823C205.728 631.487 211.733 626.307 214.286 624.355ZM644.068 94.7962C633.867 81.7863 613.999 79.7787 599.792 86.0563C589.48 90.4595 581.5 97.3139 575.184 106.176C572.865 109.836 568.813 113.54 569.002 117.877C571 123.212 580.434 112.908 583.453 111.466C596.429 102.46 610.503 99.1217 625.853 103.802C629.216 104.745 632.813 106.02 636.165 106.109H636.498C643.368 106.342 648.352 101.296 644.068 94.8073V94.7962ZM227.461 88.8735C197.881 92.8996 170.932 83.6274 146.946 66.4139C143.016 63.6411 138.743 60.591 134.192 58.9828C122.582 54.1914 109.03 63.4082 110.884 75.9412C111.849 83.095 118.42 89.3282 124.736 93.432C139.764 103.303 158.078 107.118 175.726 107.174H176.093C196.116 106.386 218.282 103.536 235.341 92.1676C236.44 91.0917 236.74 90.1268 236.141 89.4946C234.642 88.0528 230.014 88.6184 227.472 88.8846L227.461 88.8735ZM378.835 526.62C403.054 541.97 434.055 540.628 460.838 534.228C463.657 533.463 468.563 532.199 469.939 529.703L469.995 529.526C469.895 525.621 456.343 527.174 452.846 526.808C429.504 525.921 409.103 513.854 388.27 504.57C363.34 493.989 358.778 513.942 378.835 526.631V526.62ZM364.339 472.694C364.428 478.972 363.94 486.847 368.379 491.538C372.175 495.642 378.136 495.542 382.343 491.272C389.957 483.486 392.576 472.362 392.599 461.814C391.955 421.342 368.779 387.27 334.793 366.164C329.21 362.581 323.06 360.075 316.645 358.489C305.801 356.015 308.265 362.404 314.791 366.752C348.489 391.374 364.384 431.746 364.328 472.317V472.683L364.339 472.694ZM228.993 634.592C251.48 628.814 269.75 612.499 283.58 594.531C314.969 553.882 323.493 487.057 293.048 443.735C281.948 427.964 266.198 416.207 246.63 412.835C242.412 412.314 238.427 412.07 237.784 414.588C237.717 417.893 243.045 420.699 245.697 422.828C274.289 441.395 286.765 474.491 286.488 508.774V509.129C284.457 554.015 263.49 595.363 227.494 622.98C224.975 624.998 221.789 627.261 219.802 629.535C214.918 635.768 223.931 635.934 228.993 634.592ZM632.657 461.692C624.577 463.167 616.774 464.72 608.816 466.284C565.495 472.373 535.293 491.272 524.016 535.171C521.263 545.131 520.464 555.401 519.354 565.616C519.154 567.369 519.188 569.742 520.542 570.807C522.773 572.404 524.97 570.252 526.502 567.968C541.52 545.53 559.934 527.385 583.62 515.861C591.634 511.647 600.99 509.328 609.415 505.668C624.255 498.792 637.419 484.884 639.472 468.147L639.494 467.803C639.772 462.513 637.863 460.616 632.668 461.692H632.657ZM562.009 466.184C583.109 442.216 595.63 410.24 589.036 377.987C587.838 372.319 585.884 366.896 583.764 361.517C582.821 358.888 580.301 354.629 578.658 354.806C576.394 354.44 575.972 360.651 576.217 363.336C579.89 420.599 540.155 471.241 490.329 495.431C480.317 500.544 469.651 503.861 459.029 507.332C456.287 508.275 453.712 509.506 452.602 510.737C449.339 514.231 458.141 514.963 461.415 514.686H461.792C500.807 513.343 536.17 496.618 561.998 466.184H562.009ZM542.852 128.58C548.29 120.639 554.772 113.052 561.476 106.131C562.575 105.067 564.218 103.092 564.14 102.216V102.061C563.63 100.12 559.9 100.952 556.493 102.161C547.724 105.677 539.833 111.477 533.051 117.966C505.979 144.651 489.286 180.686 489.441 218.807C489.197 237.606 497.122 255.008 501.739 272.887C505.147 284.133 504.137 296.201 507.988 307.292C518.733 335.596 545.038 312.993 546.614 292.818C550.299 258.125 515.136 244.139 518.932 195.826C520.952 171.813 529.732 148.843 542.852 128.58ZM83.7455 537.622C75.432 547.427 85.4881 547.682 92.9581 545.231C99.2958 543.234 105.323 539.874 110.573 535.836C129.231 521.717 135.946 497.594 135.502 474.868V474.491C134.947 460.683 132.095 446.608 126.745 433.698C121.328 421.065 112.671 410.129 102.503 400.347C89.2951 387.958 83.2791 390.52 92.7247 407.445C109.818 439.044 117.876 479.704 102.415 513.166C98.2081 522.56 90.6382 530.069 83.7344 537.611L83.7455 537.622ZM418.904 623.645C423.055 618.277 428.805 606.809 416.984 608.362C388.203 616.214 363.74 635.025 340.109 652.449C322.55 665.836 302.693 676.395 280.405 679.212C276.199 680.055 268.418 679.888 265.92 682.384L265.865 682.484C265.898 686.366 279.495 687.918 283.302 688.451C336.358 694.828 389.413 668.298 418.904 623.645ZM302.904 723.277H303.292C331.418 722.013 357.469 711.587 374.662 686.255C380.333 678.147 380.877 671.382 370.067 679.423C334.926 704.877 277.819 712.619 244.71 680.898C241.28 678.18 237.539 677.504 237.828 682.617C238.982 690.481 244.41 697.934 249.793 703.69C263.29 717.72 283.147 723.089 302.893 723.277H302.904ZM432.035 593.111C429.249 591.059 422.489 588.93 416.185 587.433C397.038 582.752 376.615 579.735 357.313 585.137C321.207 595.984 297.61 629.146 263.279 643.609C250.703 649 237.406 651.872 223.643 652.016C217.527 652.161 211.189 651.351 205.062 651.14C200.822 651.018 197.914 651.417 197.337 652.56C195.728 654.002 202.709 658.538 206.783 660.29C232.345 671.603 262.402 674.565 288.841 664.827C337.834 647.17 361.232 595.695 418.471 598.391H418.86C425.009 598.291 438.117 597.825 432.024 593.111H432.035ZM229.326 677.182C223.21 673.422 223.421 690.957 223.31 694.385V694.795C223.687 704.078 223.177 717.587 232.5 722.512C234.642 723.388 237.04 723.266 238.905 721.935C245.886 715.491 239.615 705.221 237.517 697.279C235.342 691.423 233.188 680.587 229.326 677.182ZM119.175 584.105C117.244 578.682 104.513 585.492 99.9063 585.525C71.858 589.784 40.9903 586.09 15.95 601.707C11.4325 604.635 5.19457 607.951 2.83039 612.687L2.75289 612.898C1.75394 618.687 13.3416 612.809 16.505 611.689C20.1234 610.28 23.8306 609.038 27.6155 608.118C37.8714 605.567 48.5379 605.456 58.927 607.153C68.4281 608.572 78.218 612.443 87.6525 611.478C96.3989 610.802 104.102 605.766 109.94 599.433C113.392 595.474 119.807 589.218 119.175 584.105ZM158.9 711.764C166.447 711.931 174.55 710.933 180.743 706.175C186.16 702.304 188.169 694.041 181.443 690.858C179.178 689.704 175.804 689.682 173.229 690.037C159.41 691.856 144.926 696.237 132.283 689.859C129.83 688.872 121.983 683.393 121.739 688.628C121.95 690.924 123.592 693.02 125.002 694.795C133.571 704.677 145.514 711.154 158.567 711.764H158.889H158.9ZM51.113 520.02C49.3925 536.069 64.599 541.726 76.2756 531.677C98.3302 511.425 97.7307 474.314 94.4785 446.763L94.423 446.375C93.5239 439.41 91.8257 426.477 89.1174 422.152C88.8066 421.631 88.4295 421.132 87.93 421.043C87.0975 420.965 86.5203 422.84 86.1873 426.056C85.7544 430.016 85.8211 435.151 85.4215 439.388C83.1461 463.322 66.9521 482.233 56.6185 503.228C53.999 508.463 51.6235 514.22 51.113 520.02ZM657.42 690.725C667.509 697.734 674.724 687.142 673.159 676.838C672.615 671.759 670.861 666.912 668.508 662.176C632.824 593.621 536.725 585.358 483.037 637.609C476.133 644.253 469.506 651.517 464.412 659.647C462.081 663.507 460.971 666.424 461.459 667.222L461.493 667.278C462.036 668.087 464.345 666.535 467.653 663.462C470.738 660.634 474.39 656.73 478.075 653.491C513.272 622.891 561.543 620.917 602.5 641.602C614.199 647.28 625.021 654.623 634.2 663.884C642.758 671.626 648.241 683.704 657.42 690.713V690.725ZM716.291 650.652L716.38 650.763C717.068 651.528 718.844 650.497 720.809 648.622C727.913 641.535 733.163 632.884 735.793 623.113C746.549 584.238 738.302 547.748 712.662 517.004C704.937 507.742 696.512 499.224 688.221 490.584C686.179 488.344 682.349 485.693 679.652 487.634C673.259 493.734 683.826 506.844 686.922 513.21C691.407 520.974 696.623 528.317 701.074 536.069C717.945 565.882 729.222 601.973 719.51 636.267C718.711 640.437 715.148 646.937 716.303 650.641L716.291 650.652ZM690.585 41.248C690.585 41.248 690.619 41.2591 690.63 41.2702C693.282 42.2684 695.869 39.6509 695.081 36.9336C695.014 36.7118 694.947 36.4788 694.869 36.257C694.536 35.2699 693.859 34.3715 693.227 33.5064C686.09 23.6907 679.608 13.1208 679.896 0.0665443H658.83C658.641 14.6071 675.557 35.3586 690.574 41.2591L690.585 41.248ZM671.316 517.691C664.49 517.359 659.962 523.814 662.57 530.08C665.156 536.768 671.35 541.693 675.956 547.094C686.778 558.973 695.38 572.26 700.408 587.344C701.429 590.749 706.324 601.929 707.479 593.599C706.158 571.705 696.978 550.843 686.833 531.478C683.637 525.466 678.975 518.268 671.65 517.713L671.316 517.691ZM494.414 709.402C485.146 719.916 487.61 738.173 503.449 739.304C516.801 738.905 525.992 727.237 536.947 721.125C555.827 709.247 577.293 706.718 599.026 710.622C601.712 710.944 607.861 712.497 609.593 710.711L609.67 710.556C609.848 707.328 604.565 704.544 602.089 702.903C570.656 685.035 521.008 680.765 494.414 709.402ZM602.711 653.846C584.464 643.931 562.242 642.744 542.397 647.092C522.018 651.85 502.25 662.608 489.574 679.567C483.736 688.007 489.53 687.785 496.101 684.136C516.047 673.112 540.099 667.888 562.376 673.833C571.821 676.195 581.311 680.51 591.057 680.986H591.423C610.447 681.707 622.091 664.682 602.7 653.846H602.711ZM97.975 620.795C87.5083 626.107 75.4762 626.706 64.1659 624.011C58.5718 623.19 51.5904 619.22 46.2626 621.671C42.7996 624.788 47.3948 630.045 51.5238 633.605C59.471 640.082 69.4383 643.654 79.6165 643.842H80.0048C92.4362 644.097 106.266 639.106 111.372 626.817C112.482 623.834 113.536 619.253 110.706 617.09C107.265 615.016 101.549 619.175 97.975 620.784V620.795ZM162.807 736.819H163.173C180.488 736.409 195.384 726.272 206.838 713.206C209.236 710.334 212.244 706.729 212.61 703.014C211.922 696.226 199.512 707.927 196.505 709.136C191.41 712.219 185.86 714.515 180.122 716.09C163.206 720.759 150.353 718.841 135.025 711.265C127.855 708.792 127.122 714.704 129.963 719.539C136.113 730.298 150.187 736.941 162.796 736.808L162.807 736.819ZM591.145 146.991C602.655 136.909 617.462 130.953 632.002 126.595C634.422 125.829 641.359 124.299 639.461 120.794C636.853 118.01 628.639 118.476 624.222 118.309H623.866C572.087 118.132 538.767 163.384 540.576 211.187C541.087 251.681 592.899 287.694 574.396 327.256C572.132 331.382 570.123 339.345 577.726 336.65C582.621 334.288 585.94 329.452 589.258 325.282C607.806 302.035 599.27 272.366 585.507 249.085C575.029 231.883 564.029 212.773 568.391 192.066C572.11 175.595 579.291 159.214 591.145 147.002V146.991ZM415.907 142.821C407.838 147.457 398.858 150.829 389.413 152.592C387.004 153.169 383.752 153.657 382.143 155.443C380.411 159.236 391.167 158.504 394.219 158.559H394.574C427.14 157.927 460.849 149.165 485.168 127.06C513.016 98.0015 543.229 83.1505 583.231 77.6271C593.165 75.0872 589.991 71.4271 582.321 71.4049C527.634 71.8153 472.814 92.0012 433.067 129.567C427.839 134.569 422.134 139.283 415.907 142.81V142.821ZM555.316 61.2676L555.66 61.2232C558.457 61.0347 562.364 59.0826 561.166 57.2526C558.457 53.8254 551.221 52.9825 547.158 50.7975C532.562 44.4423 524.682 29.4249 513.061 19.2764C507.311 13.6532 496.389 12.3112 494.025 21.7276C492.571 28.3934 496.356 35.281 500.23 40.5604C512.55 56.931 535.715 61.4561 555.316 61.2676ZM597.605 539.785C583.376 549.955 566.871 556.566 551.554 565.084C538.345 572.737 526.347 582.264 515.525 593.167C512.739 596.328 507.544 600.587 506.767 604.457V604.579C506.9 605.178 507.577 605.256 508.676 604.823C511.218 603.781 513.738 601.518 515.991 599.733C524.504 592.701 533.905 587.399 543.95 583.684C555.927 579.025 569.18 577.816 581.522 574.467C603.876 568.533 623.589 558.218 640.216 540.794C656.698 523.57 669.74 503.162 667.809 477.952C667.276 470.41 665.7 463.056 664.191 455.703C661.882 443.868 657.953 446.53 656.454 456.279C649.129 490.862 626.097 520.176 597.616 539.785H597.605ZM660.439 365.343C668.642 363.291 673.869 332.979 674.502 324.894C676.123 285.342 682.305 256.516 708.178 225.162C713.494 219.694 715.37 212.651 705.725 218.052C671.439 237.351 646.72 271.279 646.476 310.741V311.118C646.565 328.52 649.517 345.235 655.056 359.576C656.01 361.938 657.442 365.609 660.439 365.343ZM20.6895 619.497C15.4728 620.606 6.24901 622.835 0.599392 624.277V633.283C12.7311 630.466 20.3344 630.744 29.9021 630.488C31.5448 630.444 34.0976 629.047 34.5193 627.727C35.0299 626.13 34.264 623.479 33.0875 622.104C29.7798 618.255 25.0627 618.565 20.6784 619.497H20.6895ZM316.079 581.011C313.926 585.07 314.614 587.765 318.854 584.715C342.573 558.995 350.443 523.037 351.042 488.566V488.2C351.364 429.516 315.246 351.302 247.107 357.136C217.915 359.598 189.545 383.843 185.65 413.601C184.218 424.925 186.271 436.493 192.076 446.242C193.952 449.58 198.536 454.516 201.388 451.355C203.753 448.749 204.097 444.878 204.951 441.561C207.26 430.459 210.945 419.435 217.927 410.096C241.402 378.453 279.628 398.372 298.298 424.204C321.329 453.862 332.495 490.806 332.084 528.25C332.284 547.249 327.012 565.328 316.079 581.022V581.011ZM29.236 113.296C29.3359 113.196 29.4135 113.052 29.4579 112.886C29.8353 111.499 28.5702 110.235 27.1383 110.335C26.8053 110.357 26.4834 110.424 26.2059 110.546C20.412 113.23 14.9621 116.768 8.91286 118.842C4.75057 120.262 3.3523 120.816 0.577442 121.459V135.257C11.9877 130.698 21.0113 121.526 29.236 113.296ZM101.049 87.1433C99.118 81.631 93.6017 87.0324 91.9923 90.0381C61.9905 132.429 111.938 192.432 156.98 168.852C161.042 166.944 176.626 154.766 166.137 152.67C131.795 149.354 102.692 129.434 101.405 94.042V93.7093C101.338 91.5465 101.627 89.295 101.049 87.1655V87.1433ZM0.48856 51.4297C0.48856 61.0347 0.410712 72.4475 0.610502 81.4424C8.6798 81.8306 13.6524 80.1559 18.1143 77.8822C25.4178 74.1777 26.217 66.303 20.7006 60.1252C15.5061 54.3134 8.74654 51.9954 0.48856 51.4186V51.4297ZM0.621612 97.7908V113.873C11.71 111 20.7562 105.366 29.0807 98.5561C32.9655 95.3729 36.3618 91.5687 39.7583 87.8309C39.9247 87.6535 40.0136 87.4095 40.0691 87.1433C40.391 85.5129 38.8703 84.1154 37.2275 84.2818C37.0389 84.3039 36.8613 84.3261 36.6837 84.3594C36.1509 84.4481 35.7626 85.1247 35.241 85.4574C13.3862 99.5876 2.16443 97.5246 0.621612 97.7908ZM73.2677 109.913L73.201 109.847C69.6159 109.747 65.509 126.972 63.9773 130.743C58.8716 147.646 52.4673 164.704 52.6893 182.572C52.8558 190.646 54.8646 199.885 61.4133 205.087C70.5037 212.241 77.8849 203.856 78.0847 194.24C78.5286 187.518 77.1413 180.753 75.9314 174.153C72.5572 157.151 70.9257 140.115 72.968 122.946C73.2676 119.43 74.6551 112.354 73.2677 109.913ZM14.4406 237.961C23.5533 273.32 46.862 303.022 81.7475 317.84C86.9199 319.792 93.6682 323.296 98.8406 322.187L99.0628 322.11C108.153 317.396 85.9654 291.919 81.8142 286.496C69.627 271.467 57.6062 255.951 46.7287 239.824C30.9231 214.658 18.4142 185.411 26.095 155.365C26.761 152.87 28.2149 145.239 25.6731 145.549C23.7196 145.771 20.8338 150.54 19.857 153.136C8.41351 180.154 6.46012 208.836 14.4295 237.95L14.4406 237.961ZM622.457 400.38C622.113 392.982 619.127 386.183 616.186 379.506C611.335 368.693 607.55 357.302 603 346.333C601.723 342.906 597.306 335.841 596.506 343.926C600.125 389.566 613.144 413.312 582.399 453.906C580.734 456.546 579.813 458.642 580.445 459.485L580.534 459.596C581.233 460.428 583.542 459.862 586.361 458.586C608.682 448.261 623.334 424.858 622.468 400.402L622.457 400.38ZM474.623 705.886C473.524 691.534 476.766 678.192 486.899 667.145C486.999 667.034 487.088 666.901 487.155 666.768C488.054 664.927 486.2 662.908 484.169 663.241C483.947 663.274 483.725 663.318 483.503 663.374C482.959 663.496 482.537 664.095 482.049 664.461C454.422 685.279 446.053 733.304 479.252 759.978H517.023C491.006 744.694 476.599 731.684 474.623 705.886ZM431.236 651.539C431.669 649 431.335 646.327 431.358 643.709C428.783 645.029 425.73 645.861 423.699 647.768C413.144 657.617 407.55 670.295 404.009 684.003C399.88 699.997 413.388 747.744 423.233 760H459.872C457.131 756.573 454.7 753.179 452.014 749.707C429.293 720.46 425.22 687.331 431.247 651.539H431.236ZM390.046 713.972C390.245 712.497 389.89 710.91 389.513 709.435C387.859 702.858 381.521 700.818 375.172 704.755C369.667 708.171 366.171 712.818 364.217 718.397C359.145 732.904 360.943 746.746 369.223 759.989H408.559C408.282 759.457 387.759 730.786 390.046 713.972ZM709.188 635.59V635.213C709.088 627.494 707.39 618.798 703.982 611.955C701.185 606.764 697.833 607.707 698.077 614.24C702.306 660.623 678.12 668.598 680.485 692.865C680.629 699.509 687.533 712.241 690.308 699.187C691.518 686.388 699.82 675.663 703.849 663.729C707.046 654.49 708.999 644.996 709.177 635.59H709.188ZM237.006 732.228C214.752 735 193.164 742.764 170.277 740.945C169.966 740.923 169.644 741.012 169.322 741.178C167.657 742.032 167.502 744.417 168.989 745.537C169.256 745.737 169.544 745.87 169.833 745.903C176.97 746.58 184.151 747.378 191.299 747.234C212.621 746.813 233.976 746.247 254.799 751.781C261.725 753.623 268.518 756.218 274.856 759.989H325.436C300.051 739.725 263.512 728.922 237.029 732.228H237.006ZM565.583 728.357C552.02 728.812 539.255 732.328 527.878 739.947C526.591 740.801 526.003 742.687 525.092 744.095C526.602 744.373 528.234 745.171 529.621 744.861C544.672 741.444 559.301 743.13 573.253 749.197C579.713 752.003 585.496 756.34 591.589 759.989H643.279C614.987 739.381 590.934 727.514 565.594 728.357H565.583ZM656.066 706.696C649.018 698.366 640.394 691.301 632.047 684.147C626.919 679.755 620.392 679.156 614.232 681.719C611.779 682.739 609.115 685.478 608.472 687.941C607.983 689.815 610.003 693.076 611.824 694.673C615.486 697.889 619.937 700.174 623.789 703.202C642.38 717.831 653.28 737.252 658.796 759.967H679.974C679.763 757.992 679.719 755.985 679.33 754.055C675.701 736.254 667.676 720.382 656.066 706.685V706.696ZM35.1632 359.398C22.6874 353.609 11.6102 345.612 0.47745 336.04C0.47745 350.381 0.399851 364.578 0.577442 377.577C8.00297 383.133 13.9521 386.438 19.8681 387.958C25.7286 389.466 32.022 389.2 38.1044 389.921C51.6014 391.507 63.7552 395.7 71.9244 407.6C72.4683 408.388 74.7437 408.709 75.2765 408.554C81.1592 406.846 72.2576 392.849 68.8168 387.758C60.3368 375.247 48.9598 365.787 35.1743 359.398H35.1632ZM79.0838 687.375C79.3058 687.186 79.4611 686.92 79.5721 686.61C80.349 684.513 78.451 682.406 76.2422 682.695C75.3876 682.805 74.6106 683.016 74.0001 683.46C50.4915 700.818 43.3989 734.202 57.5507 759.978H80.5709C78.0624 756.517 75.4208 753.135 73.0566 749.574C59.4265 729.033 61.0694 703.346 79.0949 687.364L79.0838 687.375ZM44.0761 700.64C33.7092 688.151 13.8077 687.142 0.599392 690.991C0.399602 698.588 0.48856 707.982 0.48856 716.179C11.8322 716.889 20.4454 722.046 29.6357 725.274C32.233 726.183 34.7857 727.847 37.5273 727.691C46.7731 727.17 49.981 720.094 49.1042 712.508C48.6269 708.382 46.7289 703.834 44.0761 700.64ZM0.455229 737.962V759.989H39.5474C30.9454 746.946 17.4485 738.35 0.455229 737.962ZM177.447 679.256C185.938 674.886 192.464 658.804 180.166 655.222C171.398 653.613 163.273 659.414 154.893 661.167C144.87 663.873 134.725 663.817 124.991 660.579C120.829 659.647 113.781 655.1 110.162 657.806L110.04 657.972C108.963 659.813 110.895 662.719 112.238 664.427C127.444 682.672 156.624 691.678 177.447 679.267V679.256ZM730.71 759.889C740.832 759.889 750.866 759.989 760.989 759.989V737.962C754.496 737.773 749.157 740.102 743.818 742.82C736.959 746.302 730.798 749.43 730.698 759.889H730.71ZM107.121 678.214C104.257 674.465 101.249 670.727 97.7639 667.566C80.7263 652.083 60.1481 644.474 37.6717 641.513C26.5167 640.038 14.7845 637.176 0.599392 640.371C0.277508 649.377 0.521891 664.938 0.521891 674.454C39.4254 662.398 74.8549 665.603 102.393 682.628C102.837 682.905 103.391 682.983 104.002 682.994C106.078 682.994 107.787 681.164 107.476 679.112C107.42 678.757 107.31 678.447 107.121 678.203V678.214ZM104.324 698.921C104.501 692.544 99.7841 688.917 93.4019 689.538C88.9178 689.97 85.7765 692.388 83.2902 695.96C73.8335 709.546 73.1121 724.597 76.7083 739.98C78.3177 746.868 81.6809 753.334 84.2449 760H103.58C101.615 748.454 99.2069 728.956 102.004 714.77C103.036 709.535 104.168 704.234 104.324 698.932V698.921ZM690.607 159.003C682.394 157.417 673.814 156.042 665.567 156.707C646.409 158.238 632.468 169.24 621.413 184.246C621.314 184.38 621.236 184.524 621.18 184.679C620.359 186.742 622.668 188.816 624.732 188.006C624.987 187.907 625.221 187.796 625.443 187.651C632.358 183.137 639.694 179.566 647.997 179.2C658.696 178.734 669.43 179.034 680.141 178.834C689.32 178.657 698.621 179.122 707.645 177.758C729.478 174.442 745.427 160.556 760.989 146.304V142.621C758.403 143.919 755.628 144.939 753.264 146.57C734.162 159.813 713.295 163.395 690.596 159.003H690.607ZM745.139 244.128C745.772 259.356 748.669 269.271 754.918 283.047C755.939 285.298 759.435 291.509 761 293.517V160.112C759.857 161.876 758.436 163.517 757.615 165.425C746.648 190.579 744.029 217.076 745.15 244.139L745.139 244.128ZM695.591 111.821C691.063 109.315 687.189 105.621 682.66 103.126C674.713 98.7225 665.068 99.643 658.93 105.011C651.981 111.089 651.981 118.443 654.223 126.839C656.499 135.345 662.592 139.316 669.718 142.455C681.905 147.812 694.847 148.965 707.978 148.566C726.614 148.001 744.34 143.742 761 135.257V121.459C759.79 121.592 758.58 121.681 757.382 121.87C735.682 125.275 714.949 122.568 695.602 111.821H695.591ZM730.71 0.0110893C730.71 4.30337 730.343 7.97455 730.787 11.557C731.797 19.9086 733.984 27.9054 741.62 33.3622C742.764 34.1719 744.595 34.6266 745.96 34.427C746.56 34.3382 747.292 32.12 747.148 30.9665C745.772 20.4632 751.488 13.0654 761 11.8897V0H730.71V0.0110893ZM749.079 316.952C749.002 316.697 748.879 316.453 748.724 316.22C747.337 314.157 744.051 314.401 743.086 316.697C742.986 316.93 742.93 317.163 742.908 317.396C742.264 325.16 741.62 332.957 741.687 340.732C741.809 354.263 747.625 365.532 756.804 375.181C757.87 376.301 759.579 376.8 760.989 377.588V336.184C755.073 330.983 751.31 324.494 749.079 316.963V316.952ZM713.717 0.0443657H693.782C693.937 1.2533 697.4 31.7984 735.382 66.5914C743.119 72.0482 751.343 80.0228 760.989 81.4424V51.4297C745.328 50.8197 719.899 21.8385 713.717 0.0443657ZM728.645 721.403C728.59 721.514 728.545 721.636 728.512 721.758C727.657 724.431 730.832 726.715 733.185 725.185C733.229 725.152 733.274 725.129 733.318 725.096C741.754 719.074 750.877 715.835 761 716.134V690.991C745.461 695.094 735.716 706.607 728.645 721.414V721.403ZM716.536 80.2335C713.394 75.553 711.075 70.3291 708.1 65.5266C704.437 59.6261 699.176 56.1657 691.984 57.175C685.08 58.151 680.507 62.5098 678.864 69.0647C677.987 72.5917 678.187 76.7065 679.053 80.2889C681.073 88.7293 686.845 94.774 693.638 99.7096C713.994 114.472 736.803 118.099 761 113.862V97.7797C756.161 97.1586 729.544 97.8019 716.536 80.2224V80.2335ZM743.063 638.84C743.452 638.762 743.829 638.674 744.207 638.563C751.477 636.411 753.697 635.491 760.933 633.283V624.277C752.009 626.44 747.259 629.768 741.177 635.28C741.165 635.291 741.154 635.302 741.143 635.313C739.623 636.722 741.032 639.25 743.063 638.84ZM693.782 759.989H713.75C715.703 715.635 729.389 688.606 756.283 676.162C757.803 675.463 759.424 674.997 761 674.421V640.382C717.967 652.094 682.272 713.683 693.782 759.989ZM750.866 606.798C754.318 603.26 757.659 599.832 760.989 596.416V564.54C754.784 572.337 747.159 594.209 746.582 604.912C746.46 607.219 749.246 608.461 750.866 606.809V606.798ZM742.009 383.777C740.61 380.349 738.368 377.044 735.827 374.083C729.611 366.863 719.344 367.561 714.327 375.48C710.398 381.68 709.321 388.335 710.919 395.278C715.315 414.322 737.613 428.607 761 431.402V402.088C751.477 398.306 745.428 392.117 742.009 383.777ZM712.496 471.031C698.133 461.026 687.766 447.473 679.02 432.522C678.931 432.378 678.842 432.245 678.731 432.112C676.822 429.772 672.837 431.003 672.626 434.008C672.604 434.252 672.626 434.496 672.671 434.74C679.386 468.446 697.855 492.98 729.966 506.312C739.822 510.404 750.3 511.913 761 509.495V480.968C743.008 486.558 727.18 481.268 712.496 471.031ZM735.871 447.063C721.664 445.643 709.232 439.964 698.754 430.892C698.51 430.681 698.221 430.504 697.911 430.348C695.624 429.25 692.86 431.08 693.216 433.587C693.249 433.853 693.327 434.108 693.438 434.352C694.847 437.402 696.701 440.397 698.954 443.003C708.1 453.584 720.354 459.973 734.272 463.866C742.997 466.306 751.898 467.482 761 465.652V446.353C752.62 446.663 744.129 447.883 735.882 447.063H735.871ZM122.86 727.07C119.941 723.854 118.265 720.593 115.767 717.521C115.567 717.266 115.312 717.055 115.024 716.866C113.525 715.868 111.383 716.511 110.828 718.22C110.761 718.441 110.717 718.663 110.728 718.874C110.873 723.443 112.937 744.45 120.607 759.989H186.315C179.656 758.192 133.438 739.858 122.849 727.07H122.86ZM690.43 361.472C715.992 338.558 734.317 308.257 737.414 273.686C737.636 263.959 737.836 252.601 732.186 244.172C729.233 240.201 724.283 237.772 719.044 237.65C709.188 237.395 702.772 247.022 699.62 255.186C692.783 279.497 699.487 305.34 693.083 329.763C689.531 344.059 682.882 357.313 674.147 369.158C672.438 371.454 668.764 376.29 669.618 377.92L669.685 378.053C670.295 379.229 673.248 377.432 674.391 376.401C679.796 371.565 684.924 366.286 690.43 361.472ZM443.401 689.505L443.5 689.527C443.967 689.593 444.366 689.072 444.655 688.085C445.665 683.693 445.276 678.89 445.809 674.276C446.742 663.651 450.238 653.159 456.021 644.219C466.399 628.448 479.008 614.118 491.905 600.498C496.123 595.951 500.296 591.314 503.304 585.846C514.481 565.028 500.763 551.275 480.772 564.818C446.841 591.314 432.046 639.128 439.96 681.164C440.504 683.682 441.669 688.628 443.401 689.516V689.505ZM728.812 177.814C710.02 188.916 687.466 182.15 667.31 187.796C658.53 189.847 647.342 195.537 646.443 205.663C645.41 215.856 656.987 222.711 666.133 222.666H666.488C690.707 220.326 713.428 203.512 730.521 186.853C733.995 183.226 738.235 179.821 740.821 175.595C744.118 167.854 731.32 176.671 728.812 177.802V177.814ZM674.791 50.5868C671.849 39.3515 659.107 31.7429 647.952 31.3436H647.575C630.637 31.1218 616.929 41.0928 609.959 55.6998C609.037 57.8737 606.795 62.0662 608.938 63.752C610.591 64.7169 615.087 61.0458 617.284 59.4597C626.919 52.3392 635.254 49.4555 646.676 53.0601C653.224 54.9013 659.151 59.1048 665.722 60.5245C671.572 61.8111 676.156 56.3986 674.802 50.5868H674.791ZM642.991 146.803C646.254 144.64 652.492 138.917 645.322 137.519C610.847 137.519 580.745 164.626 581.666 199.918V200.284C581.844 210.089 584.397 219.871 589.447 230.042C594.131 239.192 599.37 236.353 598.804 226.881C598.116 194.839 617.573 165.247 642.991 146.803ZM623.145 205.852C621.347 204.399 618.361 201.859 616.152 203.268C615.153 204.055 615.353 205.996 616.008 208.115C618.705 215.546 620.148 223.52 617.784 231.184C615.12 240.778 607.373 247.854 603.488 256.816C600.313 263.382 601.024 272.088 605.774 277.745C610.569 282.847 617.096 278.277 621.558 274.34C631.603 265.434 637.008 252.757 637.463 239.392V239.015C637.319 226.215 632.568 214.281 623.145 205.852ZM626.708 305.928C626.797 298.441 628.783 291.032 632.546 284.011C633.401 282.326 634.777 279.009 632.99 278.078C626.219 276.736 617.362 288.293 614.932 294.104C605.686 316.475 608.061 341.552 617.662 363.369C624.433 379.351 633.756 394.823 634.1 412.713V413.068C634.2 420.854 630.748 429.605 624.877 436.193C621.591 440.219 616.607 443.735 616.23 449.292C617.096 459.518 631.958 451.965 636.986 449.325C641.792 446.564 645.854 442.904 648.851 438.134C657.475 422.84 656.532 403.12 652.381 386.549C645.81 363.901 634.733 342.828 628.495 320.135C627.274 315.51 626.619 310.664 626.697 305.928H626.708ZM689.164 618.532C688.931 616.824 688.599 615.094 688.188 613.364C681.883 586.334 658.963 572.005 633.112 571.35H632.735C622.301 571.317 611.635 574.922 603.61 581.599C599.947 584.36 593.654 592.346 601.934 593.366C625.964 593.522 648.274 608.739 660.739 628.825C664.845 634.559 667.687 645.705 676.123 645.772C687.622 644.086 690.596 628.315 689.176 618.521L689.164 618.532ZM34.4527 440.386C34.5637 439.621 33.9978 438.866 33.2208 438.855C33.0876 438.855 32.9654 438.877 32.8544 438.933C23.4643 444.046 10.9443 445.321 0.577442 446.353C0.355454 451.532 0.47745 460.439 0.47745 465.652C15.9279 464.443 32.8655 451.244 34.4416 440.386H34.4527ZM35.3074 407.767C24.7962 411.227 15.1177 408.233 5.51664 404.229C4.04041 403.619 2.48639 402.742 0.699384 402.155V431.413C12.7645 431.724 22.3988 427.298 30.9343 420.122C33.7091 417.793 36.0954 414.921 38.3597 412.059C40.1245 409.83 39.4697 405.77 35.3074 407.756V407.767ZM511.962 521.318C513.127 518.845 516.191 512.7 512.905 511.824C509.52 511.99 506.012 517.159 503.193 519.965C494.203 529.503 483.802 536.812 471.804 541.781C456.742 548.247 439.871 549.878 423.777 546.983C413.032 545.353 402.455 541.182 391.677 541.16C372.042 540.439 356.004 554.203 346.225 570.13C343.472 574.256 341.818 580.301 348.112 578.26C351.164 577.129 354.339 574.888 357.369 573.402C363.895 569.986 371.521 569.764 379.068 569.875C392.532 570.13 406.517 573.313 419.648 574.367H420.003C461.715 575.31 496.001 556.488 511.962 521.318ZM51.6015 478.717C62.0905 466.805 70.0488 453.518 72.9346 437.702C73.0567 437.025 72.8902 436.293 72.6016 435.55C71.8024 433.465 69.2829 432.567 67.3738 433.731C66.8299 434.064 66.3415 434.441 65.9419 434.896C62.7675 438.611 60.2701 442.915 57.0179 446.541C41.734 463.511 23.4088 475.545 0.677164 480.669V509.495C24.3634 503.672 39.3922 492.581 51.6015 478.717ZM24.2079 585.015C23.8416 590.826 36.2732 583.939 39.4033 583.65C46.6845 581.687 54.2875 581.998 61.7796 582.275C77.3633 583.273 92.5362 580.478 105.589 571.75C127.988 556.621 102.015 551.908 87.6192 551.053H87.2306C66.0306 550.133 31.9775 564.507 24.2079 585.015ZM134.37 643.654H134.714C172.796 644.275 203.597 603.515 203.131 552.906C203.065 549.09 202.532 541.127 199.59 540.018C195.073 540.717 195.339 557.409 193.686 562.211C186.882 595.651 162.751 612.554 131.162 618.621C112.404 624.222 114.224 643.709 134.359 643.654H134.37ZM101.849 42.9894C105.145 49.4001 111.095 53.2154 118.72 53.1378C124.147 53.0823 126.523 49.511 124.569 44.5088C123.803 42.5346 122.704 40.638 121.461 38.9078C113.481 27.7501 103.68 3.64899 103.569 0.055455C98.7074 0.055455 89.7835 0.055455 84.2338 0.055455C85.8987 5.98923 86.609 8.55129 88.0741 12.1337C92.3474 22.5483 96.6764 32.9851 101.838 42.9894H101.849ZM0.46634 596.272C15.2175 583.573 26.0504 569.032 34.4416 552.795C37.7492 546.384 40.0357 539.131 41.1457 532.01C41.8671 527.396 40.5131 521.906 38.493 517.547C34.8635 509.683 25.2402 508.963 20.1123 515.972C16.9934 520.242 14.5738 525.145 12.4982 530.047C9.45698 537.223 6.89278 551.652 0.321906 565.073C0.577193 574.179 0.46634 586.346 0.46634 596.272ZM138.41 15.3613C156.525 25.0217 176.015 27.8832 196.238 26.153C210.745 24.9218 224.564 21.1619 236.896 13.1098C236.918 13.0987 236.94 13.0765 236.962 13.0654C239.648 11.2353 237.983 6.80997 234.753 7.22035C234.731 7.22035 234.72 7.22035 234.698 7.22035C218.382 9.61604 187.492 0.554559 186.226 0.0443657C165.404 -0.0110902 142.473 0.0443657 120.318 0.0443657C125.701 7.16489 131.673 11.7677 138.41 15.3502V15.3613ZM38.715 160.622C38.4486 167.321 39.0146 174.054 39.503 180.753C39.503 180.897 39.5475 181.041 39.603 181.174C40.3022 183.015 42.9549 182.927 43.9317 181.219C44.0648 180.997 44.187 180.764 44.2869 180.52C44.5755 179.899 44.2869 179.011 44.2869 178.246C44.2869 166.068 45.3081 153.901 49.6147 142.521C54.6427 129.234 58.8051 115.259 66.6191 103.392C86.7646 72.7913 88.6402 15.4278 80.5598 0.0665443H57.5396C60.9915 7.08725 63.933 12.8657 64.9431 19.0435C68.8612 43.1779 66.1861 66.6024 57.3621 89.4392C48.4714 112.442 39.7139 135.567 38.715 160.622ZM25.562 26.1862C29.6133 34.4935 31.1673 43.2666 29.2249 52.4834C28.1149 57.7517 29.9021 61.6891 34.131 63.5857C38.0158 65.327 42.6221 64.1846 45.1971 59.7148C47.5946 55.5556 53.4551 39.3515 44.0428 8.70656C43.1437 5.7674 39.5474 0.055455 39.5474 0.055455C29.114 0.055455 10.9331 0.055455 0.455229 0.055455C0.455229 1.91877 0.621612 7.76382 0.621612 11.8897C12.2427 11.4128 20.6341 16.0711 25.5512 26.1751L25.562 26.1862ZM0.510781 285.664C0.510781 287.616 0.577442 291.21 0.577442 293.517C8.10286 304.83 20.4674 327.711 37.505 340.355C43.0992 344.514 49.3038 346.787 56.1077 347.63C65.1871 348.762 74.7104 344.447 78.3399 337.626C81.2258 332.225 79.8162 325.77 75.2987 322.997C41.9227 302.545 18.6583 274.052 7.34794 236.419C0.77707 214.581 -0.699178 192.376 7.04823 170.46C9.83419 162.585 14.1409 155.254 17.493 147.557C17.7594 146.958 17.7037 146.215 17.5594 145.438C17.293 144.03 15.8612 143.154 14.507 143.631C13.8855 143.852 13.3306 144.13 12.9421 144.562C11.3549 146.381 3.68529 153.513 0.577442 160.101C-0.654596 178.723 0.46635 211.775 0.47745 230.474C0.47745 248.875 0.455283 267.264 0.510781 285.664ZM161.031 38.5973C157.568 36.8449 154.149 34.8928 150.697 33.1515C148.411 32.0313 145.691 31.0774 144.171 31.8316C141.562 33.1959 143.927 37.1221 145.392 39.0409C161.286 59.4043 181.643 71.3716 204.152 72.4031H204.53C268.662 74.1333 278.541 -2.12951 260.981 16.2929C238.039 50.2873 196.793 57.419 161.031 38.5973ZM544.639 13.6643C544.872 13.62 545.082 13.5312 545.293 13.4092C547.436 12.1892 547.136 8.86184 544.827 7.97455C544.583 7.88582 544.339 7.83036 544.095 7.81927C535.881 7.75272 521.241 1.48621 517.012 0.11091C505.946 -0.0443664 490.307 0.0554545 479.241 0.0332721C496.234 13.6643 529.887 16.6257 544.639 13.6532V13.6643ZM654.911 27.007C656.754 27.6835 658.774 26.3637 659.03 24.4227C659.096 23.8793 659.085 23.3802 658.907 22.9476C655.189 14.23 644.278 0.0776378 643.135 0.0776378C624.599 0.0110908 610.103 0.0332721 591.578 0.0332721C624.499 18.5444 633.257 10.2371 654.246 26.6521C654.445 26.8073 654.667 26.9294 654.923 27.0181L654.911 27.007ZM550.299 41.5697C557.991 46.4498 567.026 48.912 576.205 49.034H576.605C590.79 49.1893 605.319 42.6012 613.622 30.9554C616.108 27.7612 618.317 21.9272 616.652 19.9086C610.891 12.8768 590.69 39.1296 556.815 32.974C546.037 30.8778 538.645 33.2291 550.299 41.5697ZM476.765 44.0763C481.105 45.3629 485.789 45.618 490.351 45.9285C491.494 46.0062 493.237 44.7307 493.792 43.6105C494.158 42.8784 493.104 41.126 492.26 40.2055C491.261 39.0964 489.796 38.4087 488.564 37.4992C475.656 27.9165 474.135 22.4485 459.861 0.055455C447.618 0.055455 435.675 0.055455 423.222 0.055455C423.877 1.31985 454.378 37.4216 476.765 44.0874V44.0763ZM325.68 78.9691C325.702 79.1576 325.747 79.3351 325.791 79.5237C326.601 82.6181 330.564 83.2836 332.306 80.6106C332.517 80.2779 332.684 79.9451 332.795 79.5791C335.114 71.6822 337.69 63.7409 338.733 55.6222C341.13 37.0778 344.96 25.1326 328.088 3.21644C327.234 1.86331 326.723 1.36421 325.414 0.0776378C308.875 0.0776378 291.66 0.055455 274.833 0.055455C281.604 4.68047 287.753 8.46256 293.525 13.3649C313.704 30.5007 322.062 53.6036 325.669 78.9802L325.68 78.9691ZM494.902 63.7298C495.013 63.7298 495.124 63.6966 495.235 63.6744C497.255 63.1864 497.843 60.1807 496.012 59.1936C495.313 58.8165 493.226 58.2064 492.471 58.0955C456.331 52.4945 419.859 17.2579 408.548 0.055455C396.106 0.055455 382.709 0.055455 369.212 0.055455C370.2 2.09623 371.176 3.44935 371.909 4.69156C399.735 52.073 451.98 67.3234 494.902 63.7187V63.7298ZM329.354 112.453C327.245 114.594 324.503 116.169 323.449 118.797C322.583 121.249 324.881 122.48 327.423 121.814C336.269 119.574 343.639 113.729 351.619 109.503C362.963 103.481 372.753 95.4173 381.188 85.9343C389.047 77.6714 394.23 67.2457 394.019 55.5002V55.1453C394.929 29.4803 358.668 19.8199 356.237 49.5886C357.891 73.5233 346.469 96.2491 329.343 112.453H329.354Z" fill="#FBFBFB"/>
</svg>
