<svg width="24" height="24" viewBox="0 0 24 24" fill="none" xmlns="http://www.w3.org/2000/svg">
<g clip-path="url(#clip0_25493_2613)">
<path d="M19.5 1.5H6C5.60218 1.5 5.22064 1.65804 4.93934 1.93934C4.65804 2.22064 4.5 2.60218 4.5 3V6H3V7.5H4.5V11.25H3V12.75H4.5V16.5H3V18H4.5V21C4.5 21.3978 4.65804 21.7794 4.93934 22.0607C5.22064 22.342 5.60218 22.5 6 22.5H19.5C19.8978 22.5 20.2794 22.342 20.5607 22.0607C20.842 21.7794 21 21.3978 21 21V3C21 2.60218 20.842 2.22064 20.5607 1.93934C20.2794 1.65804 19.8978 1.5 19.5 1.5ZM19.5 21H6V18H7.5V16.5H6V12.75H7.5V11.25H6V7.5H7.5V6H6V3H19.5V21Z" fill="#161A1D"/>
<path d="M16.5 6H10.5V7.5H16.5V6Z" fill="#161A1D"/>
<path d="M16.5 11.25H10.5V12.75H16.5V11.25Z" fill="#161A1D"/>
<path d="M16.5 16.5H10.5V18H16.5V16.5Z" fill="#161A1D"/>
</g>
<defs>
<clipPath id="clip0_25493_2613">
<rect width="24" height="24" fill="white"/>
</clipPath>
</defs>
</svg>
