<svg width="24" height="24" viewBox="0 0 24 24" fill="none" xmlns="http://www.w3.org/2000/svg">
<g clip-path="url(#clip0_53199_16740)">
<path d="M16.5 16.5C16.8977 16.5005 17.2794 16.6583 17.5605 16.9395C17.8417 17.2206 17.9995 17.6023 18 18C18 18.294 17.9138 18.5673 17.7676 18.7988C17.7605 18.8101 17.7545 18.8219 17.7471 18.833C17.7382 18.8463 17.7281 18.8591 17.7188 18.8721C17.6421 18.979 17.5526 19.0758 17.4512 19.1592C17.4184 19.186 17.3845 19.2113 17.3496 19.2354C17.1102 19.4003 16.821 19.4972 16.5088 19.499C16.499 19.4991 16.4893 19.4982 16.4795 19.498C16.3959 19.4969 16.3142 19.4889 16.2344 19.4746C16.2255 19.473 16.2159 19.4725 16.207 19.4707C16.1834 19.466 16.1601 19.4599 16.1367 19.4541C15.7214 19.3507 15.3741 19.0756 15.1768 18.707C15.1574 18.6708 15.1404 18.6334 15.124 18.5957C15.0916 18.5208 15.0649 18.4429 15.0449 18.3623C15.0392 18.3393 15.0339 18.3163 15.0293 18.293C15.0246 18.2691 15.0211 18.2447 15.0176 18.2207C15.0079 18.1549 15.0018 18.0879 15.001 18.0195C15.0008 18.0098 14.9999 18 15 17.9902C15.0032 17.492 15.2495 17.0517 15.626 16.7812C15.6394 16.7716 15.6532 16.7621 15.667 16.7529C15.678 16.7456 15.6891 16.7385 15.7002 16.7314C15.9318 16.5851 16.2058 16.5 16.5 16.5Z" fill="black"/>
<path d="M22.3327 17.6089C21.8692 16.4284 21.0695 15.4098 20.0327 14.6794C18.9959 13.9491 17.7676 13.539 16.5 13.5C15.2324 13.539 14.0041 13.9491 12.9673 14.6794C11.9305 15.4098 11.1308 16.4284 10.6673 17.6089L10.5 18L10.6673 18.3911C11.1308 19.5716 11.9305 20.5902 12.9673 21.3206C14.0041 22.0509 15.2324 22.461 16.5 22.5C17.7676 22.461 18.9959 22.0509 20.0327 21.3206C21.0695 20.5902 21.8692 19.5716 22.3327 18.3911L22.5 18L22.3327 17.6089ZM16.5 21C15.9067 21 15.3266 20.8241 14.8333 20.4944C14.3399 20.1648 13.9554 19.6962 13.7284 19.148C13.5013 18.5999 13.4419 17.9967 13.5576 17.4147C13.6734 16.8328 13.9591 16.2982 14.3787 15.8787C14.7982 15.4591 15.3328 15.1734 15.9147 15.0576C16.4967 14.9419 17.0999 15.0013 17.648 15.2284C18.1962 15.4554 18.6648 15.8399 18.9944 16.3333C19.3241 16.8266 19.5 17.4067 19.5 18C19.4991 18.7954 19.1827 19.5579 18.6203 20.1203C18.0579 20.6827 17.2954 20.9991 16.5 21Z" fill="black"/>
<path d="M9 21.0003H6V3.00026H12V7.50026C12.0011 7.89773 12.1596 8.27859 12.4406 8.55965C12.7217 8.84071 13.1025 8.99911 13.5 9.00026H18V12.0003H19.5V7.50026C19.5027 7.40168 19.484 7.3037 19.4451 7.21306C19.4063 7.12243 19.3482 7.04129 19.275 6.97526L14.025 1.72526C13.959 1.652 13.8778 1.59395 13.7872 1.5551C13.6966 1.51626 13.5986 1.49755 13.5 1.50026H6C5.60253 1.50141 5.22166 1.65981 4.94061 1.94087C4.65955 2.22192 4.50115 2.60279 4.5 3.00026V21.0003C4.50115 21.3977 4.65955 21.7786 4.94061 22.0596C5.22166 22.3407 5.60253 22.4991 6 22.5003H9V21.0003ZM13.5 3.30026L17.7 7.50026H13.5V3.30026Z" fill="black"/>
</g>
<defs>
<clipPath id="clip0_53199_16740">
<rect width="24" height="24" fill="white"/>
</clipPath>
</defs>
</svg>
