<svg width="24" height="24" viewBox="0 0 24 24" fill="none" xmlns="http://www.w3.org/2000/svg">
<g clip-path="url(#clip0_53186_16643)">
<path d="M20.22 22.5L18.7789 17.456C18.7384 17.3138 18.7407 17.1629 18.7857 17.0221C18.8306 16.8812 18.9162 16.7568 19.0316 16.6644L22.4055 13.965L21.39 9.90101L19.3363 12.4686C19.2659 12.5564 19.1767 12.6272 19.0752 12.6759C18.9737 12.7246 18.8626 12.7499 18.75 12.75H15V11.25H18.39L21.1645 7.78136C21.2518 7.67224 21.3679 7.5897 21.4996 7.54304C21.6314 7.49638 21.7735 7.48745 21.9101 7.51727C22.0466 7.54709 22.1721 7.61447 22.2724 7.71181C22.3727 7.80914 22.4438 7.93257 22.4776 8.06816L23.9776 14.0682C24.0126 14.2074 24.0068 14.3537 23.961 14.4898C23.9152 14.6258 23.8312 14.7459 23.7191 14.8356L20.3591 17.5239L21.6633 22.088L20.22 22.5Z" fill="black"/>
<path d="M17.25 4.125C17.25 3.60583 17.404 3.09831 17.6924 2.66663C17.9808 2.23495 18.3908 1.8985 18.8705 1.69982C19.3501 1.50114 19.8779 1.44915 20.3871 1.55044C20.8963 1.65173 21.364 1.90173 21.7312 2.26885C22.0983 2.63596 22.3483 3.10369 22.4496 3.61289C22.5508 4.12209 22.4989 4.64989 22.3002 5.12955C22.1015 5.6092 21.7651 6.01917 21.3334 6.30761C20.9017 6.59605 20.3942 6.75 19.875 6.75C19.1791 6.74917 18.5119 6.47234 18.0198 5.98024C17.5277 5.48813 17.2508 4.82094 17.25 4.125ZM18.75 4.125C18.75 4.34751 18.816 4.56501 18.9396 4.75002C19.0632 4.93502 19.2389 5.07922 19.4445 5.16437C19.65 5.24951 19.8762 5.27179 20.0945 5.22838C20.3127 5.18498 20.5132 5.07783 20.6705 4.9205C20.8278 4.76316 20.935 4.56271 20.9784 4.34448C21.0218 4.12625 20.9995 3.90005 20.9144 3.69448C20.8292 3.48892 20.685 3.31321 20.5 3.1896C20.315 3.06598 20.0975 3 19.875 3C19.5767 3.00034 19.2908 3.11897 19.0799 3.32988C18.869 3.54078 18.7503 3.82674 18.75 4.125Z" fill="black"/>
<path d="M15.0029 14.25C14.8056 14.25 14.6101 14.2111 14.4278 14.1356C14.2454 14.0601 14.0798 13.9494 13.9402 13.8098C13.8006 13.6702 13.6899 13.5046 13.6144 13.3222C13.5389 13.1399 13.5 12.9444 13.5 12.7471V11.2529C13.5 11.0556 13.5389 10.8601 13.6144 10.6778C13.6899 10.4954 13.8006 10.3298 13.9402 10.1902C14.0798 10.0506 14.2454 9.93993 14.4278 9.8644C14.6101 9.78887 14.8056 9.75 15.0029 9.75H16.5V7.5H7.5V9.75H8.99708C9.39568 9.75 9.77795 9.90834 10.0598 10.1902C10.3417 10.472 10.5 10.8543 10.5 11.2529V12.7471C10.5 12.9444 10.4611 13.1399 10.3856 13.3222C10.3101 13.5046 10.1994 13.6702 10.0598 13.8098C9.92024 13.9494 9.75456 14.0601 9.57222 14.1356C9.38988 14.2111 9.19444 14.25 8.99708 14.25H7.5V16.5H16.5V14.25H15.0029Z" fill="black"/>
<path d="M3.78008 22.5L5.2212 17.456C5.26167 17.3138 5.25928 17.1629 5.21433 17.022C5.16939 16.8812 5.08388 16.7568 4.96853 16.6644L1.59458 13.965L2.61045 9.90108L4.6641 12.4686C4.73451 12.5564 4.82371 12.6272 4.92512 12.6759C5.02654 12.7246 5.13758 12.7499 5.25008 12.75H9.00008V11.25H5.61045L2.83598 7.78136C2.74865 7.67224 2.63257 7.5897 2.50083 7.54304C2.36909 7.49638 2.22693 7.48745 2.09039 7.51727C1.95385 7.54709 1.82836 7.61447 1.72807 7.71181C1.62779 7.80914 1.55669 7.93257 1.5228 8.06816L0.0228029 14.0682C-0.0121612 14.2074 -0.00638319 14.3537 0.0394493 14.4898C0.0852819 14.6258 0.169239 14.7459 0.281328 14.8356L3.6417 17.5239L2.33745 22.088L3.78008 22.5Z" fill="black"/>
<path d="M4.125 6.75C3.60583 6.75 3.09831 6.59605 2.66663 6.30761C2.23495 6.01917 1.8985 5.6092 1.69982 5.12955C1.50114 4.64989 1.44915 4.12209 1.55044 3.61289C1.65173 3.10369 1.90173 2.63596 2.26885 2.26885C2.63596 1.90173 3.10369 1.65173 3.61289 1.55044C4.12209 1.44915 4.64989 1.50114 5.12955 1.69982C5.6092 1.8985 6.01917 2.23495 6.30761 2.66663C6.59605 3.09831 6.75 3.60583 6.75 4.125C6.74917 4.82094 6.47234 5.48813 5.98024 5.98024C5.48813 6.47234 4.82094 6.74917 4.125 6.75ZM4.125 3C3.9025 3 3.68499 3.06598 3.49998 3.1896C3.31498 3.31321 3.17079 3.48892 3.08564 3.69448C3.00049 3.90005 2.97821 4.12625 3.02162 4.34448C3.06503 4.56271 3.17217 4.76316 3.32951 4.9205C3.48684 5.07783 3.6873 5.18498 3.90552 5.22838C4.12375 5.27179 4.34995 5.24951 4.55552 5.16437C4.76109 5.07922 4.93679 4.93502 5.0604 4.75002C5.18402 4.56501 5.25 4.34751 5.25 4.125C5.24966 3.82674 5.13103 3.54078 4.92012 3.32988C4.70922 3.11897 4.42327 3.00034 4.125 3Z" fill="black"/>
</g>
<defs>
<clipPath id="clip0_53186_16643">
<rect width="24" height="24" fill="white"/>
</clipPath>
</defs>
</svg>
