<svg width="24" height="24" viewBox="0 0 24 24" fill="none" xmlns="http://www.w3.org/2000/svg">
<g clip-path="url(#clip0_53232_16090)">
<path d="M5.74966 6.75391V4.25391H18.2506V6.75391H19.5006V4.12891C19.495 4.00419 19.4699 3.88089 19.4254 3.76367C19.3662 3.60747 19.274 3.46579 19.1559 3.34766C19.0378 3.22955 18.8961 3.13739 18.7399 3.07812C18.5839 3.01897 18.4172 2.99396 18.2506 3.00391H5.74966C5.58295 2.99391 5.41557 3.01887 5.25943 3.07812C5.10337 3.1374 4.96145 3.22962 4.84341 3.34766C4.72542 3.46573 4.63408 3.6076 4.57486 3.76367C4.51559 3.91987 4.48964 4.08714 4.49966 4.25391V6.75391H5.74966ZM12.6247 20.5039V9.12891L17.3756 13.8789L18.2506 13.0039L11.9997 6.75391L5.74966 13.0039L6.62466 13.8789L11.3747 9.12891V20.5039H12.6247Z" fill="black"/>
</g>
<defs>
<clipPath id="clip0_53232_16090">
<rect width="24" height="24" fill="white"/>
</clipPath>
</defs>
</svg>
