<svg width="24" height="24" viewBox="0 0 24 24" fill="none" xmlns="http://www.w3.org/2000/svg">
<g clip-path="url(#clip0_53226_16140)">
<path d="M22.5 18.75L21.4395 17.6895L19.5 19.629V13.5H18V19.629L16.0605 17.6895L15 18.75L18.75 22.5L22.5 18.75Z" fill="black"/>
<path d="M13.5 21.0003H6V3.00026H12V7.50026C12.0011 7.89773 12.1596 8.27859 12.4406 8.55965C12.7217 8.84071 13.1025 8.99911 13.5 9.00026H18V11.2503H19.5V7.50026C19.5027 7.40168 19.484 7.3037 19.4451 7.21306C19.4063 7.12243 19.3482 7.04129 19.275 6.97526L14.025 1.72526C13.959 1.652 13.8778 1.59395 13.7872 1.5551C13.6966 1.51626 13.5986 1.49755 13.5 1.50026H6C5.60253 1.50141 5.22166 1.65981 4.94061 1.94087C4.65955 2.22192 4.50115 2.60279 4.5 3.00026V21.0003C4.50115 21.3977 4.65955 21.7786 4.94061 22.0596C5.22166 22.3407 5.60253 22.4991 6 22.5003H13.5V21.0003ZM13.5 3.30026L17.7 7.50026H13.5V3.30026Z" fill="black"/>
</g>
<defs>
<clipPath id="clip0_53226_16140">
<rect width="24" height="24" fill="white"/>
</clipPath>
</defs>
</svg>
