<svg width="24" height="24" viewBox="0 0 24 24" fill="none" xmlns="http://www.w3.org/2000/svg">
<g clip-path="url(#clip0_25493_2600)">
<path d="M21 4.5V19.5H3V4.5H21ZM21 3H3C2.60218 3 2.22064 3.15804 1.93934 3.43934C1.65804 3.72064 1.5 4.10218 1.5 4.5V19.5C1.5 19.8978 1.65804 20.2794 1.93934 20.5607C2.22064 20.842 2.60218 21 3 21H21C21.3978 21 21.7794 20.842 22.0607 20.5607C22.342 20.2794 22.5 19.8978 22.5 19.5V4.5C22.5 4.10218 22.342 3.72064 22.0607 3.43934C21.7794 3.15804 21.3978 3 21 3Z" fill="black"/>
<path d="M9.75 7.5H4.5V9H9.75V7.5Z" fill="black"/>
<path d="M7.5 10.5H4.5V12H7.5V10.5Z" fill="black"/>
<path d="M17.25 13.5H12.75C12.1533 13.5 11.581 13.7371 11.159 14.159C10.7371 14.581 10.5 15.1533 10.5 15.75V17.25H12V15.75C12 15.5511 12.079 15.3603 12.2197 15.2197C12.3603 15.079 12.5511 15 12.75 15H17.25C17.4489 15 17.6397 15.079 17.7803 15.2197C17.921 15.3603 18 15.5511 18 15.75V17.25H19.5V15.75C19.5 15.1533 19.2629 14.581 18.841 14.159C18.419 13.7371 17.8467 13.5 17.25 13.5Z" fill="black"/>
<path d="M15 12.75C15.5933 12.75 16.1734 12.5741 16.6667 12.2444C17.1601 11.9148 17.5446 11.4462 17.7716 10.8981C17.9987 10.3499 18.0581 9.74667 17.9424 9.16473C17.8266 8.58279 17.5409 8.04824 17.1213 7.62868C16.7018 7.20912 16.1672 6.9234 15.5853 6.80764C15.0033 6.69189 14.4001 6.7513 13.8519 6.97836C13.3038 7.20542 12.8352 7.58994 12.5056 8.08329C12.1759 8.57664 12 9.15666 12 9.75C12 10.5456 12.3161 11.3087 12.8787 11.8713C13.4413 12.4339 14.2044 12.75 15 12.75ZM15 8.25C15.2967 8.25 15.5867 8.33797 15.8334 8.5028C16.08 8.66762 16.2723 8.90189 16.3858 9.17598C16.4994 9.45006 16.5291 9.75166 16.4712 10.0426C16.4133 10.3336 16.2704 10.6009 16.0607 10.8107C15.8509 11.0204 15.5836 11.1633 15.2926 11.2212C15.0017 11.2791 14.7001 11.2494 14.426 11.1358C14.1519 11.0223 13.9176 10.83 13.7528 10.5834C13.588 10.3367 13.5 10.0467 13.5 9.75C13.5 9.35218 13.658 8.97065 13.9393 8.68934C14.2206 8.40804 14.6022 8.25 15 8.25Z" fill="black"/>
</g>
<defs>
<clipPath id="clip0_25493_2600">
<rect width="24" height="24" fill="white"/>
</clipPath>
</defs>
</svg>
