<svg width="90" height="56" viewBox="0 0 90 56" fill="none" xmlns="http://www.w3.org/2000/svg">
<path d="M83.156 4.59432C82.2954 3.71639 81.1752 3.28457 79.8306 3.31156L63.9087 3.14645C63.8943 3.14486 63.8814 3.14169 63.8702 3.1401C63.8398 3.07818 63.7997 2.97975 63.7692 2.90355C63.5898 2.46379 63.3189 1.79701 62.5673 1.07783C61.0128 -0.409728 59.5816 -0.0350594 58.8685 0.318971C57.721 0.890499 56.9678 2.13357 56.9518 3.48619L56.8844 8.95699C56.8748 9.22688 56.8492 11.2574 58.104 12.8212H58.0175C57.5768 12.8212 56.5062 13.0085 56.0815 14.7374C55.9149 15.4184 55.9085 16.0693 55.9085 16.1424V18.5984C55.9085 18.5984 55.9085 18.6031 55.9085 18.6047H23.7265V16.5218C23.7265 15.6312 23.3659 15.093 23.063 14.7993C22.4444 14.1976 21.6543 14.1769 21.4268 14.1849H20.369L11.5195 14.1166C11.2662 14.0611 10.7806 13.861 10.6364 12.6259V11.4352C10.6364 9.71585 9.47292 8.2521 7.87032 7.95681C7.29658 7.85045 6.74208 7.90919 6.21963 8.12986C5.10101 8.59978 4.37823 9.73649 4.37823 11.0224V22.761C4.37823 23.8548 4.83979 24.882 5.6459 25.5774C6.25649 26.1044 6.93119 26.4569 7.63313 26.6204V30.7894C7.63313 32.6532 9.05304 34.1693 10.7983 34.1693H13.425C14.4009 34.1693 15.2728 33.6946 15.8545 32.9517C16.5741 33.7042 17.5581 34.1693 18.6398 34.1693H19.6094C21.8114 34.1693 23.6031 32.25 23.6031 29.8892V28.5382L61.2532 28.5064V29.5971C61.2532 31.4752 62.891 33.0025 64.9055 33.0025H65.7661C66.8943 33.0025 67.9056 32.523 68.5755 31.7705C69.2454 32.523 70.2566 33.0025 71.3848 33.0025H72.2454C73.2935 33.0025 74.2375 32.5881 74.9042 31.9277C75.5708 32.5881 76.5164 33.0025 77.5629 33.0025H78.4235C80.438 33.0025 82.0758 31.4752 82.0758 29.5971V28.2016C82.0758 28.1095 82.0662 28.0206 82.0518 27.9333C82.5101 27.7095 82.9829 27.3951 83.406 26.9538C84.3643 25.9552 84.8387 24.5804 84.8179 22.8689C84.7522 17.5537 84.8179 9.30626 84.8179 9.22688C84.8179 9.10781 84.8323 6.30256 83.1512 4.58956L83.156 4.59432ZM21.4492 16.1884H21.5069C21.5069 16.1884 21.6768 16.2043 21.7329 16.2583C21.7521 16.2773 21.7858 16.3551 21.7858 16.5234V20.6082H21.7906V22.5419C21.7906 23.2738 21.0133 23.7834 20.3162 23.7834H17.8161C17.143 23.7834 16.5949 23.1642 16.5949 22.4054V16.1598L20.3674 16.1884H21.4524H21.4492ZM6.89593 24.0469C6.53214 23.7326 6.3238 23.2658 6.3238 22.7642V11.0256C6.3238 10.562 6.57861 10.1445 6.95683 9.98574C7.13632 9.91112 7.32383 9.89207 7.53056 9.93017C8.19404 10.0524 8.69566 10.7002 8.69566 11.4368V12.6846L8.70207 12.7942C8.97131 15.3295 10.4233 15.9566 11.2646 16.1059L11.3432 16.1201L14.6493 16.1455V19.4239H11.8191C10.2229 19.4239 9.04022 19.9081 8.30783 20.8638C7.38473 22.0672 7.5514 23.5453 7.63473 24.012V24.528C7.38312 24.4152 7.13632 24.2565 6.89753 24.0501L6.89593 24.0469ZM21.6623 28.5493V29.894C21.6623 31.1498 20.7425 32.1722 19.6126 32.1722H18.643C17.5196 32.1722 16.6061 31.1625 16.5933 29.9178V28.5509H21.6623V28.5493ZM67.4793 29.6019C67.4793 30.3766 66.7132 31.0069 65.7709 31.0069H64.9103C63.968 31.0069 63.2019 30.3766 63.2019 29.6019V28.5493H67.4809V29.6019H67.4793ZM72.2486 31.0069H71.388C70.4457 31.0069 69.6797 30.3766 69.6797 29.6019V28.5493H73.9154V29.6019C73.9154 29.6908 73.9202 29.7781 73.9282 29.8654C73.7775 30.5131 73.0836 31.0053 72.2502 31.0053L72.2486 31.0069ZM80.1383 29.6019C80.1383 30.3766 79.3722 31.0069 78.4299 31.0069H77.5693C76.7375 31.0069 76.042 30.5147 75.8914 29.867C75.8978 29.7797 75.9042 29.6924 75.9042 29.6035V28.5509H80.1399V29.6035L80.1383 29.6019ZM81.4476 26.0108C80.6671 26.4759 79.837 26.4934 79.8338 26.4934L16.9283 26.5474H16.4475V26.5521C15.4779 26.5998 14.6974 27.4221 14.6509 28.4477H14.6461V30.7926C14.6461 31.553 14.098 32.1706 13.425 32.1706H10.7983C10.1252 32.1706 9.57709 31.5514 9.57709 30.7926V23.7913L9.55145 23.677C9.54985 23.6675 9.35914 22.7197 9.83191 22.1021C10.1781 21.6513 10.8464 21.4242 11.8175 21.4242H14.6477V22.4054C14.6477 24.2692 16.0676 25.7853 17.8129 25.7853H20.313C21.9636 25.7853 23.7313 24.4819 23.7313 22.5419V20.6082H55.9517C56.9998 20.6082 57.8508 19.7081 57.8508 18.5999V16.1471C57.854 15.6486 57.9758 15.0374 58.1088 14.8247H62.0689V18.7619C62.0609 19.0476 62.0529 21.1861 63.4183 22.6546C64.2532 23.5532 65.3911 24.0088 66.8014 24.0088C67.3383 24.0088 67.7726 23.5611 67.7726 23.0087C67.7726 22.4562 67.3367 22.0085 66.8014 22.0085C65.9344 22.0085 65.2901 21.7703 64.8302 21.2798C63.9696 20.3622 64.0112 18.8333 64.0112 18.8222V14.3246H68.3014C68.1444 14.7136 68.0578 15.1406 68.0578 15.5899V17.0552C68.0578 18.8571 69.4553 20.3225 71.1733 20.3225H77.4154C79.1334 20.3225 80.5309 18.8571 80.5309 17.0552V14.8025C80.5309 13.8578 80.1255 13.1164 79.3883 12.7116C78.9523 12.4719 78.4539 12.3798 77.9924 12.3449V12.3242H60.6313C58.7499 11.4939 58.822 9.13638 58.8252 9.03954L58.8925 3.51477C58.9005 2.91466 59.2211 2.37012 59.7114 2.12564C60.0448 1.95894 60.5192 1.85734 61.2419 2.54793C61.6875 2.9734 61.8269 3.31632 61.9743 3.67988C62.1923 4.2133 62.5192 5.01979 63.75 5.14521L79.8386 5.31508H79.8546C80.6687 5.29762 81.3002 5.52464 81.7809 6.01203C82.8755 7.12016 82.8771 9.19036 82.8771 9.21259C82.8771 9.29514 82.8114 17.5633 82.8771 22.9007C82.8964 24.4089 82.4284 25.4265 81.446 26.0124L81.4476 26.0108ZM78.5886 14.8009V17.0536C78.5886 17.7506 78.0629 18.3189 77.417 18.3189H71.1749C70.529 18.3189 70.0034 17.7522 70.0034 17.0536V15.5883C70.0034 14.8914 70.529 14.323 71.1749 14.323H77.417C78.5886 14.323 78.5886 14.5342 78.5886 14.8009Z" fill="#AD8049"/>
<path d="M11.4604 51.3575C11.5512 51.7525 11.5115 52.2303 11.4699 52.7326L11.4661 52.7796C11.4529 52.9094 11.4434 53.0317 11.4321 53.1558C11.381 53.7615 11.3243 54.45 10.9576 55.0218C10.4813 55.7855 9.59664 55.7686 8.95206 55.7592H8.79706C8.05987 55.7441 6.85011 55.7272 5.9598 55.7253C4.84645 55.7197 3.81815 55.7272 2.62352 55.746C2.33242 55.7328 2.10559 55.746 1.88443 55.7592C1.74455 55.7667 1.60846 55.7742 1.47047 55.7742C1.11888 55.7742 0.767296 55.7234 0.376015 55.4958L0.294734 55.4338C-0.321487 54.8243 0.173758 54.1001 0.470527 53.6693C0.583941 53.5019 0.703027 53.3289 0.740832 53.2104C0.875039 52.8718 0.88071 52.5727 0.890162 52.1193C0.893942 51.9783 0.895832 51.8221 0.903393 51.6547C0.944979 48.8821 0.948759 46.4254 0.909064 44.3619C0.892052 44.012 0.837235 43.7299 0.735161 43.4835C0.670893 43.2972 0.561259 43.1223 0.442173 42.938C0.230466 42.605 -0.00959604 42.2269 0.00174544 41.7774L0.0187577 41.6664L0.0433311 41.5949C0.398698 40.7766 1.5423 40.8161 2.3759 40.8462C2.62163 40.8556 2.85224 40.8632 3.00724 40.8481L3.1301 40.8444C4.26614 40.8124 5.31523 40.8368 5.63657 41.4764C5.81236 41.8281 5.7084 42.2476 5.32846 42.7235L5.18858 42.9041C4.99767 43.1468 4.81809 43.3762 4.70468 43.6227C4.54023 43.9688 4.52322 44.3487 4.51566 44.8472C4.49297 46.3107 4.49297 47.9397 4.49486 49.516V51.1017C4.49864 51.2691 4.49675 51.4516 4.49486 51.634C4.4873 52.2736 4.48163 52.9357 4.79541 53.0975C5.41541 53.453 6.21688 53.3909 6.99188 53.3289L7.03346 53.3251C8.33963 53.2235 9.00877 52.7194 9.58719 51.4008C9.64011 51.2654 9.89341 50.9362 9.8953 50.9343C10.262 50.4659 10.6552 50.5054 10.8064 50.543C11.1391 50.6258 11.3886 50.9381 11.4604 51.3575Z" fill="#621132"/>
<path d="M17.3643 53.786C17.6667 54.1867 18.1242 54.7924 17.7178 55.3661L17.6365 55.4508C17.1885 55.8006 16.6535 55.8665 16.1356 55.8665C15.9768 55.8665 15.8218 55.8608 15.6706 55.8552C15.4324 55.8458 15.2075 55.8383 15.0052 55.8514L14.9032 55.8552C13.786 55.8853 12.7559 55.859 12.4307 55.2213C12.2512 54.8695 12.3495 54.4482 12.7218 53.9666L12.7615 53.9064C12.9808 53.5942 13.1868 53.3007 13.2643 52.9885C13.3343 52.6649 13.3267 52.1401 13.3191 51.6304C13.3154 51.3557 13.3116 51.0811 13.3191 50.8272V47.793C13.3191 46.0549 13.3191 44.3413 13.3191 43.4234C13.3191 43.0547 13.0734 42.7744 12.8352 42.5035C12.5838 42.2176 12.2984 41.8922 12.4024 41.4689C12.4988 41.0664 12.909 40.7579 13.8144 40.3968C15.0317 39.8889 15.9069 39.6594 16.4872 40.092C16.956 40.44 17.1072 41.1153 16.9768 42.2797C16.9503 42.9305 16.9352 43.7431 16.9352 44.5369V52.3489C16.9352 52.7157 16.9371 53.0054 17.0675 53.3026L17.0864 53.359C17.111 53.4493 17.2509 53.6337 17.3624 53.7823L17.3643 53.786Z" fill="#621132"/>
<path d="M28.8152 48.6056C28.8152 49.0175 28.8039 49.4539 28.7888 49.8885V54.971C28.7888 55.0933 28.7548 55.2156 28.6905 55.3322C28.5563 55.5767 28.2992 55.731 28.0251 55.731H26.2899C25.8683 55.731 25.5262 55.3905 25.5262 54.971V54.7265C24.7266 55.351 23.6303 55.7272 22.5699 55.7272C20.4622 55.7272 19.0464 54.5346 19.0464 52.757C19.0464 50.9795 20.2184 49.7888 22.3487 49.1548C23.1086 48.9385 23.9214 48.8257 24.5735 48.7354C24.8968 48.6902 25.2937 48.6357 25.4393 48.5924C25.4563 48.5435 25.4941 48.3968 25.4941 48.03C25.4941 47.4694 25.3769 46.4856 24.6057 46.1565C24.341 46.068 24.0594 46.0285 23.7929 46.0474C23.0519 46.1019 22.5264 46.5327 22.3355 47.2305L22.3128 47.3058C22.0595 48.1428 21.8213 48.3723 20.7344 48.282C20.4131 48.2557 20.1806 48.1466 20.0237 47.9472C19.7666 47.6237 19.778 47.1534 19.8857 46.4555C19.9935 45.7483 20.5057 45.1012 21.3261 44.6347C22.0671 44.2133 22.9744 43.9933 23.8155 44.0064C24.4166 44.0008 24.978 44.0741 25.5111 44.2284H25.5149C25.5149 44.2284 25.5205 44.2284 25.5224 44.2303C25.5262 44.2303 25.53 44.2321 25.5338 44.234C26.6263 44.4993 27.4977 45.0805 28.061 45.9138L28.1801 46.0586V46.117C28.596 46.8186 28.8134 47.65 28.8134 48.6056H28.8152ZM23.5207 53.2668C24.7058 53.2668 25.5035 52.3733 25.5035 51.0453C25.5035 50.8572 25.4979 50.733 25.4903 50.6503C24.7607 50.6634 24.186 50.7424 23.6965 50.8967C22.8723 51.1676 22.3979 51.6886 22.3979 52.3225C22.3979 53.1972 23.2579 53.2668 23.5226 53.2668H23.5207Z" fill="#621132"/>
<path d="M40.7948 44.6649C41.2636 44.7646 41.585 45.1784 41.5415 45.6261C41.5075 45.9892 41.2995 46.2224 41.0992 46.4481C41.0103 46.5497 40.9064 46.6645 40.8024 46.8112C40.6115 47.0651 40.4262 47.3981 40.2882 47.7329C39.8535 48.7675 39.052 50.9495 38.5738 52.2549L38.3734 52.7986C38.2789 53.0168 38.1995 53.2237 38.1201 53.4343C37.795 54.2883 37.4264 55.2571 36.5059 55.7292C36.1278 55.9098 35.7932 56.0001 35.4927 56.0001C35.3074 56.0001 35.1335 55.9662 34.971 55.8966C34.5268 55.7085 34.2111 55.2928 33.9767 54.5855C33.8179 54.2056 33.5552 53.5623 33.2527 52.8174C32.629 51.2824 31.8521 49.3732 31.336 48.1862C31.0809 47.637 30.871 47.2118 30.5535 46.8356C30.0072 46.3127 29.7633 45.8368 29.8295 45.4173C29.8616 45.2142 29.9826 44.9339 30.3777 44.7477C30.7349 44.6009 31.0941 44.6141 31.4116 44.6273L31.4948 44.631C32.077 44.6668 32.6346 44.648 33.2282 44.631L33.6629 44.6179C34.0088 44.5803 34.557 44.663 34.8519 45.0355C35.0409 45.2744 35.0806 45.581 34.9653 45.897C34.9048 46.0682 34.8103 46.2243 34.7271 46.3635C34.6515 46.4895 34.5816 46.608 34.5476 46.7153C34.4776 46.941 34.5249 47.0877 34.6099 47.351C34.6383 47.4376 34.6667 47.5279 34.6931 47.6257C34.9748 48.4533 35.2791 49.2189 35.6023 50.0315L35.8688 50.7049C35.9199 50.8046 35.9993 51.0078 36.09 51.2448C36.1486 51.3953 36.2393 51.6285 36.3282 51.8373C36.7837 50.8385 37.1542 49.5876 37.4869 48.4646C37.5663 48.1975 37.6438 47.936 37.7213 47.684C37.8725 47.1799 37.8498 46.8544 37.64 46.561C37.5909 46.4839 37.5436 46.4256 37.4982 46.3654C37.3054 46.1171 37.0124 45.739 37.1807 45.2556C37.4302 44.5859 38.2165 44.6122 38.553 44.6254C38.9367 44.6593 39.2807 44.6499 39.6456 44.6386C39.982 44.6292 40.3298 44.6198 40.689 44.6461L40.7948 44.6649Z" fill="#621132"/>
<path d="M51.7234 51.0586C51.8822 51.0586 52.402 51.1263 52.402 52.0029C52.402 53.5604 50.6668 55.8157 47.529 55.8157C44.3912 55.8157 42.0624 53.5585 42.0624 50.2008C42.0624 46.8431 44.5235 44.1194 47.7879 44.1194C50.7065 44.1194 52.2338 46.2092 52.2338 48.2746C52.2338 48.9969 51.9143 49.5293 51.2565 49.9017C49.8105 50.7727 46.6273 50.9683 45.703 51.0059C45.8126 51.7489 46.5026 52.996 48.2454 52.996C49.4608 52.996 50.3832 52.4994 50.99 51.5213L51.0165 51.4837C51.1696 51.2899 51.4153 51.0586 51.7215 51.0586H51.7234ZM49.0582 47.9003C49.0582 46.9692 48.4098 46.2657 47.5517 46.2657C46.2776 46.2657 45.4195 47.6087 45.4195 48.8634C45.4195 48.9123 45.4232 48.9499 45.427 48.9744C46.2965 48.9612 48.2321 48.6734 48.8805 48.2276C49.0128 48.1354 49.0582 48.0527 49.0582 47.8984V47.9003Z" fill="#621132"/>
<path d="M73.727 54.1905C73.846 54.5949 73.727 54.8639 73.6041 55.0181C73.3281 55.368 72.8045 55.4301 72.3622 55.4301C72.2223 55.4301 72.09 55.4244 71.9766 55.4188C71.366 55.3943 70.8935 55.3868 70.2999 55.4132H70.1695C69.6591 55.4226 68.8879 55.4395 68.542 54.9899C68.4305 54.8432 68.319 54.593 68.4267 54.2243C68.4985 53.9817 68.6119 53.8218 68.7329 53.6544C68.7934 53.5697 68.8633 53.4719 68.9446 53.3421C69.2452 52.8531 69.2924 52.2605 69.2792 51.8486C69.266 51.5683 69.2546 51.1676 69.2414 50.6974C69.2112 49.5763 69.1677 48.0018 69.0448 46.655C68.99 46.781 68.9295 46.9221 68.8615 47.0839C68.4532 48.0658 68.128 48.9029 67.6782 50.071L67.6668 50.1011C67.4967 50.5394 67.3133 51.0266 67.1262 51.5213C66.7557 52.5013 66.372 53.5152 66.0582 54.2563C65.8125 54.9222 65.2133 55.4056 64.6103 55.415C64.1113 55.4207 63.6954 55.1103 63.4667 54.5535C63.2153 53.9948 62.7125 52.7496 62.1284 51.3106C61.4611 49.6647 60.7239 47.8438 60.1625 46.544C60.1285 47.2344 60.1077 48.0733 60.0888 48.8953C60.0737 49.5217 60.0586 50.1443 60.0378 50.6974C60.0189 51.3821 60.0132 52.1119 60.1512 52.8173C60.2193 53.2161 60.327 53.4587 60.5141 53.6374C60.6502 53.7541 61.1417 54.2225 61.0491 54.7397C61.0226 54.8883 60.9243 55.1592 60.55 55.3022L60.4933 55.3191C59.9811 55.4338 59.3422 55.4244 58.7241 55.415C58.5615 55.4132 58.4046 55.4094 58.2534 55.4113L58.0681 55.415C57.5124 55.4263 56.8225 55.4414 56.52 54.9768C56.3556 54.7228 56.3594 54.4087 56.5333 54.0438C56.624 53.8519 56.7544 53.7108 56.8811 53.5735C56.9737 53.4738 57.0682 53.3703 57.1552 53.2406C57.3234 53.0073 57.3385 52.7101 57.3555 52.364C57.3593 52.2793 57.365 52.1947 57.3706 52.11C57.5672 50.0296 57.7147 46.5591 57.7279 44.6197C57.7241 44.5031 57.7241 44.3752 57.7241 44.2473C57.7241 43.6002 57.7203 43.0415 57.4085 42.5637C57.3139 42.4132 57.2005 42.2966 57.0909 42.1838C56.9227 42.0107 56.7469 41.8301 56.6618 41.5668C56.5711 41.3429 56.5938 41.0627 56.7336 40.8294C56.8943 40.5623 57.1797 40.3798 57.5011 40.3422C57.76 40.2933 58.0171 40.3065 58.2666 40.3159C58.3422 40.3196 58.4178 40.3234 58.4953 40.3253C58.6919 40.3328 58.8715 40.3366 59.0492 40.3422C59.3157 40.3479 59.5803 40.3535 59.8544 40.3723H59.8658C61.1568 40.3723 61.7617 41.2639 62.1435 42.0389C62.7805 43.4346 63.737 45.7088 64.5063 47.5372C64.8277 48.299 65.1131 48.9781 65.3248 49.4747C65.4269 49.2189 65.5516 48.8972 65.6972 48.5266C66.4117 46.702 67.6063 43.6491 68.3908 41.9185C68.6913 41.2997 69.1374 40.5811 69.9729 40.4513C70.3812 40.3704 70.8727 40.3554 71.3471 40.3422C71.4965 40.3384 71.6439 40.3347 71.7838 40.3272C72.3149 40.2764 73.0408 40.3065 73.3773 40.7448C73.5115 40.9197 73.6343 41.2244 73.4585 41.6815C73.3602 41.8978 73.2279 42.0483 73.0994 42.1932C73.003 42.3004 72.9047 42.4114 72.8196 42.5449C72.4491 43.0848 72.4454 43.762 72.4416 44.4786V44.7025C72.4548 46.9729 72.6779 50.6485 72.8612 52.2925C72.8934 52.6349 72.9538 53.0129 73.1467 53.2744C73.2242 53.3816 73.2884 53.4663 73.347 53.5396C73.5077 53.7447 73.6438 53.9215 73.7251 54.1942L73.727 54.1905Z" fill="#621132"/>
<path d="M88.2795 53.171C88.7143 53.4776 89.2076 53.8256 89.1944 54.3843C89.2095 54.6232 89.1226 54.8639 88.943 55.0464C88.6198 55.3737 88.0924 55.4283 87.7049 55.4094C87.5291 55.4076 87.3042 55.4 87.0546 55.3906C86.4592 55.3718 85.7182 55.3474 85.085 55.3718C84.8903 55.3681 84.7221 55.3793 84.5425 55.3925C84.1021 55.4245 83.6031 55.4602 83.1286 55.195L83.0492 55.1367C82.3952 54.5272 82.9245 53.9046 83.1796 53.6055C83.2836 53.4832 83.4594 53.2782 83.4462 53.2011C83.4084 52.9942 83.1059 52.317 81.5276 50.246C81.4784 50.1801 81.4387 50.135 81.4085 50.103C81.365 50.1557 81.3159 50.2253 81.2837 50.2723C81.2232 50.3588 81.1627 50.4435 81.0985 50.5131C80.9113 50.7576 80.7053 51.0304 80.4955 51.3144C80.3424 51.5382 80.1874 51.7527 80.0456 51.9483C79.6411 52.5089 79.3198 52.9509 79.3746 53.2067C79.401 53.3196 79.5258 53.4494 79.6581 53.5867C79.7848 53.7184 79.9284 53.8689 80.0248 54.0532C80.2384 54.4877 80.1061 54.7962 80.0116 54.9411C79.7659 55.3116 79.2536 55.4245 78.8604 55.4057C78.6619 55.4038 78.4068 55.3944 78.1402 55.385C77.8208 55.3737 77.4881 55.3605 77.2065 55.3605C77.0042 55.3417 76.7906 55.3605 76.5638 55.3812C76.3729 55.3982 76.1744 55.4151 75.974 55.4151C75.6527 55.4151 75.3313 55.3718 75.0459 55.2101L74.9816 55.1743L74.9344 55.1179C74.7151 54.8564 74.6225 54.5874 74.6584 54.3203C74.7208 53.8482 75.1555 53.5434 75.5752 53.2481C75.7831 53.1014 75.9986 52.9509 76.1649 52.7854C76.8795 52.1383 77.3841 51.463 78.0854 50.5281C78.2291 50.3363 78.3803 50.1331 78.5429 49.9187C78.6393 49.7795 78.7773 49.5932 78.9247 49.3939C79.2668 48.9311 79.7375 48.2972 79.8282 48.0188C79.8377 47.9737 79.8396 47.9605 79.6884 47.7404C79.6411 47.6708 79.5882 47.5956 79.5334 47.5053C79.3954 47.3097 79.246 47.099 79.1024 46.8977L78.9077 46.625C78.781 46.4575 78.6052 46.2168 78.403 45.9365C77.7225 44.9997 76.6942 43.5814 75.9721 42.8723C75.8663 42.7763 75.7472 42.6842 75.6376 42.5995C75.3994 42.4171 75.1763 42.244 75.0421 41.9957C74.8852 41.7267 74.8701 41.3862 75.0062 41.0966C75.1423 40.805 75.4088 40.6056 75.734 40.5473C76.3729 40.4683 77.0798 40.4909 77.7641 40.5116C78.3879 40.5304 79.0343 40.5492 79.5863 40.4927C80.1288 40.4269 80.866 40.521 81.1438 41.0138C81.2781 41.2508 81.3461 41.6458 80.9189 42.18C80.6581 42.4509 80.5503 42.6221 80.5692 42.718C80.6618 43.1413 81.5332 44.5238 82.3971 45.6148C83.0927 44.7496 84.034 43.3406 84.2231 42.8008C84.2684 42.6766 84.1815 42.5412 83.9546 42.2628C83.8488 42.133 83.7392 41.9976 83.656 41.8452C83.4443 41.3994 83.5785 41.0947 83.6768 40.9498C83.9282 40.5755 84.4385 40.4702 84.8374 40.4852C85.6426 40.5304 86.601 40.5322 87.6917 40.489C88.0924 40.4645 88.4629 40.6526 88.65 40.9743C88.8334 41.2903 88.8164 41.6703 88.6065 41.9938C88.3514 42.3305 88.0281 42.5751 87.7162 42.8102C87.4459 43.0133 87.1907 43.2052 87.0131 43.4253C86.5972 43.8937 85.6407 45.1803 84.9451 46.1434C84.8393 46.3071 84.7051 46.4839 84.5709 46.6607C84.3308 46.9748 84.104 47.2739 83.9924 47.5824C84.0926 47.8232 84.4915 48.4778 84.7618 48.8371L84.8279 48.9292C85.6426 50.071 86.8732 51.7959 87.737 52.7252L87.7692 52.7553C87.8996 52.8926 88.0962 53.0299 88.2852 53.1635L88.2795 53.171Z" fill="#621132"/>
</svg>
