<svg width="16" height="16" viewBox="0 0 16 16" fill="none" xmlns="http://www.w3.org/2000/svg">
<g clip-path="url(#clip0_25496_2620)">
<path d="M15 6.5H13V7.5H15V6.5Z" fill="black"/>
<path d="M12.9142 2.37879L11.5 3.79297L12.207 4.5L13.6212 3.08583L12.9142 2.37879Z" fill="black"/>
<path d="M12.207 9.5L11.5 10.207L12.9142 11.6212L13.6212 10.9142L12.207 9.5Z" fill="black"/>
<path d="M9.5 1H8.5V3H9.5V1Z" fill="black"/>
<path d="M9 4C8.83237 4.00109 8.66513 4.01614 8.5 4.045V5.0709C8.66295 5.026 8.83099 5.00218 9 5C9.53043 5 10.0391 5.21071 10.4142 5.58579C10.7893 5.96086 11 6.46957 11 7C11 7.53043 10.7893 8.03914 10.4142 8.41421C10.0391 8.78929 9.53043 9 9 9V10C9.79565 10 10.5587 9.68393 11.1213 9.12132C11.6839 8.55871 12 7.79565 12 7C12 6.20435 11.6839 5.44129 11.1213 4.87868C10.5587 4.31607 9.79565 4 9 4Z" fill="black"/>
<path d="M5 10.092V3.5H4V10.092C3.6664 10.2099 3.38523 10.442 3.20619 10.7472C3.02715 11.0524 2.96177 11.4111 3.02161 11.7598C3.08144 12.1086 3.26264 12.4249 3.53317 12.653C3.80371 12.8811 4.14616 13.0062 4.5 13.0062C4.85385 13.0062 5.1963 12.8811 5.46683 12.653C5.73737 12.4249 5.91857 12.1086 5.9784 11.7598C6.03824 11.4111 5.97286 11.0524 5.79382 10.7472C5.61478 10.442 5.33361 10.2099 5 10.092Z" fill="black"/>
<path d="M4.49997 15C3.81105 15.0007 3.13728 14.7978 2.56325 14.4169C1.98921 14.036 1.5405 13.494 1.27343 12.8589C1.00636 12.2239 0.932839 11.5241 1.0621 10.8474C1.19136 10.1707 1.51764 9.5473 1.99997 9.0554V3.5C1.99997 2.83696 2.26337 2.20107 2.73221 1.73223C3.20105 1.26339 3.83693 1 4.49997 1C5.16301 1 5.7989 1.26339 6.26774 1.73223C6.73658 2.20107 6.99997 2.83696 6.99997 3.5V9.0554C7.48231 9.5473 7.80859 10.1707 7.93785 10.8474C8.06711 11.5241 7.99359 12.2239 7.72652 12.8589C7.45945 13.494 7.01073 14.036 6.4367 14.4169C5.86266 14.7978 5.18889 15.0007 4.49997 15ZM4.49997 2C4.10228 2.00044 3.72101 2.15861 3.4398 2.43982C3.15859 2.72103 3.00041 3.10231 2.99997 3.5V9.4917L2.83397 9.64085C2.45641 9.97831 2.19023 10.4225 2.07066 10.9145C1.95109 11.4066 1.98378 11.9234 2.16438 12.3965C2.34499 12.8696 2.665 13.2766 3.08207 13.5639C3.49913 13.8511 3.99358 14.0048 4.49997 14.0048C5.00636 14.0048 5.50081 13.8511 5.91788 13.5639C6.33494 13.2766 6.65496 12.8696 6.83556 12.3965C7.01617 11.9234 7.04885 11.4066 6.92928 10.9145C6.80971 10.4225 6.54353 9.97831 6.16597 9.64085L5.99997 9.4917V3.5C5.99954 3.10231 5.84136 2.72103 5.56015 2.43982C5.27894 2.15861 4.89766 2.00044 4.49997 2Z" fill="black"/>
</g>
<defs>
<clipPath id="clip0_25496_2620">
<rect width="16" height="16" fill="white"/>
</clipPath>
</defs>
</svg>
