<svg width="16" height="16" viewBox="0 0 16 16" fill="none" xmlns="http://www.w3.org/2000/svg">
<path d="M13.8172 13L8.8944 2.55271C8.81089 2.38573 8.68231 2.24547 8.52321 2.14779C8.36411 2.05011 8.18085 1.99892 7.99416 2.00002C7.80747 2.00111 7.62482 2.05444 7.46687 2.15397C7.30892 2.25351 7.182 2.39527 7.10045 2.56321L2.18285 13H1V14H15V13H13.8172ZM7.995 2.98946L10.4737 8.24996L9.5 8.89891L8 7.89891L6.5 8.89891L5.52245 8.24726L7.995 2.98946ZM5.0923 9.16231L6.5 10.101L8 9.10101L9.5 10.101L10.9046 9.16451L12.7116 13H3.2876L5.0923 9.16231Z" fill="black"/>
<path d="M14.9554 6.63448L11.8138 0.85203C11.7828 0.795895 11.7373 0.749102 11.682 0.716518C11.6268 0.683934 11.5638 0.666748 11.4996 0.666748C11.4355 0.666748 11.3725 0.683934 11.3173 0.716518C11.262 0.749102 11.2165 0.795895 11.1854 0.85203L8.04388 6.63448C8.01402 6.68928 7.99892 6.75091 8.00006 6.8133C8.0012 6.8757 8.01854 6.93673 8.05038 6.99041C8.08222 7.04408 8.12747 7.08856 8.18169 7.11947C8.2359 7.15038 8.29722 7.16667 8.35963 7.16673H14.6396C14.702 7.16667 14.7634 7.15038 14.8176 7.11947C14.8718 7.08856 14.917 7.04408 14.9489 6.99041C14.9807 6.93673 14.9981 6.8757 14.9992 6.8133C15.0003 6.75091 14.9852 6.68928 14.9554 6.63448ZM11.1246 2.66673H11.8746V4.66673H11.1246V2.66673ZM11.4996 6.16673C11.4007 6.16673 11.3041 6.13741 11.2218 6.08247C11.1396 6.02753 11.0755 5.94944 11.0377 5.85807C10.9998 5.76671 10.9899 5.66618 11.0092 5.56919C11.0285 5.4722 11.0762 5.3831 11.1461 5.31318C11.216 5.24325 11.3051 5.19563 11.4021 5.17634C11.4991 5.15705 11.5996 5.16695 11.691 5.20479C11.7823 5.24263 11.8604 5.30672 11.9154 5.38895C11.9703 5.47117 11.9996 5.56784 11.9996 5.66673C11.9996 5.79934 11.947 5.92652 11.8532 6.02028C11.7594 6.11405 11.6322 6.16673 11.4996 6.16673Z" fill="black"/>
</svg>
