<svg width="16" height="16" viewBox="0 0 16 16" fill="none" xmlns="http://www.w3.org/2000/svg">
<g clip-path="url(#clip0_25496_2639)">
<path d="M5.39185 13.2695C5.56665 13.1645 5.77175 13.0195 6.0017 12.8144C5.80665 12.9794 5.6018 13.1295 5.3816 13.2645C5.38675 13.2645 5.38675 13.2695 5.39185 13.2695ZM12.4198 8.485C12.2797 8.16005 12.125 7.79505 11.9748 7.34C11.6948 6.50005 12.2624 5.5714 12.5861 5.16865C12.6753 5.05765 12.7421 4.9719 12.8527 4.8534C12.2995 4.291 11.4481 4.1246 10.7367 4.4655C10.4764 4.5902 10.2098 4.73765 9.95995 4.91005C9.65475 2.625 7.61985 2 6.5 2H5.5L6.09985 2.80005C6.1699 2.89 7.5349 4.76 6.7798 6.64C6.2998 5.375 5.16995 5 4.5 5H4V7C4 7.65505 3.7749 8.21495 3.5349 8.81505C3.2749 9.4701 3 10.155 3 11C3 11.9701 3.48485 12.975 4.36475 13.74C4.72485 13.62 5.06495 13.4601 5.3799 13.265C5.59985 13.13 5.80495 12.98 6 12.8151C6.08985 12.735 6.1848 12.65 6.27 12.5701C6.27975 12.5601 6.2898 12.55 6.2998 12.54C6.43995 12.39 6.58985 12.2249 6.74485 12.035C6.8647 11.89 6.97485 11.735 7.0798 11.5751C7.40475 11.105 7.72995 10.52 8.03975 9.80005L8.3349 9.125L8.8549 9.645C9.11465 9.905 9.4147 10.3101 9.6498 10.8151C9.6747 10.875 9.70475 10.9401 9.7299 11.01C9.7448 11.0401 9.7548 11.075 9.76995 11.11C9.96475 11.615 10.0797 12.205 10.0397 12.8451C10.0397 12.855 10.0397 12.865 10.0348 12.87C10.0348 12.935 10.0297 13.005 10.02 13.0701C10.02 13.0951 10.0148 13.12 10.0097 13.145C9.99995 13.2101 9.9897 13.27 9.9748 13.335C9.97995 13.3649 9.9699 13.39 9.9599 13.415C9.94475 13.4799 9.92985 13.55 9.90985 13.62C9.90985 13.63 9.90985 13.6399 9.9047 13.6449C9.7797 14.085 9.56485 14.495 9.2499 14.845C9.23475 14.8599 9.22475 14.8749 9.20985 14.8849C11.5797 14.425 12.9999 12.6549 12.9999 10.9999C12.9999 9.8699 12.7299 9.225 12.4198 8.485Z" fill="black"/>
</g>
<defs>
<clipPath id="clip0_25496_2639">
<rect width="16" height="16" fill="white"/>
</clipPath>
</defs>
</svg>
