<svg width="16" height="16" viewBox="0 0 16 16" fill="none" xmlns="http://www.w3.org/2000/svg">
<g clip-path="url(#clip0_25496_2632)">
<path d="M14.5 14.0001C14.3293 13.9997 14.16 13.969 14 13.9093V13.9064C13.7657 13.8071 13.5539 13.6614 13.3774 13.478C13.201 13.2947 13.0636 13.0774 12.9734 12.8395C12.9418 12.7393 12.8786 12.6521 12.7932 12.5909C12.7079 12.5297 12.605 12.4979 12.5 12.5001C12.3952 12.5006 12.2932 12.5338 12.2081 12.5951C12.1231 12.6564 12.0593 12.7427 12.0257 12.8419C11.915 13.1646 11.7108 13.447 11.4391 13.6532C11.1674 13.8595 10.8405 13.9802 10.5 14.0001C10.1591 13.9801 9.83181 13.859 9.55993 13.6523C9.28806 13.4456 9.08388 13.1626 8.9734 12.8395C8.94054 12.7401 8.877 12.6537 8.79194 12.5927C8.70687 12.5318 8.60466 12.4993 8.5 12.5001C8.39519 12.5006 8.29316 12.5338 8.20813 12.5951C8.1231 12.6564 8.05931 12.7427 8.02565 12.8419C7.91498 13.1646 7.7108 13.447 7.43912 13.6532C7.16743 13.8595 6.84052 13.9802 6.5 14.0001C6.15906 13.9801 5.83181 13.859 5.55993 13.6523C5.28806 13.4456 5.08388 13.1626 4.9734 12.8395C4.93975 12.7403 4.87582 12.6543 4.79065 12.5934C4.70547 12.5325 4.60334 12.4999 4.49864 12.5002C4.39395 12.5005 4.29199 12.5336 4.20713 12.5949C4.12227 12.6562 4.05879 12.7426 4.02565 12.8419C3.91498 13.1646 3.7108 13.447 3.43912 13.6532C3.16743 13.8595 2.84052 13.9802 2.5 14.0001H1V15.0001H2.5C2.88804 15.0035 3.27141 14.9153 3.61894 14.7427C3.96647 14.57 4.26834 14.3178 4.5 14.0065C4.73404 14.3152 5.0364 14.5656 5.38338 14.738C5.73036 14.9104 6.11255 15.0001 6.5 15.0001C6.88745 15.0001 7.26964 14.9104 7.61662 14.738C7.9636 14.5656 8.26596 14.3152 8.5 14.0065C8.73404 14.3152 9.0364 14.5656 9.38338 14.738C9.73037 14.9104 10.1126 15.0001 10.5 15.0001C10.8874 15.0001 11.2696 14.9104 11.6166 14.738C11.9636 14.5656 12.266 14.3152 12.5 14.0065C12.7784 14.3663 13.1473 14.6458 13.5689 14.8165C13.8641 14.9386 14.1806 15.001 14.5 15.0001H15V14.0001H14.5Z" fill="black"/>
<path d="M14 6.815L14.8786 7.5L15.5 6.7141L8.30615 1.10695C8.21742 1.03765 8.10806 1 7.99547 1C7.88289 1 7.77353 1.03765 7.6848 1.10695L0.5 6.7097L1.12135 7.4956L2 6.81055V9.4043C1.90747 9.62891 1.7715 9.83304 1.5999 10.005C1.42829 10.1769 1.22443 10.3133 1 10.4063V11.448C1.59823 11.3279 2.13179 10.9929 2.5 10.5064C2.73404 10.8151 3.0364 11.0655 3.38338 11.2379C3.73036 11.4103 4.11255 11.5 4.5 11.5C4.88745 11.5 5.26964 11.4103 5.61662 11.2379C5.9636 11.0655 6.26596 10.8151 6.5 10.5064C6.73404 10.8151 7.0364 11.0655 7.38338 11.2379C7.73036 11.4103 8.11255 11.5 8.5 11.5C8.88745 11.5 9.26963 11.4103 9.61662 11.2379C9.9636 11.0655 10.266 10.8151 10.5 10.5064C10.7317 10.8177 11.0335 11.0699 11.3811 11.2426C11.7286 11.4152 12.112 11.5034 12.5 11.5H15V10.5H14V6.815ZM10.9743 9.3416C10.9412 9.2423 10.8777 9.1559 10.7929 9.09459C10.708 9.03328 10.606 9.00015 10.5014 8.99988C10.3967 8.99961 10.2945 9.03221 10.2094 9.09308C10.1242 9.15395 10.0603 9.24002 10.0266 9.33915C9.91616 9.66236 9.71199 9.94536 9.44011 10.1521C9.16823 10.3588 8.84096 10.4799 8.5 10.5C8.15948 10.4801 7.83257 10.3594 7.56088 10.1531C7.2892 9.94688 7.08502 9.66445 6.97435 9.3418C6.94069 9.24255 6.8769 9.15627 6.79187 9.095C6.70684 9.03373 6.60481 9.00052 6.5 9C6.39534 8.99922 6.29313 9.03164 6.20806 9.09262C6.123 9.1536 6.05946 9.23998 6.0266 9.33935C5.91612 9.66252 5.71194 9.94548 5.44007 10.1522C5.16819 10.3589 4.84094 10.48 4.5 10.5C4.17001 10.4847 3.85179 10.3728 3.58491 10.1781C3.31803 9.9834 3.11427 9.71457 2.99895 9.405L3 6.03075L7.9955 2.13575L13 6.0359L13.0008 10.5H12.5C12.1595 10.4801 11.8326 10.3594 11.5609 10.1531C11.2892 9.94688 11.085 9.66425 10.9743 9.3416Z" fill="black"/>
</g>
<defs>
<clipPath id="clip0_25496_2632">
<rect width="16" height="16" fill="white"/>
</clipPath>
</defs>
</svg>
