<svg width="16" height="16" viewBox="0 0 16 16" fill="none" xmlns="http://www.w3.org/2000/svg">
<g clip-path="url(#clip0_25496_2642)">
<path d="M13.5 9.00001H15V7.50001C14.9994 6.96976 14.7885 6.46139 14.4136 6.08645C14.0386 5.71151 13.5303 5.5006 13 5.50001H12.5V4.75001C12.4994 4.28605 12.3149 3.84125 11.9868 3.51318C11.6588 3.18512 11.214 3.00056 10.75 3.00001C10.49 3.00134 10.2336 3.06135 10 3.17556V2.70501C10.0002 2.3122 9.8647 1.93138 9.6165 1.62693C9.3683 1.32247 9.02258 1.11306 8.6378 1.03409C8.25301 0.955111 7.85276 1.01142 7.5047 1.19349C7.15664 1.37557 6.88212 1.67224 6.72755 2.03336L5.6704 4.50001H4.5C3.8372 4.50079 3.20177 4.76443 2.7331 5.2331C2.26442 5.70177 2.00078 6.33721 2 7.00001V9.00001H4C4.6628 8.99923 5.29823 8.73558 5.7669 8.26691C6.23558 7.79824 6.49922 7.16281 6.5 6.50001V5.10256L7.6465 2.42756C7.71026 2.27803 7.82374 2.15513 7.96772 2.07966C8.1117 2.0042 8.27733 1.98081 8.43657 2.01345C8.59582 2.0461 8.73889 2.13277 8.84157 2.25879C8.94424 2.38482 9.00021 2.54245 9 2.70501V11H7.30615L5.5 12.647L3.69385 11H1V12H3.30615L5.5 14L7.69385 12H15V11H10V4.75001C10 4.55109 10.079 4.36033 10.2197 4.21968C10.3603 4.07902 10.5511 4.00001 10.75 4.00001C10.9489 4.00001 11.1397 4.07902 11.2803 4.21968C11.421 4.36033 11.5 4.55109 11.5 4.75001V7.00001C11.5006 7.53026 11.7115 8.03862 12.0864 8.41356C12.4614 8.78851 12.9697 8.99941 13.5 9.00001ZM12.5 6.50001H13C13.2651 6.50031 13.5193 6.60577 13.7068 6.79324C13.8942 6.98071 13.9997 7.23488 14 7.50001V8.00001H13.5C13.2349 7.9997 12.9807 7.89425 12.7932 7.70678C12.6058 7.51931 12.5003 7.26513 12.5 7.00001V6.50001ZM5.5 6.50001C5.49956 6.8977 5.34139 7.27897 5.06018 7.56018C4.77897 7.84139 4.39769 7.99957 4 8.00001H3V7.00001C3.00044 6.60232 3.15861 6.22104 3.43982 5.93983C3.72103 5.65862 4.10231 5.50044 4.5 5.50001H5.5V6.50001Z" fill="black"/>
</g>
<defs>
<clipPath id="clip0_25496_2642">
<rect width="16" height="16" fill="white"/>
</clipPath>
</defs>
</svg>
