<svg width="24" height="24" viewBox="0 0 24 24" fill="none" xmlns="http://www.w3.org/2000/svg">
<g clip-path="url(#clip0_25522_4319)">
<path d="M24 12C24 5.37258 18.6274 0 12 0C5.37258 0 0 5.37258 0 12C0 18.6274 5.37258 24 12 24C18.6274 24 24 18.6274 24 12Z" fill="#51807A" fill-opacity="0.42"/>
<path d="M21.9995 12.0005C21.9995 6.47763 17.5223 2.00049 11.9995 2.00049C6.47665 2.00049 1.99951 6.47763 1.99951 12.0005C1.99951 17.5233 6.47665 22.0004 11.9995 22.0004C17.5223 22.0004 21.9995 17.5233 21.9995 12.0005Z" fill="#335955"/>
<g clip-path="url(#clip1_25522_4319)">
<path d="M17.5 12.9998H19V11.4998C18.9994 10.9695 18.7885 10.4612 18.4136 10.0862C18.0386 9.71126 17.5303 9.50036 17 9.49976H16.5V8.74976C16.4994 8.2858 16.3149 7.84101 15.9868 7.51294C15.6588 7.18487 15.214 7.00032 14.75 6.99976C14.49 7.0011 14.2336 7.0611 14 7.17531V6.70476C14.0002 6.31196 13.8647 5.93114 13.6165 5.62668C13.3683 5.32223 13.0226 5.11282 12.6378 5.03384C12.253 4.95487 11.8528 5.01118 11.5047 5.19325C11.1566 5.37532 10.8821 5.672 10.7276 6.03311L9.6704 8.49976H8.5C7.8372 8.50054 7.20177 8.76419 6.7331 9.23286C6.26442 9.70153 6.00078 10.337 6 10.9998V12.9998H8C8.6628 12.999 9.29823 12.7353 9.7669 12.2667C10.2356 11.798 10.4992 11.1626 10.5 10.4998V9.10231L11.6465 6.42731C11.7103 6.27778 11.8237 6.15488 11.9677 6.07942C12.1117 6.00396 12.2773 5.98057 12.4366 6.01321C12.5958 6.04585 12.7389 6.13252 12.8416 6.25855C12.9442 6.38457 13.0002 6.54221 13 6.70476V14.9998H11.3061L9.5 16.6467L7.69385 14.9998H5V15.9998H7.30615L9.5 17.9998L11.6939 15.9998H19V14.9998H14V8.74976C14 8.55085 14.079 8.36008 14.2197 8.21943C14.3603 8.07878 14.5511 7.99976 14.75 7.99976C14.9489 7.99976 15.1397 8.07878 15.2803 8.21943C15.421 8.36008 15.5 8.55085 15.5 8.74976V10.9998C15.5006 11.53 15.7115 12.0384 16.0864 12.4133C16.4614 12.7883 16.9697 12.9992 17.5 12.9998ZM16.5 10.4998H17C17.2651 10.5001 17.5193 10.6055 17.7068 10.793C17.8942 10.9805 17.9997 11.2346 18 11.4998V11.9998H17.5C17.2349 11.9995 16.9807 11.894 16.7932 11.7065C16.6058 11.5191 16.5003 11.2649 16.5 10.9998V10.4998ZM9.5 10.4998C9.49956 10.8975 9.34139 11.2787 9.06018 11.5599C8.77897 11.8412 8.39769 11.9993 8 11.9998H7V10.9998C7.00044 10.6021 7.15861 10.2208 7.43982 9.93958C7.72103 9.65837 8.10231 9.5002 8.5 9.49976H9.5V10.4998Z" fill="white"/>
</g>
</g>
<defs>
<clipPath id="clip0_25522_4319">
<rect width="24" height="24" fill="white"/>
</clipPath>
<clipPath id="clip1_25522_4319">
<rect width="16" height="16" fill="white" transform="translate(4 4)"/>
</clipPath>
</defs>
</svg>
