<svg width="24" height="24" viewBox="0 0 24 24" fill="none" xmlns="http://www.w3.org/2000/svg">
<g clip-path="url(#clip0_25522_4056)">
<path d="M24 12C24 5.37258 18.6274 0 12 0C5.37258 0 0 5.37258 0 12C0 18.6274 5.37258 24 12 24C18.6274 24 24 18.6274 24 12Z" fill="#51807A" fill-opacity="0.42"/>
<path d="M21.9995 12.0005C21.9995 6.47763 17.5223 2.00049 11.9995 2.00049C6.47665 2.00049 1.99951 6.47763 1.99951 12.0005C1.99951 17.5233 6.47665 22.0004 11.9995 22.0004C17.5223 22.0004 21.9995 17.5233 21.9995 12.0005Z" fill="#335955"/>
<g clip-path="url(#clip1_25522_4056)">
<path d="M16.416 12.4844C16.2798 12.1611 16.1252 11.7944 15.9743 11.3418C15.5793 10.1577 16.8416 8.8657 16.8535 8.8535L16.1465 8.1465C16.0761 8.2168 14.4348 9.88525 15.0257 11.6582C15.1887 12.1472 15.3513 12.5327 15.4946 12.8732C15.8283 13.5324 16.0014 14.2612 16 15C15.9414 15.5955 15.7128 16.1617 15.3414 16.6309C14.9701 17.1002 14.4716 17.4527 13.9054 17.6465C14.0842 16.9453 14.0815 16.2101 13.8975 15.5103C13.7134 14.8104 13.3541 14.169 12.8535 13.6465L12.3313 13.1243L12.0406 13.803C11.1225 15.945 10.03 16.88 9.38735 17.27C8.99295 17.0284 8.66152 16.6967 8.42033 16.3021C8.17914 15.9074 8.03508 15.4612 8 15C8.03445 14.3706 8.19222 13.7541 8.46435 13.1855C8.78721 12.5002 8.96935 11.757 9 11V10.1108C9.43675 10.2908 10 10.7627 10 12V13.3018L10.8716 12.3347C12.4275 10.6074 12.1028 8.5508 11.4746 7.18065C11.9523 7.3399 12.3625 7.65527 12.6392 8.07599C12.9159 8.4967 13.043 8.99829 13 9.5H14C14 6.73145 11.7107 6 10.5 6H9.5L10.0996 6.7993C10.1684 6.8921 11.531 8.7632 10.7764 10.6433C10.6084 10.1708 10.3008 9.76052 9.89419 9.46701C9.4876 9.17349 9.00135 9.01061 8.5 9H8V11C7.96555 11.6294 7.80778 12.2459 7.53565 12.8145C7.21279 13.4998 7.03065 14.243 7 15C7 16.9239 8.9116 19 12 19C15.0884 19 17 16.9239 17 15C17.0008 14.1278 16.8009 13.2671 16.416 12.4844ZM10.4176 17.7632C11.3399 16.9996 12.0849 16.0444 12.6009 14.9639C12.8765 15.4088 13.033 15.9171 13.0556 16.44C13.0781 16.9628 12.9658 17.4827 12.7295 17.9497C12.4877 17.9822 12.244 17.999 12 18C11.4634 18.0038 10.9296 17.9239 10.4176 17.7632Z" fill="white"/>
</g>
</g>
<defs>
<clipPath id="clip0_25522_4056">
<rect width="24" height="24" fill="white"/>
</clipPath>
<clipPath id="clip1_25522_4056">
<rect width="16" height="16" fill="white" transform="translate(4 4)"/>
</clipPath>
</defs>
</svg>
