<svg width="24" height="24" viewBox="0 0 24 24" fill="none" xmlns="http://www.w3.org/2000/svg">
<g clip-path="url(#clip0_25522_3725)">
<path d="M24 12C24 5.37258 18.6274 0 12 0C5.37258 0 0 5.37258 0 12C0 18.6274 5.37258 24 12 24C18.6274 24 24 18.6274 24 12Z" fill="#51807A" fill-opacity="0.42"/>
<path d="M21.9995 12.0005C21.9995 6.47763 17.5223 2.00049 11.9995 2.00049C6.47665 2.00049 1.99951 6.47763 1.99951 12.0005C1.99951 17.5233 6.47665 22.0004 11.9995 22.0004C17.5223 22.0004 21.9995 17.5233 21.9995 12.0005Z" fill="#335955"/>
<g clip-path="url(#clip1_25522_3725)">
<path d="M17.9995 17.0001C17.8288 16.9997 17.6595 16.969 17.4995 16.9093V16.9064C17.2652 16.8071 17.0534 16.6614 16.877 16.478C16.7005 16.2947 16.5631 16.0774 16.4729 15.8395C16.4413 15.7393 16.3781 15.6521 16.2928 15.5909C16.2074 15.5297 16.1045 15.4979 15.9995 15.5001C15.8947 15.5006 15.7927 15.5338 15.7076 15.5951C15.6226 15.6564 15.5588 15.7427 15.5252 15.8419C15.4145 16.1646 15.2103 16.447 14.9386 16.6532C14.6669 16.8595 14.34 16.9802 13.9995 17.0001C13.6586 16.9801 13.3313 16.859 13.0594 16.6523C12.7876 16.4456 12.5834 16.1626 12.4729 15.8395C12.44 15.7401 12.3765 15.6537 12.2914 15.5927C12.2064 15.5318 12.1042 15.4993 11.9995 15.5001C11.8947 15.5006 11.7927 15.5338 11.7076 15.5951C11.6226 15.6564 11.5588 15.7427 11.5252 15.8419C11.4145 16.1646 11.2103 16.447 10.9386 16.6532C10.6669 16.8595 10.34 16.9802 9.99951 17.0001C9.65857 16.9801 9.33132 16.859 9.05945 16.6523C8.78757 16.4456 8.58339 16.1626 8.47291 15.8395C8.43926 15.7403 8.37534 15.6543 8.29016 15.5934C8.20498 15.5325 8.10285 15.4999 7.99816 15.5002C7.89347 15.5005 7.7915 15.5336 7.70664 15.5949C7.62178 15.6562 7.5583 15.7426 7.52516 15.8419C7.41449 16.1646 7.21031 16.447 6.93863 16.6532C6.66695 16.8595 6.34004 16.9802 5.99951 17.0001H4.49951V18.0001H5.99951C6.38755 18.0035 6.77092 17.9153 7.11845 17.7427C7.46598 17.57 7.76785 17.3178 7.99951 17.0065C8.23355 17.3152 8.53591 17.5656 8.88289 17.738C9.22988 17.9104 9.61206 18.0001 9.99951 18.0001C10.387 18.0001 10.7691 17.9104 11.1161 17.738C11.4631 17.5656 11.7655 17.3152 11.9995 17.0065C12.2336 17.3152 12.5359 17.5656 12.8829 17.738C13.2299 17.9104 13.6121 18.0001 13.9995 18.0001C14.387 18.0001 14.7691 17.9104 15.1161 17.738C15.4631 17.5656 15.7655 17.3152 15.9995 17.0065C16.2779 17.3663 16.6468 17.6458 17.0685 17.8165C17.3636 17.9386 17.6801 18.001 17.9995 18.0001H18.4995V17.0001H17.9995Z" fill="white"/>
<path d="M17.4995 9.815L18.3782 10.5L18.9995 9.7141L11.8057 4.10695C11.7169 4.03765 11.6076 4 11.495 4C11.3824 4 11.273 4.03765 11.1843 4.10695L3.99951 9.7097L4.62086 10.4956L5.49951 9.81055V12.4043C5.40698 12.6289 5.27101 12.833 5.09941 13.005C4.9278 13.1769 4.72394 13.3133 4.49951 13.4063V14.448C5.09774 14.3279 5.6313 13.9929 5.99951 13.5064C6.23355 13.8151 6.53591 14.0655 6.88289 14.2379C7.22988 14.4103 7.61206 14.5 7.99951 14.5C8.38696 14.5 8.76915 14.4103 9.11613 14.2379C9.46311 14.0655 9.76547 13.8151 9.99951 13.5064C10.2336 13.8151 10.5359 14.0655 10.8829 14.2379C11.2299 14.4103 11.6121 14.5 11.9995 14.5C12.387 14.5 12.7691 14.4103 13.1161 14.2379C13.4631 14.0655 13.7655 13.8151 13.9995 13.5064C14.2312 13.8177 14.533 14.0699 14.8806 14.2426C15.2281 14.4152 15.6115 14.5034 15.9995 14.5H18.4995V13.5H17.4995V9.815ZM14.4739 12.3416C14.4407 12.2423 14.3772 12.1559 14.2924 12.0946C14.2075 12.0333 14.1056 12.0002 14.0009 11.9999C13.8962 11.9996 13.794 12.0322 13.7089 12.0931C13.6237 12.1539 13.5598 12.24 13.5261 12.3392C13.4157 12.6624 13.2115 12.9454 12.9396 13.1521C12.6677 13.3588 12.3405 13.4799 11.9995 13.5C11.659 13.4801 11.3321 13.3594 11.0604 13.1531C10.7887 12.9469 10.5845 12.6645 10.4739 12.3418C10.4402 12.2425 10.3764 12.1563 10.2914 12.095C10.2063 12.0337 10.1043 12.0005 9.99951 12C9.89485 11.9992 9.79264 12.0316 9.70757 12.0926C9.62251 12.1536 9.55898 12.24 9.52611 12.3394C9.41563 12.6625 9.21145 12.9455 8.93958 13.1522C8.6677 13.3589 8.34045 13.48 7.99951 13.5C7.66952 13.4847 7.3513 13.3728 7.08442 13.1781C6.81754 12.9834 6.61378 12.7146 6.49846 12.405L6.49951 9.03075L11.495 5.13575L16.4995 9.0359L16.5004 13.5H15.9995C15.659 13.4801 15.3321 13.3594 15.0604 13.1531C14.7887 12.9469 14.5845 12.6643 14.4739 12.3416Z" fill="white"/>
</g>
</g>
<defs>
<clipPath id="clip0_25522_3725">
<rect width="24" height="24" fill="white"/>
</clipPath>
<clipPath id="clip1_25522_3725">
<rect width="16" height="16" fill="white" transform="translate(3.49951 3)"/>
</clipPath>
</defs>
</svg>
