<svg width="24" height="24" viewBox="0 0 24 24" fill="none" xmlns="http://www.w3.org/2000/svg">
<g clip-path="url(#clip0_25522_4803)">
<path d="M24 12C24 5.37258 18.6274 0 12 0C5.37258 0 0 5.37258 0 12C0 18.6274 5.37258 24 12 24C18.6274 24 24 18.6274 24 12Z" fill="#51807A" fill-opacity="0.42"/>
<path d="M21.9995 12.0005C21.9995 6.47763 17.5223 2.00049 11.9995 2.00049C6.47665 2.00049 1.99951 6.47763 1.99951 12.0005C1.99951 17.5233 6.47665 22.0004 11.9995 22.0004C17.5223 22.0004 21.9995 17.5233 21.9995 12.0005Z" fill="#335955"/>
<path d="M17.8172 17L12.8944 6.55271C12.8109 6.38573 12.6823 6.24547 12.5232 6.14779C12.3641 6.05011 12.1808 5.99892 11.9942 6.00002C11.8075 6.00111 11.6248 6.05444 11.4669 6.15397C11.3089 6.25351 11.182 6.39527 11.1005 6.56321L6.18285 17H5V18H19V17H17.8172ZM11.995 6.98946L14.4737 12.25L13.5 12.8989L12 11.8989L10.5 12.8989L9.52245 12.2473L11.995 6.98946ZM9.0923 13.1623L10.5 14.101L12 13.101L13.5 14.101L14.9046 13.1645L16.7116 17H7.2876L9.0923 13.1623Z" fill="white"/>
<path d="M18.9554 10.6342L15.8138 4.85179C15.7828 4.79565 15.7373 4.74886 15.682 4.71627C15.6268 4.68369 15.5638 4.6665 15.4996 4.6665C15.4355 4.6665 15.3725 4.68369 15.3173 4.71627C15.262 4.74886 15.2165 4.79565 15.1854 4.85179L12.0439 10.6342C12.014 10.689 11.9989 10.7507 12.0001 10.8131C12.0012 10.8755 12.0185 10.9365 12.0504 10.9902C12.0822 11.0438 12.1275 11.0883 12.1817 11.1192C12.2359 11.1501 12.2972 11.1664 12.3596 11.1665H18.6396C18.702 11.1664 18.7634 11.1501 18.8176 11.1192C18.8718 11.0883 18.917 11.0438 18.9489 10.9902C18.9807 10.9365 18.9981 10.8755 18.9992 10.8131C19.0003 10.7507 18.9852 10.689 18.9554 10.6342ZM15.1246 6.66649H15.8746V8.66649H15.1246V6.66649ZM15.4996 10.1665C15.4007 10.1665 15.3041 10.1372 15.2218 10.0822C15.1396 10.0273 15.0755 9.94919 15.0377 9.85783C14.9998 9.76647 14.9899 9.66593 15.0092 9.56894C15.0285 9.47195 15.0762 9.38286 15.1461 9.31293C15.216 9.24301 15.3051 9.19539 15.4021 9.17609C15.4991 9.1568 15.5996 9.1667 15.691 9.20455C15.7823 9.24239 15.8604 9.30648 15.9154 9.3887C15.9703 9.47093 15.9996 9.5676 15.9996 9.66649C15.9996 9.79909 15.947 9.92627 15.8532 10.02C15.7594 10.1138 15.6322 10.1665 15.4996 10.1665Z" fill="white"/>
</g>
<defs>
<clipPath id="clip0_25522_4803">
<rect width="24" height="24" fill="white"/>
</clipPath>
</defs>
</svg>
