<svg width="24" height="24" viewBox="0 0 24 24" fill="none" xmlns="http://www.w3.org/2000/svg">
<g clip-path="url(#clip0_25522_3711)">
<path d="M24 12C24 5.37258 18.6274 0 12 0C5.37258 0 0 5.37258 0 12C0 18.6274 5.37258 24 12 24C18.6274 24 24 18.6274 24 12Z" fill="#611232" fill-opacity="0.46"/>
<path d="M21.9995 12.0005C21.9995 6.47763 17.5223 2.00049 11.9995 2.00049C6.47665 2.00049 1.99951 6.47763 1.99951 12.0005C1.99951 17.5233 6.47665 22.0004 11.9995 22.0004C17.5223 22.0004 21.9995 17.5233 21.9995 12.0005Z" fill="#611232"/>
<g clip-path="url(#clip1_25522_3711)">
<path d="M18.5 17.0001C18.3293 16.9997 18.16 16.969 18 16.9093V16.9064C17.7657 16.8071 17.5539 16.6614 17.3774 16.478C17.201 16.2947 17.0636 16.0774 16.9734 15.8395C16.9418 15.7393 16.8786 15.6521 16.7932 15.5909C16.7079 15.5297 16.605 15.4979 16.5 15.5001C16.3952 15.5006 16.2932 15.5338 16.2081 15.5951C16.1231 15.6564 16.0593 15.7427 16.0257 15.8419C15.915 16.1646 15.7108 16.447 15.4391 16.6532C15.1674 16.8595 14.8405 16.9802 14.5 17.0001C14.1591 16.9801 13.8318 16.859 13.5599 16.6523C13.2881 16.4456 13.0839 16.1626 12.9734 15.8395C12.9405 15.7401 12.877 15.6537 12.7919 15.5927C12.7069 15.5318 12.6047 15.4993 12.5 15.5001C12.3952 15.5006 12.2932 15.5338 12.2081 15.5951C12.1231 15.6564 12.0593 15.7427 12.0257 15.8419C11.915 16.1646 11.7108 16.447 11.4391 16.6532C11.1674 16.8595 10.8405 16.9802 10.5 17.0001C10.1591 16.9801 9.83181 16.859 9.55993 16.6523C9.28806 16.4456 9.08388 16.1626 8.9734 15.8395C8.93975 15.7403 8.87582 15.6543 8.79065 15.5934C8.70547 15.5325 8.60334 15.4999 8.49864 15.5002C8.39395 15.5005 8.29199 15.5336 8.20713 15.5949C8.12227 15.6562 8.05879 15.7426 8.02565 15.8419C7.91498 16.1646 7.7108 16.447 7.43912 16.6532C7.16743 16.8595 6.84052 16.9802 6.5 17.0001H5V18.0001H6.5C6.88804 18.0035 7.27141 17.9153 7.61894 17.7427C7.96647 17.57 8.26834 17.3178 8.5 17.0065C8.73404 17.3152 9.0364 17.5656 9.38338 17.738C9.73036 17.9104 10.1126 18.0001 10.5 18.0001C10.8874 18.0001 11.2696 17.9104 11.6166 17.738C11.9636 17.5656 12.266 17.3152 12.5 17.0065C12.734 17.3152 13.0364 17.5656 13.3834 17.738C13.7304 17.9104 14.1126 18.0001 14.5 18.0001C14.8874 18.0001 15.2696 17.9104 15.6166 17.738C15.9636 17.5656 16.266 17.3152 16.5 17.0065C16.7784 17.3663 17.1473 17.6458 17.5689 17.8165C17.8641 17.9386 18.1806 18.001 18.5 18.0001H19V17.0001H18.5Z" fill="white"/>
<path d="M18 9.815L18.8786 10.5L19.5 9.7141L12.3062 4.10695C12.2174 4.03765 12.1081 4 11.9955 4C11.8829 4 11.7735 4.03765 11.6848 4.10695L4.5 9.7097L5.12135 10.4956L6 9.81055V12.4043C5.90747 12.6289 5.7715 12.833 5.5999 13.005C5.42829 13.1769 5.22443 13.3133 5 13.4063V14.448C5.59823 14.3279 6.13179 13.9929 6.5 13.5064C6.73404 13.8151 7.0364 14.0655 7.38338 14.2379C7.73036 14.4103 8.11255 14.5 8.5 14.5C8.88745 14.5 9.26964 14.4103 9.61662 14.2379C9.9636 14.0655 10.266 13.8151 10.5 13.5064C10.734 13.8151 11.0364 14.0655 11.3834 14.2379C11.7304 14.4103 12.1126 14.5 12.5 14.5C12.8874 14.5 13.2696 14.4103 13.6166 14.2379C13.9636 14.0655 14.266 13.8151 14.5 13.5064C14.7317 13.8177 15.0335 14.0699 15.3811 14.2426C15.7286 14.4152 16.112 14.5034 16.5 14.5H19V13.5H18V9.815ZM14.9743 12.3416C14.9412 12.2423 14.8777 12.1559 14.7929 12.0946C14.708 12.0333 14.606 12.0002 14.5014 11.9999C14.3967 11.9996 14.2945 12.0322 14.2094 12.0931C14.1242 12.1539 14.0603 12.24 14.0266 12.3392C13.9162 12.6624 13.712 12.9454 13.4401 13.1521C13.1682 13.3588 12.841 13.4799 12.5 13.5C12.1595 13.4801 11.8326 13.3594 11.5609 13.1531C11.2892 12.9469 11.085 12.6645 10.9743 12.3418C10.9407 12.2425 10.8769 12.1563 10.7919 12.095C10.7068 12.0337 10.6048 12.0005 10.5 12C10.3953 11.9992 10.2931 12.0316 10.2081 12.0926C10.123 12.1536 10.0595 12.24 10.0266 12.3394C9.91612 12.6625 9.71194 12.9455 9.44007 13.1522C9.16819 13.3589 8.84094 13.48 8.5 13.5C8.17001 13.4847 7.85179 13.3728 7.58491 13.1781C7.31803 12.9834 7.11427 12.7146 6.99895 12.405L7 9.03075L11.9955 5.13575L17 9.0359L17.0008 13.5H16.5C16.1595 13.4801 15.8326 13.3594 15.5609 13.1531C15.2892 12.9469 15.085 12.6643 14.9743 12.3416Z" fill="white"/>
</g>
</g>
<defs>
<clipPath id="clip0_25522_3711">
<rect width="24" height="24" fill="white"/>
</clipPath>
<clipPath id="clip1_25522_3711">
<rect width="16" height="16" fill="white" transform="translate(4 3)"/>
</clipPath>
</defs>
</svg>
