<svg width="24" height="24" viewBox="0 0 24 24" fill="none" xmlns="http://www.w3.org/2000/svg">
<g clip-path="url(#clip0_25522_4183)">
<path d="M24 12C24 5.37258 18.6274 0 12 0C5.37258 0 0 5.37258 0 12C0 18.6274 5.37258 24 12 24C18.6274 24 24 18.6274 24 12Z" fill="#611232" fill-opacity="0.46"/>
<path d="M21.9995 12.0005C21.9995 6.47763 17.5223 2.00049 11.9995 2.00049C6.47665 2.00049 1.99951 6.47763 1.99951 12.0005C1.99951 17.5233 6.47665 22.0004 11.9995 22.0004C17.5223 22.0004 21.9995 17.5233 21.9995 12.0005Z" fill="#611232"/>
<g clip-path="url(#clip1_25522_4183)">
<path d="M9.39185 17.2695C9.56665 17.1645 9.77175 17.0195 10.0017 16.8144C9.80665 16.9794 9.6018 17.1295 9.3816 17.2645C9.38675 17.2645 9.38675 17.2695 9.39185 17.2695ZM16.4198 12.485C16.2797 12.16 16.125 11.7951 15.9748 11.34C15.6948 10.5001 16.2624 9.5714 16.5861 9.16865C16.6753 9.05765 16.7421 8.9719 16.8527 8.8534C16.2995 8.291 15.4481 8.1246 14.7367 8.4655C14.4764 8.5902 14.2098 8.73765 13.9599 8.91005C13.6547 6.625 11.6199 6 10.5 6H9.5L10.0998 6.80005C10.1699 6.89 11.5349 8.76 10.7798 10.64C10.2998 9.375 9.16995 9 8.5 9H8V11C8 11.655 7.7749 12.215 7.5349 12.8151C7.2749 13.4701 7 14.155 7 15C7 15.9701 7.48485 16.975 8.36475 17.74C8.72485 17.62 9.06495 17.4601 9.3799 17.265C9.59985 17.13 9.80495 16.98 10 16.8151C10.0899 16.735 10.1848 16.65 10.27 16.5701C10.2797 16.5601 10.2898 16.55 10.2998 16.54C10.4399 16.39 10.5899 16.2249 10.7449 16.035C10.8647 15.89 10.9749 15.735 11.0798 15.5751C11.4048 15.105 11.7299 14.52 12.0397 13.8L12.3349 13.125L12.8549 13.645C13.1146 13.905 13.4147 14.3101 13.6498 14.8151C13.6747 14.875 13.7047 14.9401 13.7299 15.01C13.7448 15.0401 13.7548 15.075 13.77 15.11C13.9648 15.615 14.0797 16.205 14.0397 16.8451C14.0397 16.855 14.0397 16.865 14.0348 16.87C14.0348 16.935 14.0297 17.005 14.02 17.0701C14.02 17.0951 14.0148 17.12 14.0097 17.145C14 17.2101 13.9897 17.27 13.9748 17.335C13.9799 17.3649 13.9699 17.39 13.9599 17.415C13.9448 17.4799 13.9298 17.55 13.9098 17.62C13.9098 17.63 13.9098 17.6399 13.9047 17.6449C13.7797 18.085 13.5649 18.495 13.2499 18.845C13.2348 18.8599 13.2247 18.8749 13.2098 18.8849C15.5797 18.425 16.9999 16.6549 16.9999 14.9999C16.9999 13.8699 16.7299 13.225 16.4198 12.485Z" fill="white"/>
</g>
</g>
<defs>
<clipPath id="clip0_25522_4183">
<rect width="24" height="24" fill="white"/>
</clipPath>
<clipPath id="clip1_25522_4183">
<rect width="16" height="16" fill="white" transform="translate(4 4)"/>
</clipPath>
</defs>
</svg>
