<svg width="24" height="24" viewBox="0 0 24 24" fill="none" xmlns="http://www.w3.org/2000/svg">
<g clip-path="url(#clip0_25522_4771)">
<path d="M24 12C24 5.37258 18.6274 0 12 0C5.37258 0 0 5.37258 0 12C0 18.6274 5.37258 24 12 24C18.6274 24 24 18.6274 24 12Z" fill="#611232" fill-opacity="0.46"/>
<path d="M21.9995 12.0005C21.9995 6.47763 17.5223 2.00049 11.9995 2.00049C6.47665 2.00049 1.99951 6.47763 1.99951 12.0005C1.99951 17.5233 6.47665 22.0004 11.9995 22.0004C17.5223 22.0004 21.9995 17.5233 21.9995 12.0005Z" fill="#611232"/>
<g clip-path="url(#clip1_25522_4771)">
<path d="M19 17.0001H16C15.0011 16.9967 14.026 16.6951 13.1996 16.1341C12.3731 15.5732 11.7329 14.7783 11.3609 13.8512C10.9889 12.9242 10.9021 11.9073 11.1115 10.9306C11.321 9.95391 11.8172 9.06199 12.5366 8.36903C11.8833 8.12829 11.1931 8.00345 10.4969 8.00013C9.88807 7.99388 9.28847 8.14877 8.75889 8.44909C8.22931 8.74941 7.78859 9.18447 7.48145 9.71013C6.4983 11.2175 6 13.6701 6 17.0001H5C5 13.473 5.553 10.8364 6.64355 9.16383C7.04199 8.49902 7.60705 7.94973 8.28285 7.57025C8.95866 7.19077 9.72181 6.99425 10.4969 7.00013H10.5002C11.6238 7.01607 12.7288 7.28832 13.7312 7.79613C13.8084 7.83642 13.8738 7.8962 13.9209 7.96954C13.9679 8.04288 13.9949 8.12723 13.9993 8.21425C14.0037 8.30126 13.9853 8.38791 13.9459 8.46561C13.9065 8.54331 13.8474 8.60936 13.7746 8.65723C13.0618 9.13623 12.5214 9.83133 12.233 10.6403C11.9446 11.4493 11.9234 12.3295 12.1725 13.1514C12.4216 13.9734 12.9278 14.6937 13.6168 15.2065C14.3058 15.7193 15.1411 15.9975 16 16.0001H19V17.0001Z" fill="white"/>
</g>
</g>
<defs>
<clipPath id="clip0_25522_4771">
<rect width="24" height="24" fill="white"/>
</clipPath>
<clipPath id="clip1_25522_4771">
<rect width="16" height="16" fill="white" transform="translate(4 4)"/>
</clipPath>
</defs>
</svg>
