<svg width="24" height="24" viewBox="0 0 24 24" fill="none" xmlns="http://www.w3.org/2000/svg">
<g clip-path="url(#clip0_25522_4543)">
<path d="M24 12C24 5.37258 18.6274 0 12 0C5.37258 0 0 5.37258 0 12C0 18.6274 5.37258 24 12 24C18.6274 24 24 18.6274 24 12Z" fill="#611232" fill-opacity="0.46"/>
<path d="M21.9995 12.0005C21.9995 6.47763 17.5223 2.00049 11.9995 2.00049C6.47665 2.00049 1.99951 6.47763 1.99951 12.0005C1.99951 17.5233 6.47665 22.0004 11.9995 22.0004C17.5223 22.0004 21.9995 17.5233 21.9995 12.0005Z" fill="#611232"/>
<g clip-path="url(#clip1_25522_4543)">
<path d="M11.5 7H10.5V8H11.5V7Z" fill="white"/>
<path d="M12.5 8H11.5V9H12.5V8Z" fill="white"/>
<path d="M13.5 9H12.5V10H13.5V9Z" fill="white"/>
<path d="M13.5 7H12.5V8H13.5V7Z" fill="white"/>
<path d="M11.5 9H10.5V10H11.5V9Z" fill="white"/>
<path d="M6.5 15H5.5V16H6.5V15Z" fill="white"/>
<path d="M7.5 16H6.5V17H7.5V16Z" fill="white"/>
<path d="M8.5 17H7.5V18H8.5V17Z" fill="white"/>
<path d="M8.5 15H7.5V16H8.5V15Z" fill="white"/>
<path d="M6.5 17H5.5V18H6.5V17Z" fill="white"/>
<path d="M16.5 15H15.5V16H16.5V15Z" fill="white"/>
<path d="M17.5 16H16.5V17H17.5V16Z" fill="white"/>
<path d="M18.5 17H17.5V18H18.5V17Z" fill="white"/>
<path d="M18.5 15H17.5V16H18.5V15Z" fill="white"/>
<path d="M16.5 17H15.5V18H16.5V17Z" fill="white"/>
<path d="M9 11H8V12H9V11Z" fill="white"/>
<path d="M10 12H9V13H10V12Z" fill="white"/>
<path d="M11 13H10V14H11V13Z" fill="white"/>
<path d="M11 11H10V12H11V11Z" fill="white"/>
<path d="M9 13H8V14H9V13Z" fill="white"/>
<path d="M14 11H13V12H14V11Z" fill="white"/>
<path d="M15 12H14V13H15V12Z" fill="white"/>
<path d="M16 13H15V14H16V13Z" fill="white"/>
<path d="M16 11H15V12H16V11Z" fill="white"/>
<path d="M14 13H13V14H14V13Z" fill="white"/>
<path d="M11.5 15H10.5V16H11.5V15Z" fill="white"/>
<path d="M12.5 16H11.5V17H12.5V16Z" fill="white"/>
<path d="M13.5 17H12.5V18H13.5V17Z" fill="white"/>
<path d="M13.5 15H12.5V16H13.5V15Z" fill="white"/>
<path d="M11.5 17H10.5V18H11.5V17Z" fill="white"/>
<path d="M16.4004 6.56815C16.1873 5.55901 15.6339 4.65376 14.8328 4.00414C14.0317 3.35452 13.0316 3 12.0002 3C10.9688 3 9.96879 3.35452 9.16769 4.00414C8.36659 4.65376 7.81313 5.55901 7.60008 6.56815C6.91896 6.70678 6.30028 7.06028 5.835 7.57666C5.36972 8.09304 5.08237 8.74507 5.0152 9.4369C4.94804 10.1287 5.10459 10.8239 5.46186 11.4201C5.81912 12.0163 6.35824 12.4822 6.99998 12.7493V11.6193C6.61124 11.36 6.31301 10.986 6.14678 10.5492C5.98056 10.1125 5.95461 9.63486 6.07255 9.1827C6.19049 8.73055 6.44646 8.32641 6.80482 8.02653C7.16318 7.72664 7.60611 7.54594 8.07198 7.50955L8.47973 7.4776L8.52928 7.0716C8.6331 6.22414 9.04338 5.44395 9.68275 4.87812C10.3221 4.31229 11.1464 3.99993 12.0002 3.99993C12.854 3.99993 13.6783 4.31229 14.3177 4.87812C14.9571 5.44395 15.3674 6.22414 15.4712 7.0716L15.5205 7.4776L15.9282 7.50955C16.394 7.54603 16.8368 7.72679 17.1951 8.02668C17.5534 8.32657 17.8093 8.73068 17.9272 9.18279C18.0451 9.6349 18.0192 10.1125 17.853 10.5492C17.6868 10.9859 17.3886 11.3599 17 11.6192V12.7492C17.6416 12.4821 18.1807 12.0163 18.5379 11.4201C18.8952 10.8239 19.0518 10.1288 18.9847 9.43707C18.9175 8.74529 18.6303 8.09329 18.1651 7.57688C17.7 7.06048 17.0814 6.70691 16.4004 6.56815Z" fill="white"/>
</g>
</g>
<defs>
<clipPath id="clip0_25522_4543">
<rect width="24" height="24" fill="white"/>
</clipPath>
<clipPath id="clip1_25522_4543">
<rect width="16" height="16" fill="white" transform="translate(4 2)"/>
</clipPath>
</defs>
</svg>
