<svg width="24" height="24" viewBox="0 0 24 24" fill="none" xmlns="http://www.w3.org/2000/svg">
<g clip-path="url(#clip0_25522_4194)">
<path d="M24 12C24 5.37258 18.6274 0 12 0C5.37258 0 0 5.37258 0 12C0 18.6274 5.37258 24 12 24C18.6274 24 24 18.6274 24 12Z" fill="#51807A" fill-opacity="0.42"/>
<path d="M21.9995 12.0005C21.9995 6.47763 17.5223 2.00049 11.9995 2.00049C6.47665 2.00049 1.99951 6.47763 1.99951 12.0005C1.99951 17.5233 6.47665 22.0004 11.9995 22.0004C17.5223 22.0004 21.9995 17.5233 21.9995 12.0005Z" fill="#335955"/>
<g clip-path="url(#clip1_25522_4194)">
<path d="M8.89136 17.2695C9.06616 17.1645 9.27126 17.0195 9.50121 16.8144C9.30616 16.9794 9.10131 17.1295 8.88111 17.2645C8.88626 17.2645 8.88626 17.2695 8.89136 17.2695ZM15.9194 12.485C15.7792 12.16 15.6245 11.7951 15.4743 11.34C15.1943 10.5001 15.7619 9.5714 16.0856 9.16865C16.1748 9.05765 16.2417 8.9719 16.3522 8.8534C15.799 8.291 14.9476 8.1246 14.2362 8.4655C13.9759 8.5902 13.7094 8.73765 13.4595 8.91005C13.1543 6.625 11.1194 6 9.99951 6H8.99951L9.59936 6.80005C9.66941 6.89 11.0344 8.76 10.2793 10.64C9.79931 9.375 8.66946 9 7.99951 9H7.49951V11C7.49951 11.655 7.27441 12.215 7.03441 12.8151C6.77441 13.4701 6.49951 14.155 6.49951 15C6.49951 15.9701 6.98436 16.975 7.86426 17.74C8.22436 17.62 8.56446 17.4601 8.87941 17.265C9.09936 17.13 9.30446 16.98 9.49951 16.8151C9.58936 16.735 9.68431 16.65 9.76951 16.5701C9.77926 16.5601 9.78931 16.55 9.79931 16.54C9.93946 16.39 10.0894 16.2249 10.2444 16.035C10.3642 15.89 10.4744 15.735 10.5793 15.5751C10.9043 15.105 11.2295 14.52 11.5393 13.8L11.8344 13.125L12.3544 13.645C12.6142 13.905 12.9142 14.3101 13.1493 14.8151C13.1742 14.875 13.2043 14.9401 13.2294 15.01C13.2443 15.0401 13.2543 15.075 13.2695 15.11C13.4643 15.615 13.5793 16.205 13.5393 16.8451C13.5393 16.855 13.5393 16.865 13.5344 16.87C13.5344 16.935 13.5292 17.005 13.5195 17.0701C13.5195 17.0951 13.5143 17.12 13.5092 17.145C13.4995 17.2101 13.4892 17.27 13.4743 17.335C13.4795 17.3649 13.4694 17.39 13.4594 17.415C13.4443 17.4799 13.4294 17.55 13.4094 17.62C13.4094 17.63 13.4094 17.6399 13.4042 17.6449C13.2792 18.085 13.0644 18.495 12.7494 18.845C12.7343 18.8599 12.7243 18.8749 12.7094 18.8849C15.0792 18.425 16.4994 16.6549 16.4994 14.9999C16.4994 13.8699 16.2295 13.225 15.9194 12.485Z" fill="white"/>
</g>
</g>
<defs>
<clipPath id="clip0_25522_4194">
<rect width="24" height="24" fill="white"/>
</clipPath>
<clipPath id="clip1_25522_4194">
<rect width="16" height="16" fill="white" transform="translate(3.49951 4)"/>
</clipPath>
</defs>
</svg>
