<svg width="24" height="24" viewBox="0 0 24 24" fill="none" xmlns="http://www.w3.org/2000/svg">
<g clip-path="url(#clip0_25521_3625)">
<path d="M24 12C24 5.37258 18.6274 0 12 0C5.37258 0 0 5.37258 0 12C0 18.6274 5.37258 24 12 24C18.6274 24 24 18.6274 24 12Z" fill="#611232" fill-opacity="0.46"/>
<path d="M21.9995 12.0005C21.9995 6.47763 17.5223 2.00049 11.9995 2.00049C6.47665 2.00049 1.99951 6.47763 1.99951 12.0005C1.99951 17.5233 6.47665 22.0004 11.9995 22.0004C17.5223 22.0004 21.9995 17.5233 21.9995 12.0005Z" fill="#611232"/>
<g clip-path="url(#clip1_25521_3625)">
<path d="M20 10.5H18V11.5H20V10.5Z" fill="white"/>
<path d="M17.9142 6.37879L16.5 7.79297L17.207 8.5L18.6212 7.08583L17.9142 6.37879Z" fill="white"/>
<path d="M17.207 13.5L16.5 14.207L17.9142 15.6212L18.6212 14.9142L17.207 13.5Z" fill="white"/>
<path d="M14.5 5H13.5V7H14.5V5Z" fill="white"/>
<path d="M14 8C13.8324 8.00109 13.6651 8.01614 13.5 8.045V9.0709C13.663 9.026 13.831 9.00218 14 9C14.5304 9 15.0391 9.21071 15.4142 9.58579C15.7893 9.96086 16 10.4696 16 11C16 11.5304 15.7893 12.0391 15.4142 12.4142C15.0391 12.7893 14.5304 13 14 13V14C14.7956 14 15.5587 13.6839 16.1213 13.1213C16.6839 12.5587 17 11.7956 17 11C17 10.2044 16.6839 9.44129 16.1213 8.87868C15.5587 8.31607 14.7956 8 14 8Z" fill="white"/>
<path d="M10 14.092V7.5H9V14.092C8.6664 14.2099 8.38523 14.442 8.20619 14.7472C8.02715 15.0524 7.96177 15.4111 8.02161 15.7598C8.08144 16.1086 8.26264 16.4249 8.53317 16.653C8.80371 16.8811 9.14616 17.0062 9.5 17.0062C9.85385 17.0062 10.1963 16.8811 10.4668 16.653C10.7374 16.4249 10.9186 16.1086 10.9784 15.7598C11.0382 15.4111 10.9729 15.0524 10.7938 14.7472C10.6148 14.442 10.3336 14.2099 10 14.092Z" fill="white"/>
<path d="M9.49997 19C8.81105 19.0007 8.13728 18.7978 7.56325 18.4169C6.98921 18.036 6.5405 17.494 6.27343 16.8589C6.00636 16.2239 5.93284 15.5241 6.0621 14.8474C6.19136 14.1707 6.51764 13.5473 6.99997 13.0554V7.5C6.99997 6.83696 7.26337 6.20107 7.73221 5.73223C8.20105 5.26339 8.83693 5 9.49997 5C10.163 5 10.7989 5.26339 11.2677 5.73223C11.7366 6.20107 12 6.83696 12 7.5V13.0554C12.4823 13.5473 12.8086 14.1707 12.9378 14.8474C13.0671 15.5241 12.9936 16.2239 12.7265 16.8589C12.4594 17.494 12.0107 18.036 11.4367 18.4169C10.8627 18.7978 10.1889 19.0007 9.49997 19ZM9.49997 6C9.10228 6.00044 8.72101 6.15861 8.4398 6.43982C8.15859 6.72103 8.00041 7.10231 7.99997 7.5V13.4917L7.83397 13.6409C7.45641 13.9783 7.19023 14.4225 7.07066 14.9145C6.95109 15.4066 6.98378 15.9234 7.16438 16.3965C7.34499 16.8696 7.665 17.2766 8.08207 17.5639C8.49913 17.8511 8.99358 18.0048 9.49997 18.0048C10.0064 18.0048 10.5008 17.8511 10.9179 17.5639C11.3349 17.2766 11.655 16.8696 11.8356 16.3965C12.0162 15.9234 12.0489 15.4066 11.9293 14.9145C11.8097 14.4225 11.5435 13.9783 11.166 13.6409L11 13.4917V7.5C10.9995 7.10231 10.8414 6.72103 10.5602 6.43982C10.2789 6.15861 9.89766 6.00044 9.49997 6Z" fill="white"/>
</g>
</g>
<defs>
<clipPath id="clip0_25521_3625">
<rect width="24" height="24" fill="white"/>
</clipPath>
<clipPath id="clip1_25521_3625">
<rect width="16" height="16" fill="white" transform="translate(5 4)"/>
</clipPath>
</defs>
</svg>
