<svg width="24" height="24" viewBox="0 0 24 24" fill="none" xmlns="http://www.w3.org/2000/svg">
<g clip-path="url(#clip0_25522_3903)">
<path d="M24 12C24 5.37258 18.6274 0 12 0C5.37258 0 0 5.37258 0 12C0 18.6274 5.37258 24 12 24C18.6274 24 24 18.6274 24 12Z" fill="#611232" fill-opacity="0.46"/>
<path d="M21.9995 12.0005C21.9995 6.47763 17.5223 2.00049 11.9995 2.00049C6.47665 2.00049 1.99951 6.47763 1.99951 12.0005C1.99951 17.5233 6.47665 22.0004 11.9995 22.0004C17.5223 22.0004 21.9995 17.5233 21.9995 12.0005Z" fill="#611232"/>
<g clip-path="url(#clip1_25522_3903)">
<path d="M15.3261 6.09105L14.2376 7.34815L13.5357 8.1587L14.3932 8.8025C14.8924 9.17257 15.2978 9.65472 15.5765 10.2101C15.8553 10.7655 15.9997 11.3786 15.9982 12L15.9986 12.0288L15.9994 12.0496C16.0084 12.2654 16.12 17.1052 8.67253 17.9107L9.76253 16.6518L10.4645 15.8413L9.60698 15.1975C9.10775 14.8274 8.7024 14.3453 8.42361 13.7899C8.14481 13.2345 8.00036 12.6214 8.00188 12L8.00148 11.9712L8.00063 11.9504C7.99163 11.735 7.88028 6.90355 15.3261 6.09105ZM16.4989 5C16.4907 5 16.4826 5 16.4743 5.0005C6.62663 5.4573 7.00188 12 7.00188 12C7.00188 12.7763 7.18311 13.542 7.53115 14.2359C7.87919 14.9299 8.38442 15.533 9.00663 15.9973L7.11843 18.1777C7.05793 18.2509 7.0194 18.3397 7.00731 18.4339C6.99522 18.528 7.01006 18.6237 7.05012 18.7097C7.09018 18.7958 7.15381 18.8687 7.23363 18.9201C7.31346 18.9715 7.40621 18.9992 7.50113 19C7.50933 19 7.51748 19 7.52578 18.9995C17.3734 18.5427 16.9982 12 16.9982 12C16.9982 11.2237 16.817 10.4581 16.4689 9.76411C16.1209 9.07016 15.6157 8.46702 14.9936 8.0027L16.8816 5.82225C16.9421 5.7491 16.9807 5.6603 16.9928 5.56614C17.0048 5.47199 16.99 5.37633 16.9499 5.29027C16.9099 5.20421 16.8463 5.13126 16.7664 5.07988C16.6866 5.02851 16.5939 5.00081 16.4989 5Z" fill="white"/>
</g>
</g>
<defs>
<clipPath id="clip0_25522_3903">
<rect width="24" height="24" fill="white"/>
</clipPath>
<clipPath id="clip1_25522_3903">
<rect width="16" height="16" fill="white" transform="translate(4 4)"/>
</clipPath>
</defs>
</svg>
