<svg width="24" height="24" viewBox="0 0 24 24" fill="none" xmlns="http://www.w3.org/2000/svg">
<g clip-path="url(#clip0_25522_4429)">
<path d="M24 12C24 5.37258 18.6274 0 12 0C5.37258 0 0 5.37258 0 12C0 18.6274 5.37258 24 12 24C18.6274 24 24 18.6274 24 12Z" fill="#611232" fill-opacity="0.46"/>
<path d="M21.9995 12.0005C21.9995 6.47763 17.5223 2.00049 11.9995 2.00049C6.47665 2.00049 1.99951 6.47763 1.99951 12.0005C1.99951 17.5233 6.47665 22.0004 11.9995 22.0004C17.5223 22.0004 21.9995 17.5233 21.9995 12.0005Z" fill="#611232"/>
<g clip-path="url(#clip1_25522_4429)">
<path d="M12.3062 5.10695C12.2174 5.03765 12.1081 5 11.9955 5C11.8829 5 11.7735 5.03765 11.6848 5.10695L4.5 10.7097L5.12135 11.4956L6 10.8106V17C6.00054 17.2651 6.10607 17.5191 6.29349 17.7065C6.48091 17.8939 6.73495 17.9995 7 18H17C17.2651 17.9995 17.5191 17.894 17.7066 17.7066C17.894 17.5191 17.9995 17.2651 18 17V10.815L18.8786 11.5L19.5 10.7141L12.3062 5.10695ZM7 10.0308L11.5 6.525V10.2069L13.229 11.9359L9.8618 14.3412L11.1909 17H7V10.0308ZM17 17H12.3091L11.1382 14.6587L14.771 12.064L12.5 9.79295V6.5259L17 10.0359V17Z" fill="white"/>
</g>
</g>
<defs>
<clipPath id="clip0_25522_4429">
<rect width="24" height="24" fill="white"/>
</clipPath>
<clipPath id="clip1_25522_4429">
<rect width="16" height="16" fill="white" transform="translate(4 4)"/>
</clipPath>
</defs>
</svg>
