<svg width="16" height="16" viewBox="0 0 16 16" fill="none" xmlns="http://www.w3.org/2000/svg">
<g clip-path="url(#clip0_25496_2648)">
<path d="M7.5 5H6.5V6H7.5V5Z" fill="black"/>
<path d="M8.5 6H7.5V7H8.5V6Z" fill="black"/>
<path d="M9.5 7H8.5V8H9.5V7Z" fill="black"/>
<path d="M9.5 5H8.5V6H9.5V5Z" fill="black"/>
<path d="M7.5 7H6.5V8H7.5V7Z" fill="black"/>
<path d="M2.5 13H1.5V14H2.5V13Z" fill="black"/>
<path d="M3.5 14H2.5V15H3.5V14Z" fill="black"/>
<path d="M4.5 15H3.5V16H4.5V15Z" fill="black"/>
<path d="M4.5 13H3.5V14H4.5V13Z" fill="black"/>
<path d="M2.5 15H1.5V16H2.5V15Z" fill="black"/>
<path d="M12.5 13H11.5V14H12.5V13Z" fill="black"/>
<path d="M13.5 14H12.5V15H13.5V14Z" fill="black"/>
<path d="M14.5 15H13.5V16H14.5V15Z" fill="black"/>
<path d="M14.5 13H13.5V14H14.5V13Z" fill="black"/>
<path d="M12.5 15H11.5V16H12.5V15Z" fill="black"/>
<path d="M5 9H4V10H5V9Z" fill="black"/>
<path d="M6 10H5V11H6V10Z" fill="black"/>
<path d="M7 11H6V12H7V11Z" fill="black"/>
<path d="M7 9H6V10H7V9Z" fill="black"/>
<path d="M5 11H4V12H5V11Z" fill="black"/>
<path d="M10 9H9V10H10V9Z" fill="black"/>
<path d="M11 10H10V11H11V10Z" fill="black"/>
<path d="M12 11H11V12H12V11Z" fill="black"/>
<path d="M12 9H11V10H12V9Z" fill="black"/>
<path d="M10 11H9V12H10V11Z" fill="black"/>
<path d="M7.5 13H6.5V14H7.5V13Z" fill="black"/>
<path d="M8.5 14H7.5V15H8.5V14Z" fill="black"/>
<path d="M9.5 15H8.5V16H9.5V15Z" fill="black"/>
<path d="M9.5 13H8.5V14H9.5V13Z" fill="black"/>
<path d="M7.5 15H6.5V16H7.5V15Z" fill="black"/>
<path d="M12.4004 4.56815C12.1873 3.55901 11.6339 2.65376 10.8328 2.00414C10.0317 1.35452 9.03162 1 8.00023 1C6.96883 1 5.96879 1.35452 5.16769 2.00414C4.36659 2.65376 3.81313 3.55901 3.60008 4.56815C2.91896 4.70678 2.30028 5.06028 1.835 5.57666C1.36972 6.09304 1.08237 6.74507 1.0152 7.4369C0.948036 8.12873 1.10459 8.82386 1.46186 9.4201C1.81912 10.0163 2.35824 10.4822 2.99998 10.7493V9.6193C2.61124 9.36 2.31301 8.98596 2.14678 8.54925C1.98056 8.11253 1.95461 7.63486 2.07255 7.1827C2.19049 6.73055 2.44646 6.32641 2.80482 6.02653C3.16318 5.72664 3.60611 5.54594 4.07198 5.50955L4.47973 5.4776L4.52928 5.0716C4.6331 4.22414 5.04338 3.44395 5.68275 2.87812C6.32213 2.31229 7.14643 1.99993 8.00023 1.99993C8.85402 1.99993 9.67832 2.31229 10.3177 2.87812C10.9571 3.44395 11.3674 4.22414 11.4712 5.0716L11.5205 5.4776L11.9282 5.50955C12.394 5.54603 12.8368 5.72679 13.1951 6.02668C13.5534 6.32657 13.8093 6.73068 13.9272 7.18279C14.0451 7.6349 14.0192 8.11251 13.853 8.54919C13.6868 8.98586 13.3886 9.35988 13 9.6192V10.7492C13.6416 10.4821 14.1807 10.0163 14.5379 9.42008C14.8952 8.8239 15.0518 8.12884 14.9847 7.43707C14.9175 6.74529 14.6303 6.09329 14.1651 5.57688C13.7 5.06048 13.0814 4.70691 12.4004 4.56815Z" fill="black"/>
</g>
<defs>
<clipPath id="clip0_25496_2648">
<rect width="16" height="16" fill="white"/>
</clipPath>
</defs>
</svg>
