<svg width="16" height="16" viewBox="0 0 16 16" fill="none" xmlns="http://www.w3.org/2000/svg">
<g clip-path="url(#clip0_25496_2689)">
<path d="M15 12.9999H12C11.0011 12.9964 10.026 12.6949 9.19956 12.1339C8.37309 11.5729 7.73287 10.778 7.36088 9.85099C6.98889 8.92397 6.90207 7.90701 7.11152 6.93034C7.32098 5.95367 7.81719 5.06175 8.5366 4.36878C7.88333 4.12805 7.19305 4.0032 6.49685 3.99988C5.88807 3.99363 5.28847 4.14852 4.75889 4.44884C4.22931 4.74917 3.78859 5.18423 3.48145 5.70988C2.4983 7.21728 2 9.66988 2 12.9999H1C1 9.47278 1.553 6.83618 2.64355 5.16358C3.04199 4.49878 3.60705 3.94948 4.28285 3.57C4.95866 3.19052 5.72181 2.99401 6.49685 2.99988H6.50025C7.62378 3.01583 8.72885 3.28808 9.7312 3.79588C9.80845 3.83618 9.87382 3.89595 9.92085 3.96929C9.96788 4.04263 9.99493 4.12699 9.99932 4.214C10.0037 4.30101 9.98529 4.38766 9.94588 4.46536C9.90648 4.54307 9.84745 4.60912 9.77465 4.65698C9.06176 5.13598 8.52139 5.83109 8.23298 6.64008C7.94458 7.44907 7.92337 8.32926 8.17247 9.1512C8.42157 9.97315 8.92783 10.6935 9.61682 11.2063C10.3058 11.719 11.1411 11.9972 12 11.9999H15V12.9999Z" fill="black"/>
</g>
<defs>
<clipPath id="clip0_25496_2689">
<rect width="16" height="16" fill="white"/>
</clipPath>
</defs>
</svg>
